<svg xmlns="http://www.w3.org/2000/svg" viewBox="0 0 512 512"><rect width="512" height="512" fill="#242729"/><polygon points="252.00,508.00 252.00,260.00 231.33,260.00" fill="none" stroke="#b4cfb0" stroke-width="0.5"/><polygon points="252.00,508.00 231.33,260.00 231.33,508.00" fill="none" stroke="#b4cfb0" stroke-width="0.5"/><polygon points="231.33,508.00 231.33,260.00 210.67,260.00" fill="none" stroke="#b4cfb0" stroke-width="0.5"/><polygon points="231.33,508.00 210.67,260.00 210.67,508.00" fill="none" stroke="#b4cfb0" stroke-width="0.5"/><polygon points="210.67,508.00 210.67,260.00 190.00,260.00" fill="none" stroke="#b4cfb0" stroke-width="0.5"/><polygon points="210.67,508.00 190.00,260.00 190.00,508.00" fill="none" stroke="#b4cfb0" stroke-width="0.5"/><polygon points="190.00,508.00 190.00,260.00 169.33,260.00" fill="none" stroke="#b4cfb0" stroke-width="0.5"/><polygon points="190.00,508.00 169.33,260.00 169.33,508.00" fill="none" stroke="#b4cfb0" stroke-width="0.5"/><polygon points="169.33,508.00 169.33,260.00 148.67,260.00" fill="none" stroke="#b4cfb0" stroke-width="0.5"/><polygon points="169.33,508.00 148.67,260.00 148.67,508.00" fill="none" stroke="#b4cfb0" stroke-width="0.5"/><polygon points="148.67,508.00 148.67,260.00 128.00,260.00" fill="none" stroke="#b4cfb0" stroke-width="0.5"/><polygon points="148.67,508.00 128.00,260.00 128.00,508.00" fill="none" stroke="#b4cfb0" stroke-width="0.5"/><polygon points="128.00,508.00 128.00,260.00 107.33,260.00" fill="none" stroke="#b4cfb0" stroke-width="0.5"/><polygon points="128.00,508.00 107.33,260.00 107.33,508.00" fill="none" stroke="#b4cfb0" stroke-width="0.5"/><polygon points="107.33,508.00 107.33,260.00 86.67,260.00" fill="none" stroke="#b4cfb0" stroke-width="0.5"/><polygon points="107.33,508.00 86.67,260.00 86.67,508.00" fill="none" stroke="#b4cfb0" stroke-width="0.5"/><polygon points="86.67,508.00 86.67,260.00 66.00,260.00" fill="none" stroke="#b4cfb0" stroke-width="0.5"/><polygon points="86.67,508.00 66.00,260.00 66.00,508.00" fill="none" stroke="#b4cfb0" stroke-width="0.5"/><polygon points="66.00,508.00 66.00,260.00 45.33,260.00" fill="none" stroke="#b4cfb0" stroke-width="0.5"/><polygon points="66.00,508.00 45.33,260.00 45.33,508.00" fill="none" stroke="#b4cfb0" stroke-width="0.5"/><polygon points="235.39,322.00 190.00,276.61 128.00,260.00" fill="none" stroke="#b4cfb0" stroke-width="0.5"/><polygon points="128.00,260.00 66.00,276.61 20.61,322.00" fill="none" stroke="#b4cfb0" stroke-width="0.5"/><polygon points="20.61,322.00 4.00,384.00 20.61,446.00" fill="none" stroke="#b4cfb0" stroke-width="0.5"/><polygon points="20.61,446.00 66.00,491.39 128.00,508.00" fill="none" stroke="#b4cfb0" stroke-width="0.5"/><polygon points="128.00,508.00 190.00,491.39 235.39,446.00" fill="none" stroke="#b4cfb0" stroke-width="0.5"/><polygon points="235.39,446.00 252.00,384.00 235.39,322.00" fill="none" stroke="#b4cfb0" stroke-width="0.5"/><polygon points="235.39,322.00 128.00,260.00 20.61,322.00" fill="none" stroke="#b4cfb0" stroke-width="0.5"/><polygon points="20.61,322.00 20.61,446.00 128.00,508.00" fill="none" stroke="#b4cfb0" stroke-width="0.5"/><polygon points="128.00,508.00 235.39,446.00 235.39,322.00" fill="none" stroke="#b4cfb0" stroke-width="0.5"/><polygon points="20.61,322.00 128.00,508.00 235.39,322.00" fill="none" stroke="#b4cfb0" stroke-width="0.5"/><polygon points="45.33,508.00 45.33,260.00 24.67,260.00" fill="none" stroke="#b4cfb0" stroke-width="0.5"/><polygon points="45.33,508.00 24.67,260.00 24.67,508.00" fill="none" stroke="#b4cfb0" stroke-width="0.5"/><polygon points="24.67,508.00 24.67,260.00 4.00,260.00" fill="none" stroke="#b4cfb0" stroke-width="0.5"/><polygon points="24.67,508.00 4.00,260.00 4.00,508.00" fill="none" stroke="#b4cfb0" stroke-width="0.5"/><polygon points="66.00,276.61 128.00,260.00 190.00,276.61" fill="none" stroke="#b4cfb0" stroke-width="0.5"/><polygon points="190.00,276.61 235.39,322.00 252.00,384.00" fill="none" stroke="#b4cfb0" stroke-width="0.5"/><polygon points="252.00,384.00 235.39,446.00 190.00,491.39" fill="none" stroke="#b4cfb0" stroke-width="0.5"/><polygon points="190.00,491.39 128.00,508.00 66.00,491.39" fill="none" stroke="#b4cfb0" stroke-width="0.5"/><polygon points="66.00,491.39 20.61,446.00 4.00,384.00" fill="none" stroke="#b4cfb0" stroke-width="0.5"/><polygon points="4.00,384.00 20.61,322.00 66.00,276.61" fill="none" stroke="#b4cfb0" stroke-width="0.5"/><polygon points="66.00,276.61 190.00,276.61 252.00,384.00" fill="none" stroke="#b4cfb0" stroke-width="0.5"/><polygon points="252.00,384.00 190.00,491.39 66.00,491.39" fill="none" stroke="#b4cfb0" stroke-width="0.5"/><polygon points="66.00,491.39 4.00,384.00 66.00,276.61" fill="none" stroke="#b4cfb0" stroke-width="0.5"/><polygon points="252.00,384.00 66.00,491.39 66.00,276.61" fill="none" stroke="#b4cfb0" stroke-width="0.5"/><polygon points="252.00,508.00 252.00,260.00 221.00,260.00" fill="none" stroke="#b4cfb0" stroke-width="0.5"/><polygon points="252.00,508.00 221.00,260.00 221.00,508.00" fill="none" stroke="#b4cfb0" stroke-width="0.5"/><polygon points="221.00,508.00 221.00,260.00 190.00,260.00" fill="none" stroke="#b4cfb0" stroke-width="0.5"/><polygon points="221.00,508.00 190.00,260.00 190.00,508.00" fill="none" stroke="#b4cfb0" stroke-width="0.5"/><polygon points="190.00,508.00 190.00,260.00 159.00,260.00" fill="none" stroke="#b4cfb0" stroke-width="0.5"/><polygon points="190.00,508.00 159.00,260.00 159.00,508.00" fill="none" stroke="#b4cfb0" stroke-width="0.5"/><polygon points="159.00,508.00 159.00,260.00 128.00,260.00" fill="none" stroke="#b4cfb0" stroke-width="0.5"/><polygon points="159.00,508.00 128.00,260.00 128.00,508.00" fill="none" stroke="#b4cfb0" stroke-width="0.5"/><polygon points="128.00,508.00 128.00,260.00 97.00,260.00" fill="none" stroke="#b4cfb0" stroke-width="0.5"/><polygon points="128.00,508.00 97.00,260.00 97.00,508.00" fill="none" stroke="#b4cfb0" stroke-width="0.5"/><polygon points="97.00,508.00 97.00,260.00 66.00,260.00" fill="none" stroke="#b4cfb0" stroke-width="0.5"/><polygon points="97.00,508.00 66.00,260.00 66.00,508.00" fill="none" stroke="#b4cfb0" stroke-width="0.5"/><polygon points="252.00,384.00 215.68,296.32 128.00,260.00" fill="none" stroke="#b4cfb0" stroke-width="0.5"/><polygon points="128.00,260.00 40.32,296.32 4.00,384.00" fill="none" stroke="#b4cfb0" stroke-width="0.5"/><polygon points="4.00,384.00 40.32,471.68 128.00,508.00" fill="none" stroke="#b4cfb0" stroke-width="0.5"/><polygon points="128.00,508.00 215.68,471.68 252.00,384.00" fill="none" stroke="#b4cfb0" stroke-width="0.5"/><polygon points="252.00,384.00 128.00,260.00 4.00,384.00" fill="none" stroke="#b4cfb0" stroke-width="0.5"/><polygon points="4.00,384.00 128.00,508.00 252.00,384.00" fill="none" stroke="#b4cfb0" stroke-width="0.5"/><polygon points="66.00,508.00 66.00,260.00 35.00,260.00" fill="none" stroke="#b4cfb0" stroke-width="0.5"/><polygon points="66.00,508.00 35.00,260.00 35.00,508.00" fill="none" stroke="#b4cfb0" stroke-width="0.5"/><polygon points="35.00,508.00 35.00,260.00 4.00,260.00" fill="none" stroke="#b4cfb0" stroke-width="0.5"/><polygon points="35.00,508.00 4.00,260.00 4.00,508.00" fill="none" stroke="#b4cfb0" stroke-width="0.5"/><polygon points="40.32,296.32 128.00,260.00 215.68,296.32" fill="none" stroke="#b4cfb0" stroke-width="0.5"/><polygon points="215.68,296.32 252.00,384.00 215.68,471.68" fill="none" stroke="#b4cfb0" stroke-width="0.5"/><polygon points="215.68,471.68 128.00,508.00 40.32,471.68" fill="none" stroke="#b4cfb0" stroke-width="0.5"/><polygon points="40.32,471.68 4.00,384.00 40.32,296.32" fill="none" stroke="#b4cfb0" stroke-width="0.5"/><polygon points="40.32,296.32 215.68,296.32 215.68,471.68" fill="none" stroke="#b4cfb0" stroke-width="0.5"/><polygon points="215.68,471.68 40.32,471.68 40.32,296.32" fill="none" stroke="#b4cfb0" stroke-width="0.5"/><polygon points="252.00,252.00 252.00,4.00 231.33,4.00" fill="none" stroke="#b4cfb0" stroke-width="0.5"/><polygon points="252.00,252.00 231.33,4.00 231.33,252.00" fill="none" stroke="#b4cfb0" stroke-width="0.5"/><polygon points="231.33,252.00 231.33,4.00 210.67,4.00" fill="none" stroke="#b4cfb0" stroke-width="0.5"/><polygon points="231.33,252.00 210.67,4.00 210.67,252.00" fill="none" stroke="#b4cfb0" stroke-width="0.5"/><polygon points="210.67,252.00 210.67,4.00 190.00,4.00" fill="none" stroke="#b4cfb0" stroke-width="0.5"/><polygon points="210.67,252.00 190.00,4.00 190.00,252.00" fill="none" stroke="#b4cfb0" stroke-width="0.5"/><polygon points="190.00,252.00 190.00,4.00 169.33,4.00" fill="none" stroke="#b4cfb0" stroke-width="0.5"/><polygon points="190.00,252.00 169.33,4.00 169.33,252.00" fill="none" stroke="#b4cfb0" stroke-width="0.5"/><polygon points="169.33,252.00 169.33,4.00 148.67,4.00" fill="none" stroke="#b4cfb0" stroke-width="0.5"/><polygon points="169.33,252.00 148.67,4.00 148.67,252.00" fill="none" stroke="#b4cfb0" stroke-width="0.5"/><polygon points="148.67,252.00 148.67,4.00 128.00,4.00" fill="none" stroke="#b4cfb0" stroke-width="0.5"/><polygon points="148.67,252.00 128.00,4.00 128.00,252.00" fill="none" stroke="#b4cfb0" stroke-width="0.5"/><polygon points="128.00,252.00 128.00,4.00 107.33,4.00" fill="none" stroke="#b4cfb0" stroke-width="0.5"/><polygon points="128.00,252.00 107.33,4.00 107.33,252.00" fill="none" stroke="#b4cfb0" stroke-width="0.5"/><polygon points="107.33,252.00 107.33,4.00 86.67,4.00" fill="none" stroke="#b4cfb0" stroke-width="0.5"/><polygon points="107.33,252.00 86.67,4.00 86.67,252.00" fill="none" stroke="#b4cfb0" stroke-width="0.5"/><polygon points="86.67,252.00 86.67,4.00 66.00,4.00" fill="none" stroke="#b4cfb0" stroke-width="0.5"/><polygon points="86.67,252.00 66.00,4.00 66.00,252.00" fill="none" stroke="#b4cfb0" stroke-width="0.5"/><polygon points="66.00,252.00 66.00,4.00 45.33,4.00" fill="none" stroke="#b4cfb0" stroke-width="0.5"/><polygon points="66.00,252.00 45.33,4.00 45.33,252.00" fill="none" stroke="#b4cfb0" stroke-width="0.5"/><polygon points="188.70,92.96 163.04,67.30 128.00,57.91" fill="none" stroke="#b4cfb0" stroke-width="0.5"/><polygon points="128.00,57.91 92.96,67.30 67.30,92.96" fill="none" stroke="#b4cfb0" stroke-width="0.5"/><polygon points="67.30,92.96 57.91,128.00 67.30,163.04" fill="none" stroke="#b4cfb0" stroke-width="0.5"/><polygon points="67.30,163.04 92.96,188.70 128.00,198.09" fill="none" stroke="#b4cfb0" stroke-width="0.5"/><polygon points="128.00,198.09 163.04,188.70 188.70,163.04" fill="none" stroke="#b4cfb0" stroke-width="0.5"/><polygon points="188.70,163.04 198.09,128.00 188.70,92.96" fill="none" stroke="#b4cfb0" stroke-width="0.5"/><polygon points="188.70,92.96 128.00,57.91 67.30,92.96" fill="none" stroke="#b4cfb0" stroke-width="0.5"/><polygon points="67.30,92.96 67.30,163.04 128.00,198.09" fill="none" stroke="#b4cfb0" stroke-width="0.5"/><polygon points="128.00,198.09 188.70,163.04 188.70,92.96" fill="none" stroke="#b4cfb0" stroke-width="0.5"/><polygon points="67.30,92.96 128.00,198.09 188.70,92.96" fill="none" stroke="#b4cfb0" stroke-width="0.5"/><polygon points="45.33,252.00 45.33,4.00 24.67,4.00" fill="none" stroke="#b4cfb0" stroke-width="0.5"/><polygon points="45.33,252.00 24.67,4.00 24.67,252.00" fill="none" stroke="#b4cfb0" stroke-width="0.5"/><polygon points="24.67,252.00 24.67,4.00 4.00,4.00" fill="none" stroke="#b4cfb0" stroke-width="0.5"/><polygon points="24.67,252.00 4.00,4.00 4.00,252.00" fill="none" stroke="#b4cfb0" stroke-width="0.5"/><polygon points="66.00,20.61 128.00,4.00 190.00,20.61" fill="none" stroke="#b4cfb0" stroke-width="0.5"/><polygon points="190.00,20.61 235.39,66.00 252.00,128.00" fill="none" stroke="#b4cfb0" stroke-width="0.5"/><polygon points="252.00,128.00 235.39,190.00 190.00,235.39" fill="none" stroke="#b4cfb0" stroke-width="0.5"/><polygon points="190.00,235.39 128.00,252.00 66.00,235.39" fill="none" stroke="#b4cfb0" stroke-width="0.5"/><polygon points="66.00,235.39 20.61,190.00 4.00,128.00" fill="none" stroke="#b4cfb0" stroke-width="0.5"/><polygon points="4.00,128.00 20.61,66.00 66.00,20.61" fill="none" stroke="#b4cfb0" stroke-width="0.5"/><polygon points="66.00,20.61 190.00,20.61 252.00,128.00" fill="none" stroke="#b4cfb0" stroke-width="0.5"/><polygon points="252.00,128.00 190.00,235.39 66.00,235.39" fill="none" stroke="#b4cfb0" stroke-width="0.5"/><polygon points="66.00,235.39 4.00,128.00 66.00,20.61" fill="none" stroke="#b4cfb0" stroke-width="0.5"/><polygon points="252.00,128.00 66.00,235.39 66.00,20.61" fill="none" stroke="#b4cfb0" stroke-width="0.5"/><polygon points="508.00,252.00 508.00,4.00 487.33,4.00" fill="none" stroke="#b4cfb0" stroke-width="0.5"/><polygon points="508.00,252.00 487.33,4.00 487.33,252.00" fill="none" stroke="#b4cfb0" stroke-width="0.5"/><polygon points="487.33,252.00 487.33,4.00 466.67,4.00" fill="none" stroke="#b4cfb0" stroke-width="0.5"/><polygon points="487.33,252.00 466.67,4.00 466.67,252.00" fill="none" stroke="#b4cfb0" stroke-width="0.5"/><polygon points="466.67,252.00 466.67,4.00 446.00,4.00" fill="none" stroke="#b4cfb0" stroke-width="0.5"/><polygon points="466.67,252.00 446.00,4.00 446.00,252.00" fill="none" stroke="#b4cfb0" stroke-width="0.5"/><polygon points="446.00,252.00 446.00,4.00 425.33,4.00" fill="none" stroke="#b4cfb0" stroke-width="0.5"/><polygon points="446.00,252.00 425.33,4.00 425.33,252.00" fill="none" stroke="#b4cfb0" stroke-width="0.5"/><polygon points="425.33,252.00 425.33,4.00 404.67,4.00" fill="none" stroke="#b4cfb0" stroke-width="0.5"/><polygon points="425.33,252.00 404.67,4.00 404.67,252.00" fill="none" stroke="#b4cfb0" stroke-width="0.5"/><polygon points="404.67,252.00 404.67,4.00 384.00,4.00" fill="none" stroke="#b4cfb0" stroke-width="0.5"/><polygon points="404.67,252.00 384.00,4.00 384.00,252.00" fill="none" stroke="#b4cfb0" stroke-width="0.5"/><polygon points="384.00,252.00 384.00,4.00 363.33,4.00" fill="none" stroke="#b4cfb0" stroke-width="0.5"/><polygon points="384.00,252.00 363.33,4.00 363.33,252.00" fill="none" stroke="#b4cfb0" stroke-width="0.5"/><polygon points="363.33,252.00 363.33,4.00 342.67,4.00" fill="none" stroke="#b4cfb0" stroke-width="0.5"/><polygon points="363.33,252.00 342.67,4.00 342.67,252.00" fill="none" stroke="#b4cfb0" stroke-width="0.5"/><polygon points="342.67,252.00 342.67,4.00 322.00,4.00" fill="none" stroke="#b4cfb0" stroke-width="0.5"/><polygon points="342.67,252.00 322.00,4.00 322.00,252.00" fill="none" stroke="#b4cfb0" stroke-width="0.5"/><polygon points="322.00,252.00 322.00,4.00 301.33,4.00" fill="none" stroke="#b4cfb0" stroke-width="0.5"/><polygon points="322.00,252.00 301.33,4.00 301.33,252.00" fill="none" stroke="#b4cfb0" stroke-width="0.5"/><polygon points="491.39,66.00 446.00,20.61 384.00,4.00" fill="none" stroke="#b4cfb0" stroke-width="0.5"/><polygon points="384.00,4.00 322.00,20.61 276.61,66.00" fill="none" stroke="#b4cfb0" stroke-width="0.5"/><polygon points="276.61,66.00 260.00,128.00 276.61,190.00" fill="none" stroke="#b4cfb0" stroke-width="0.5"/><polygon points="276.61,190.00 322.00,235.39 384.00,252.00" fill="none" stroke="#b4cfb0" stroke-width="0.5"/><polygon points="384.00,252.00 446.00,235.39 491.39,190.00" fill="none" stroke="#b4cfb0" stroke-width="0.5"/><polygon points="491.39,190.00 508.00,128.00 491.39,66.00" fill="none" stroke="#b4cfb0" stroke-width="0.5"/><polygon points="491.39,66.00 384.00,4.00 276.61,66.00" fill="none" stroke="#b4cfb0" stroke-width="0.5"/><polygon points="276.61,66.00 276.61,190.00 384.00,252.00" fill="none" stroke="#b4cfb0" stroke-width="0.5"/><polygon points="384.00,252.00 491.39,190.00 491.39,66.00" fill="none" stroke="#b4cfb0" stroke-width="0.5"/><polygon points="276.61,66.00 384.00,252.00 491.39,66.00" fill="none" stroke="#b4cfb0" stroke-width="0.5"/><polygon points="301.33,252.00 301.33,4.00 280.67,4.00" fill="none" stroke="#b4cfb0" stroke-width="0.5"/><polygon points="301.33,252.00 280.67,4.00 280.67,252.00" fill="none" stroke="#b4cfb0" stroke-width="0.5"/><polygon points="280.67,252.00 280.67,4.00 260.00,4.00" fill="none" stroke="#b4cfb0" stroke-width="0.5"/><polygon points="280.67,252.00 260.00,4.00 260.00,252.00" fill="none" stroke="#b4cfb0" stroke-width="0.5"/><polygon points="322.00,20.61 384.00,4.00 446.00,20.61" fill="none" stroke="#b4cfb0" stroke-width="0.5"/><polygon points="446.00,20.61 491.39,66.00 508.00,128.00" fill="none" stroke="#b4cfb0" stroke-width="0.5"/><polygon points="508.00,128.00 491.39,190.00 446.00,235.39" fill="none" stroke="#b4cfb0" stroke-width="0.5"/><polygon points="446.00,235.39 384.00,252.00 322.00,235.39" fill="none" stroke="#b4cfb0" stroke-width="0.5"/><polygon points="322.00,235.39 276.61,190.00 260.00,128.00" fill="none" stroke="#b4cfb0" stroke-width="0.5"/><polygon points="260.00,128.00 276.61,66.00 322.00,20.61" fill="none" stroke="#b4cfb0" stroke-width="0.5"/><polygon points="322.00,20.61 446.00,20.61 508.00,128.00" fill="none" stroke="#b4cfb0" stroke-width="0.5"/><polygon points="508.00,128.00 446.00,235.39 322.00,235.39" fill="none" stroke="#b4cfb0" stroke-width="0.5"/><polygon points="322.00,235.39 260.00,128.00 322.00,20.61" fill="none" stroke="#b4cfb0" stroke-width="0.5"/><polygon points="508.00,128.00 322.00,235.39 322.00,20.61" fill="none" stroke="#b4cfb0" stroke-width="0.5"/></svg>