<svg xmlns="http://www.w3.org/2000/svg" viewBox="0 0 512 512"><rect width="512" height="512" fill="#242729"/><polygon points="504.00,248.00 504.00,8.00 464.00,8.00" fill="none" stroke="#b4cfb0" stroke-width="0.5"/><polygon points="504.00,248.00 464.00,8.00 464.00,248.00" fill="none" stroke="#b4cfb0" stroke-width="0.5"/><polygon points="464.00,248.00 464.00,8.00 424.00,8.00" fill="none" stroke="#b4cfb0" stroke-width="0.5"/><polygon points="464.00,248.00 424.00,8.00 424.00,248.00" fill="none" stroke="#b4cfb0" stroke-width="0.5"/><polygon points="424.00,248.00 424.00,8.00 384.00,8.00" fill="none" stroke="#b4cfb0" stroke-width="0.5"/><polygon points="424.00,248.00 384.00,8.00 384.00,248.00" fill="none" stroke="#b4cfb0" stroke-width="0.5"/><polygon points="384.00,248.00 384.00,8.00 344.00,8.00" fill="none" stroke="#b4cfb0" stroke-width="0.5"/><polygon points="384.00,248.00 344.00,8.00 344.00,248.00" fill="none" stroke="#b4cfb0" stroke-width="0.5"/><polygon points="504.00,188.00 504.00,68.00 384.00,8.00" fill="none" stroke="#b4cfb0" stroke-width="0.5"/><polygon points="384.00,8.00 264.00,68.00 264.00,188.00" fill="none" stroke="#b4cfb0" stroke-width="0.5"/><polygon points="264.00,188.00 384.00,248.00 504.00,188.00" fill="none" stroke="#b4cfb0" stroke-width="0.5"/><polygon points="384.00,8.00 264.00,188.00 504.00,188.00" fill="none" stroke="#b4cfb0" stroke-width="0.5"/><polygon points="344.00,248.00 344.00,8.00 304.00,8.00" fill="none" stroke="#b4cfb0" stroke-width="0.5"/><polygon points="344.00,248.00 304.00,8.00 304.00,248.00" fill="none" stroke="#b4cfb0" stroke-width="0.5"/><polygon points="304.00,248.00 304.00,8.00 264.00,8.00" fill="none" stroke="#b4cfb0" stroke-width="0.5"/><polygon points="304.00,248.00 264.00,8.00 264.00,248.00" fill="none" stroke="#b4cfb0" stroke-width="0.5"/><polygon points="264.00,68.00 384.00,8.00 504.00,68.00" fill="none" stroke="#b4cfb0" stroke-width="0.5"/><polygon points="504.00,68.00 504.00,188.00 384.00,248.00" fill="none" stroke="#b4cfb0" stroke-width="0.5"/><polygon points="384.00,248.00 264.00,188.00 264.00,68.00" fill="none" stroke="#b4cfb0" stroke-width="0.5"/><polygon points="504.00,68.00 384.00,248.00 264.00,68.00" fill="none" stroke="#b4cfb0" stroke-width="0.5"/><polygon points="504.00,248.00 504.00,8.00 464.00,8.00" fill="none" stroke="#b4cfb0" stroke-width="0.5"/><polygon points="504.00,248.00 464.00,8.00 464.00,248.00" fill="none" stroke="#b4cfb0" stroke-width="0.5"/><polygon points="464.00,248.00 464.00,8.00 424.00,8.00" fill="none" stroke="#b4cfb0" stroke-width="0.5"/><polygon points="464.00,248.00 424.00,8.00 424.00,248.00" fill="none" stroke="#b4cfb0" stroke-width="0.5"/><polygon points="424.00,248.00 424.00,8.00 384.00,8.00" fill="none" stroke="#b4cfb0" stroke-width="0.5"/><polygon points="424.00,248.00 384.00,8.00 384.00,248.00" fill="none" stroke="#b4cfb0" stroke-width="0.5"/><polygon points="384.00,248.00 384.00,8.00 344.00,8.00" fill="none" stroke="#b4cfb0" stroke-width="0.5"/><polygon points="384.00,248.00 344.00,8.00 344.00,248.00" fill="none" stroke="#b4cfb0" stroke-width="0.5"/><polygon points="504.00,188.00 504.00,68.00 384.00,8.00" fill="none" stroke="#b4cfb0" stroke-width="0.5"/><polygon points="384.00,8.00 264.00,68.00 264.00,188.00" fill="none" stroke="#b4cfb0" stroke-width="0.5"/><polygon points="264.00,188.00 384.00,248.00 504.00,188.00" fill="none" stroke="#b4cfb0" stroke-width="0.5"/><polygon points="384.00,8.00 264.00,188.00 504.00,188.00" fill="none" stroke="#b4cfb0" stroke-width="0.5"/><polygon points="344.00,248.00 344.00,8.00 304.00,8.00" fill="none" stroke="#b4cfb0" stroke-width="0.5"/><polygon points="344.00,248.00 304.00,8.00 304.00,248.00" fill="none" stroke="#b4cfb0" stroke-width="0.5"/><polygon points="304.00,248.00 304.00,8.00 264.00,8.00" fill="none" stroke="#b4cfb0" stroke-width="0.5"/><polygon points="304.00,248.00 264.00,8.00 264.00,248.00" fill="none" stroke="#b4cfb0" stroke-width="0.5"/><polygon points="264.00,68.00 384.00,8.00 504.00,68.00" fill="none" stroke="#b4cfb0" stroke-width="0.5"/><polygon points="504.00,68.00 504.00,188.00 384.00,248.00" fill="none" stroke="#b4cfb0" stroke-width="0.5"/><polygon points="384.00,248.00 264.00,188.00 264.00,68.00" fill="none" stroke="#b4cfb0" stroke-width="0.5"/><polygon points="504.00,68.00 384.00,248.00 264.00,68.00" fill="none" stroke="#b4cfb0" stroke-width="0.5"/><polygon points="504.00,248.00 504.00,8.00 464.00,8.00" fill="none" stroke="#b4cfb0" stroke-width="0.5"/><polygon points="504.00,248.00 464.00,8.00 464.00,248.00" fill="none" stroke="#b4cfb0" stroke-width="0.5"/><polygon points="464.00,248.00 464.00,8.00 424.00,8.00" fill="none" stroke="#b4cfb0" stroke-width="0.5"/><polygon points="464.00,248.00 424.00,8.00 424.00,248.00" fill="none" stroke="#b4cfb0" stroke-width="0.5"/><polygon points="424.00,248.00 424.00,8.00 384.00,8.00" fill="none" stroke="#b4cfb0" stroke-width="0.5"/><polygon points="424.00,248.00 384.00,8.00 384.00,248.00" fill="none" stroke="#b4cfb0" stroke-width="0.5"/><polygon points="384.00,248.00 384.00,8.00 344.00,8.00" fill="none" stroke="#b4cfb0" stroke-width="0.5"/><polygon points="384.00,248.00 344.00,8.00 344.00,248.00" fill="none" stroke="#b4cfb0" stroke-width="0.5"/><polygon points="504.00,188.00 504.00,68.00 384.00,8.00" fill="none" stroke="#b4cfb0" stroke-width="0.5"/><polygon points="384.00,8.00 264.00,68.00 264.00,188.00" fill="none" stroke="#b4cfb0" stroke-width="0.5"/><polygon points="264.00,188.00 384.00,248.00 504.00,188.00" fill="none" stroke="#b4cfb0" stroke-width="0.5"/><polygon points="384.00,8.00 264.00,188.00 504.00,188.00" fill="none" stroke="#b4cfb0" stroke-width="0.5"/><polygon points="344.00,248.00 344.00,8.00 304.00,8.00" fill="none" stroke="#b4cfb0" stroke-width="0.5"/><polygon points="344.00,248.00 304.00,8.00 304.00,248.00" fill="none" stroke="#b4cfb0" stroke-width="0.5"/><polygon points="304.00,248.00 304.00,8.00 264.00,8.00" fill="none" stroke="#b4cfb0" stroke-width="0.5"/><polygon points="304.00,248.00 264.00,8.00 264.00,248.00" fill="none" stroke="#b4cfb0" stroke-width="0.5"/><polygon points="264.00,68.00 384.00,8.00 504.00,68.00" fill="none" stroke="#b4cfb0" stroke-width="0.5"/><polygon points="504.00,68.00 504.00,188.00 384.00,248.00" fill="none" stroke="#b4cfb0" stroke-width="0.5"/><polygon points="384.00,248.00 264.00,188.00 264.00,68.00" fill="none" stroke="#b4cfb0" stroke-width="0.5"/><polygon points="504.00,68.00 384.00,248.00 264.00,68.00" fill="none" stroke="#b4cfb0" stroke-width="0.5"/><polygon points="504.00,248.00 504.00,8.00 464.00,8.00" fill="none" stroke="#b4cfb0" stroke-width="0.5"/><polygon points="504.00,248.00 464.00,8.00 464.00,248.00" fill="none" stroke="#b4cfb0" stroke-width="0.5"/><polygon points="464.00,248.00 464.00,8.00 424.00,8.00" fill="none" stroke="#b4cfb0" stroke-width="0.5"/><polygon points="464.00,248.00 424.00,8.00 424.00,248.00" fill="none" stroke="#b4cfb0" stroke-width="0.5"/><polygon points="424.00,248.00 424.00,8.00 384.00,8.00" fill="none" stroke="#b4cfb0" stroke-width="0.5"/><polygon points="424.00,248.00 384.00,8.00 384.00,248.00" fill="none" stroke="#b4cfb0" stroke-width="0.5"/><polygon points="384.00,248.00 384.00,8.00 344.00,8.00" fill="none" stroke="#b4cfb0" stroke-width="0.5"/><polygon points="384.00,248.00 344.00,8.00 344.00,248.00" fill="none" stroke="#b4cfb0" stroke-width="0.5"/><polygon points="504.00,188.00 504.00,68.00 384.00,8.00" fill="none" stroke="#b4cfb0" stroke-width="0.5"/><polygon points="384.00,8.00 264.00,68.00 264.00,188.00" fill="none" stroke="#b4cfb0" stroke-width="0.5"/><polygon points="264.00,188.00 384.00,248.00 504.00,188.00" fill="none" stroke="#b4cfb0" stroke-width="0.5"/><polygon points="384.00,8.00 264.00,188.00 504.00,188.00" fill="none" stroke="#b4cfb0" stroke-width="0.5"/><polygon points="344.00,248.00 344.00,8.00 304.00,8.00" fill="none" stroke="#b4cfb0" stroke-width="0.5"/><polygon points="344.00,248.00 304.00,8.00 304.00,248.00" fill="none" stroke="#b4cfb0" stroke-width="0.5"/><polygon points="304.00,248.00 304.00,8.00 264.00,8.00" fill="none" stroke="#b4cfb0" stroke-width="0.5"/><polygon points="304.00,248.00 264.00,8.00 264.00,248.00" fill="none" stroke="#b4cfb0" stroke-width="0.5"/><polygon points="264.00,68.00 384.00,8.00 504.00,68.00" fill="none" stroke="#b4cfb0" stroke-width="0.5"/><polygon points="504.00,68.00 504.00,188.00 384.00,248.00" fill="none" stroke="#b4cfb0" stroke-width="0.5"/><polygon points="384.00,248.00 264.00,188.00 264.00,68.00" fill="none" stroke="#b4cfb0" stroke-width="0.5"/><polygon points="504.00,68.00 384.00,248.00 264.00,68.00" fill="none" stroke="#b4cfb0" stroke-width="0.5"/><polygon points="248.00,504.00 248.00,264.00 208.00,264.00" fill="none" stroke="#b4cfb0" stroke-width="0.5"/><polygon points="248.00,504.00 208.00,264.00 208.00,504.00" fill="none" stroke="#b4cfb0" stroke-width="0.5"/><polygon points="208.00,504.00 208.00,264.00 168.00,264.00" fill="none" stroke="#b4cfb0" stroke-width="0.5"/><polygon points="208.00,504.00 168.00,264.00 168.00,504.00" fill="none" stroke="#b4cfb0" stroke-width="0.5"/><polygon points="168.00,504.00 168.00,264.00 128.00,264.00" fill="none" stroke="#b4cfb0" stroke-width="0.5"/><polygon points="168.00,504.00 128.00,264.00 128.00,504.00" fill="none" stroke="#b4cfb0" stroke-width="0.5"/><polygon points="128.00,504.00 128.00,264.00 88.00,264.00" fill="none" stroke="#b4cfb0" stroke-width="0.5"/><polygon points="128.00,504.00 88.00,264.00 88.00,504.00" fill="none" stroke="#b4cfb0" stroke-width="0.5"/><polygon points="248.00,444.00 248.00,324.00 128.00,264.00" fill="none" stroke="#b4cfb0" stroke-width="0.5"/><polygon points="128.00,264.00 8.00,324.00 8.00,444.00" fill="none" stroke="#b4cfb0" stroke-width="0.5"/><polygon points="8.00,444.00 128.00,504.00 248.00,444.00" fill="none" stroke="#b4cfb0" stroke-width="0.5"/><polygon points="128.00,264.00 8.00,444.00 248.00,444.00" fill="none" stroke="#b4cfb0" stroke-width="0.5"/><polygon points="88.00,504.00 88.00,264.00 48.00,264.00" fill="none" stroke="#b4cfb0" stroke-width="0.5"/><polygon points="88.00,504.00 48.00,264.00 48.00,504.00" fill="none" stroke="#b4cfb0" stroke-width="0.5"/><polygon points="48.00,504.00 48.00,264.00 8.00,264.00" fill="none" stroke="#b4cfb0" stroke-width="0.5"/><polygon points="48.00,504.00 8.00,264.00 8.00,504.00" fill="none" stroke="#b4cfb0" stroke-width="0.5"/><polygon points="8.00,324.00 128.00,264.00 248.00,324.00" fill="none" stroke="#b4cfb0" stroke-width="0.5"/><polygon points="248.00,324.00 248.00,444.00 128.00,504.00" fill="none" stroke="#b4cfb0" stroke-width="0.5"/><polygon points="128.00,504.00 8.00,444.00 8.00,324.00" fill="none" stroke="#b4cfb0" stroke-width="0.5"/><polygon points="248.00,324.00 128.00,504.00 8.00,324.00" fill="none" stroke="#b4cfb0" stroke-width="0.5"/><polygon points="248.00,504.00 248.00,264.00 208.00,264.00" fill="none" stroke="#b4cfb0" stroke-width="0.5"/><polygon points="248.00,504.00 208.00,264.00 208.00,504.00" fill="none" stroke="#b4cfb0" stroke-width="0.5"/><polygon points="208.00,504.00 208.00,264.00 168.00,264.00" fill="none" stroke="#b4cfb0" stroke-width="0.5"/><polygon points="208.00,504.00 168.00,264.00 168.00,504.00" fill="none" stroke="#b4cfb0" stroke-width="0.5"/><polygon points="168.00,504.00 168.00,264.00 128.00,264.00" fill="none" stroke="#b4cfb0" stroke-width="0.5"/><polygon points="168.00,504.00 128.00,264.00 128.00,504.00" fill="none" stroke="#b4cfb0" stroke-width="0.5"/><polygon points="128.00,504.00 128.00,264.00 88.00,264.00" fill="none" stroke="#b4cfb0" stroke-width="0.5"/><polygon points="128.00,504.00 88.00,264.00 88.00,504.00" fill="none" stroke="#b4cfb0" stroke-width="0.5"/><polygon points="248.00,444.00 248.00,324.00 128.00,264.00" fill="none" stroke="#b4cfb0" stroke-width="0.5"/><polygon points="128.00,264.00 8.00,324.00 8.00,444.00" fill="none" stroke="#b4cfb0" stroke-width="0.5"/><polygon points="8.00,444.00 128.00,504.00 248.00,444.00" fill="none" stroke="#b4cfb0" stroke-width="0.5"/><polygon points="128.00,264.00 8.00,444.00 248.00,444.00" fill="none" stroke="#b4cfb0" stroke-width="0.5"/><polygon points="88.00,504.00 88.00,264.00 48.00,264.00" fill="none" stroke="#b4cfb0" stroke-width="0.5"/><polygon points="88.00,504.00 48.00,264.00 48.00,504.00" fill="none" stroke="#b4cfb0" stroke-width="0.5"/><polygon points="48.00,504.00 48.00,264.00 8.00,264.00" fill="none" stroke="#b4cfb0" stroke-width="0.5"/><polygon points="48.00,504.00 8.00,264.00 8.00,504.00" fill="none" stroke="#b4cfb0" stroke-width="0.5"/><polygon points="8.00,324.00 128.00,264.00 248.00,324.00" fill="none" stroke="#b4cfb0" stroke-width="0.5"/><polygon points="248.00,324.00 248.00,444.00 128.00,504.00" fill="none" stroke="#b4cfb0" stroke-width="0.5"/><polygon points="128.00,504.00 8.00,444.00 8.00,324.00" fill="none" stroke="#b4cfb0" stroke-width="0.5"/><polygon points="248.00,324.00 128.00,504.00 8.00,324.00" fill="none" stroke="#b4cfb0" stroke-width="0.5"/><polygon points="8.00,248.00 8.00,8.00 248.00,8.00" fill="none" stroke="#b4cfb0" stroke-width="0.5"/><polygon points="8.00,248.00 248.00,8.00 248.00,248.00" fill="none" stroke="#b4cfb0" stroke-width="0.5"/><polygon points="8.00,248.00 8.00,8.00 248.00,8.00" fill="none" stroke="#b4cfb0" stroke-width="0.5"/><polygon points="8.00,248.00 248.00,8.00 248.00,248.00" fill="none" stroke="#b4cfb0" stroke-width="0.5"/><polygon points="248.00,248.00 248.00,8.00 8.00,8.00" fill="none" stroke="#b4cfb0" stroke-width="0.5"/><polygon points="248.00,248.00 8.00,8.00 8.00,248.00" fill="none" stroke="#b4cfb0" stroke-width="0.5"/><polygon points="248.00,248.00 248.00,8.00 8.00,8.00" fill="none" stroke="#b4cfb0" stroke-width="0.5"/><polygon points="248.00,248.00 8.00,8.00 8.00,248.00" fill="none" stroke="#b4cfb0" stroke-width="0.5"/><polygon points="8.00,8.00 248.00,8.00 248.00,248.00" fill="none" stroke="#b4cfb0" stroke-width="0.5"/><polygon points="8.00,8.00 248.00,248.00 8.00,248.00" fill="none" stroke="#b4cfb0" stroke-width="0.5"/><polygon points="248.00,8.00 8.00,8.00 8.00,248.00" fill="none" stroke="#b4cfb0" stroke-width="0.5"/><polygon points="248.00,8.00 8.00,248.00 248.00,248.00" fill="none" stroke="#b4cfb0" stroke-width="0.5"/><polygon points="8.00,248.00 8.00,8.00 248.00,8.00" fill="none" stroke="#b4cfb0" stroke-width="0.5"/><polygon points="8.00,248.00 248.00,8.00 248.00,248.00" fill="none" stroke="#b4cfb0" stroke-width="0.5"/><polygon points="8.00,248.00 8.00,8.00 248.00,8.00" fill="none" stroke="#b4cfb0" stroke-width="0.5"/><polygon points="8.00,248.00 248.00,8.00 248.00,248.00" fill="none" stroke="#b4cfb0" stroke-width="0.5"/><polygon points="248.00,248.00 248.00,8.00 8.00,8.00" fill="none" stroke="#b4cfb0" stroke-width="0.5"/><polygon points="248.00,248.00 8.00,8.00 8.00,248.00" fill="none" stroke="#b4cfb0" stroke-width="0.5"/><polygon points="248.00,248.00 248.00,8.00 8.00,8.00" fill="none" stroke="#b4cfb0" stroke-width="0.5"/><polygon points="248.00,248.00 8.00,8.00 8.00,248.00" fill="none" stroke="#b4cfb0" stroke-width="0.5"/><polygon points="8.00,8.00 248.00,8.00 248.00,248.00" fill="none" stroke="#b4cfb0" stroke-width="0.5"/><polygon points="8.00,8.00 248.00,248.00 8.00,248.00" fill="none" stroke="#b4cfb0" stroke-width="0.5"/><polygon points="248.00,8.00 8.00,8.00 8.00,248.00" fill="none" stroke="#b4cfb0" stroke-width="0.5"/><polygon points="248.00,8.00 8.00,248.00 248.00,248.00" fill="none" stroke="#b4cfb0" stroke-width="0.5"/><polygon points="8.00,248.00 8.00,8.00 248.00,8.00" fill="none" stroke="#b4cfb0" stroke-width="0.5"/><polygon points="8.00,248.00 248.00,8.00 248.00,248.00" fill="none" stroke="#b4cfb0" stroke-width="0.5"/><polygon points="8.00,248.00 8.00,8.00 248.00,8.00" fill="none" stroke="#b4cfb0" stroke-width="0.5"/><polygon points="8.00,248.00 248.00,8.00 248.00,248.00" fill="none" stroke="#b4cfb0" stroke-width="0.5"/><polygon points="248.00,248.00 248.00,8.00 8.00,8.00" fill="none" stroke="#b4cfb0" stroke-width="0.5"/><polygon points="248.00,248.00 8.00,8.00 8.00,248.00" fill="none" stroke="#b4cfb0" stroke-width="0.5"/><polygon points="248.00,248.00 248.00,8.00 8.00,8.00" fill="none" stroke="#b4cfb0" stroke-width="0.5"/><polygon points="248.00,248.00 8.00,8.00 8.00,248.00" fill="none" stroke="#b4cfb0" stroke-width="0.5"/><polygon points="8.00,8.00 248.00,8.00 248.00,248.00" fill="none" stroke="#b4cfb0" stroke-width="0.5"/><polygon points="8.00,8.00 248.00,248.00 8.00,248.00" fill="none" stroke="#b4cfb0" stroke-width="0.5"/><polygon points="248.00,8.00 8.00,8.00 8.00,248.00" fill="none" stroke="#b4cfb0" stroke-width="0.5"/><polygon points="248.00,8.00 8.00,248.00 248.00,248.00" fill="none" stroke="#b4cfb0" stroke-width="0.5"/></svg>