<svg xmlns="http://www.w3.org/2000/svg" viewBox="0 0 512 512"><rect width="512" height="512" fill="#242729"/><polygon points="248.00,504.00 248.00,264.00 228.00,264.00" fill="none" stroke="#b4cfb0" stroke-width="0.5"/><polygon points="248.00,504.00 228.00,264.00 228.00,504.00" fill="none" stroke="#b4cfb0" stroke-width="0.5"/><polygon points="228.00,504.00 228.00,264.00 208.00,264.00" fill="none" stroke="#b4cfb0" stroke-width="0.5"/><polygon points="228.00,504.00 208.00,264.00 208.00,504.00" fill="none" stroke="#b4cfb0" stroke-width="0.5"/><polygon points="208.00,504.00 208.00,264.00 188.00,264.00" fill="none" stroke="#b4cfb0" stroke-width="0.5"/><polygon points="208.00,504.00 188.00,264.00 188.00,504.00" fill="none" stroke="#b4cfb0" stroke-width="0.5"/><polygon points="188.00,504.00 188.00,264.00 168.00,264.00" fill="none" stroke="#b4cfb0" stroke-width="0.5"/><polygon points="188.00,504.00 168.00,264.00 168.00,504.00" fill="none" stroke="#b4cfb0" stroke-width="0.5"/><polygon points="168.00,504.00 168.00,264.00 148.00,264.00" fill="none" stroke="#b4cfb0" stroke-width="0.5"/><polygon points="168.00,504.00 148.00,264.00 148.00,504.00" fill="none" stroke="#b4cfb0" stroke-width="0.5"/><polygon points="148.00,504.00 148.00,264.00 128.00,264.00" fill="none" stroke="#b4cfb0" stroke-width="0.5"/><polygon points="148.00,504.00 128.00,264.00 128.00,504.00" fill="none" stroke="#b4cfb0" stroke-width="0.5"/><polygon points="128.00,504.00 128.00,264.00 108.00,264.00" fill="none" stroke="#b4cfb0" stroke-width="0.5"/><polygon points="128.00,504.00 108.00,264.00 108.00,504.00" fill="none" stroke="#b4cfb0" stroke-width="0.5"/><polygon points="108.00,504.00 108.00,264.00 88.00,264.00" fill="none" stroke="#b4cfb0" stroke-width="0.5"/><polygon points="108.00,504.00 88.00,264.00 88.00,504.00" fill="none" stroke="#b4cfb0" stroke-width="0.5"/><polygon points="88.00,504.00 88.00,264.00 68.00,264.00" fill="none" stroke="#b4cfb0" stroke-width="0.5"/><polygon points="88.00,504.00 68.00,264.00 68.00,504.00" fill="none" stroke="#b4cfb0" stroke-width="0.5"/><polygon points="68.00,504.00 68.00,264.00 48.00,264.00" fill="none" stroke="#b4cfb0" stroke-width="0.5"/><polygon points="68.00,504.00 48.00,264.00 48.00,504.00" fill="none" stroke="#b4cfb0" stroke-width="0.5"/><polygon points="231.92,324.00 188.00,280.08 128.00,264.00" fill="none" stroke="#b4cfb0" stroke-width="0.5"/><polygon points="128.00,264.00 68.00,280.08 24.08,324.00" fill="none" stroke="#b4cfb0" stroke-width="0.5"/><polygon points="24.08,324.00 8.00,384.00 24.08,444.00" fill="none" stroke="#b4cfb0" stroke-width="0.5"/><polygon points="24.08,444.00 68.00,487.92 128.00,504.00" fill="none" stroke="#b4cfb0" stroke-width="0.5"/><polygon points="128.00,504.00 188.00,487.92 231.92,444.00" fill="none" stroke="#b4cfb0" stroke-width="0.5"/><polygon points="231.92,444.00 248.00,384.00 231.92,324.00" fill="none" stroke="#b4cfb0" stroke-width="0.5"/><polygon points="231.92,324.00 128.00,264.00 24.08,324.00" fill="none" stroke="#b4cfb0" stroke-width="0.5"/><polygon points="24.08,324.00 24.08,444.00 128.00,504.00" fill="none" stroke="#b4cfb0" stroke-width="0.5"/><polygon points="128.00,504.00 231.92,444.00 231.92,324.00" fill="none" stroke="#b4cfb0" stroke-width="0.5"/><polygon points="24.08,324.00 128.00,504.00 231.92,324.00" fill="none" stroke="#b4cfb0" stroke-width="0.5"/><polygon points="48.00,504.00 48.00,264.00 28.00,264.00" fill="none" stroke="#b4cfb0" stroke-width="0.5"/><polygon points="48.00,504.00 28.00,264.00 28.00,504.00" fill="none" stroke="#b4cfb0" stroke-width="0.5"/><polygon points="28.00,504.00 28.00,264.00 8.00,264.00" fill="none" stroke="#b4cfb0" stroke-width="0.5"/><polygon points="28.00,504.00 8.00,264.00 8.00,504.00" fill="none" stroke="#b4cfb0" stroke-width="0.5"/><polygon points="68.00,280.08 128.00,264.00 188.00,280.08" fill="none" stroke="#b4cfb0" stroke-width="0.5"/><polygon points="188.00,280.08 231.92,324.00 248.00,384.00" fill="none" stroke="#b4cfb0" stroke-width="0.5"/><polygon points="248.00,384.00 231.92,444.00 188.00,487.92" fill="none" stroke="#b4cfb0" stroke-width="0.5"/><polygon points="188.00,487.92 128.00,504.00 68.00,487.92" fill="none" stroke="#b4cfb0" stroke-width="0.5"/><polygon points="68.00,487.92 24.08,444.00 8.00,384.00" fill="none" stroke="#b4cfb0" stroke-width="0.5"/><polygon points="8.00,384.00 24.08,324.00 68.00,280.08" fill="none" stroke="#b4cfb0" stroke-width="0.5"/><polygon points="68.00,280.08 188.00,280.08 248.00,384.00" fill="none" stroke="#b4cfb0" stroke-width="0.5"/><polygon points="248.00,384.00 188.00,487.92 68.00,487.92" fill="none" stroke="#b4cfb0" stroke-width="0.5"/><polygon points="68.00,487.92 8.00,384.00 68.00,280.08" fill="none" stroke="#b4cfb0" stroke-width="0.5"/><polygon points="248.00,384.00 68.00,487.92 68.00,280.08" fill="none" stroke="#b4cfb0" stroke-width="0.5"/><polygon points="248.00,504.00 248.00,264.00 218.00,264.00" fill="none" stroke="#b4cfb0" stroke-width="0.5"/><polygon points="248.00,504.00 218.00,264.00 218.00,504.00" fill="none" stroke="#b4cfb0" stroke-width="0.5"/><polygon points="218.00,504.00 218.00,264.00 188.00,264.00" fill="none" stroke="#b4cfb0" stroke-width="0.5"/><polygon points="218.00,504.00 188.00,264.00 188.00,504.00" fill="none" stroke="#b4cfb0" stroke-width="0.5"/><polygon points="188.00,504.00 188.00,264.00 158.00,264.00" fill="none" stroke="#b4cfb0" stroke-width="0.5"/><polygon points="188.00,504.00 158.00,264.00 158.00,504.00" fill="none" stroke="#b4cfb0" stroke-width="0.5"/><polygon points="158.00,504.00 158.00,264.00 128.00,264.00" fill="none" stroke="#b4cfb0" stroke-width="0.5"/><polygon points="158.00,504.00 128.00,264.00 128.00,504.00" fill="none" stroke="#b4cfb0" stroke-width="0.5"/><polygon points="128.00,504.00 128.00,264.00 98.00,264.00" fill="none" stroke="#b4cfb0" stroke-width="0.5"/><polygon points="128.00,504.00 98.00,264.00 98.00,504.00" fill="none" stroke="#b4cfb0" stroke-width="0.5"/><polygon points="98.00,504.00 98.00,264.00 68.00,264.00" fill="none" stroke="#b4cfb0" stroke-width="0.5"/><polygon points="98.00,504.00 68.00,264.00 68.00,504.00" fill="none" stroke="#b4cfb0" stroke-width="0.5"/><polygon points="248.00,384.00 212.85,299.15 128.00,264.00" fill="none" stroke="#b4cfb0" stroke-width="0.5"/><polygon points="128.00,264.00 43.15,299.15 8.00,384.00" fill="none" stroke="#b4cfb0" stroke-width="0.5"/><polygon points="8.00,384.00 43.15,468.85 128.00,504.00" fill="none" stroke="#b4cfb0" stroke-width="0.5"/><polygon points="128.00,504.00 212.85,468.85 248.00,384.00" fill="none" stroke="#b4cfb0" stroke-width="0.5"/><polygon points="248.00,384.00 128.00,264.00 8.00,384.00" fill="none" stroke="#b4cfb0" stroke-width="0.5"/><polygon points="8.00,384.00 128.00,504.00 248.00,384.00" fill="none" stroke="#b4cfb0" stroke-width="0.5"/><polygon points="68.00,504.00 68.00,264.00 38.00,264.00" fill="none" stroke="#b4cfb0" stroke-width="0.5"/><polygon points="68.00,504.00 38.00,264.00 38.00,504.00" fill="none" stroke="#b4cfb0" stroke-width="0.5"/><polygon points="38.00,504.00 38.00,264.00 8.00,264.00" fill="none" stroke="#b4cfb0" stroke-width="0.5"/><polygon points="38.00,504.00 8.00,264.00 8.00,504.00" fill="none" stroke="#b4cfb0" stroke-width="0.5"/><polygon points="43.15,299.15 128.00,264.00 212.85,299.15" fill="none" stroke="#b4cfb0" stroke-width="0.5"/><polygon points="212.85,299.15 248.00,384.00 212.85,468.85" fill="none" stroke="#b4cfb0" stroke-width="0.5"/><polygon points="212.85,468.85 128.00,504.00 43.15,468.85" fill="none" stroke="#b4cfb0" stroke-width="0.5"/><polygon points="43.15,468.85 8.00,384.00 43.15,299.15" fill="none" stroke="#b4cfb0" stroke-width="0.5"/><polygon points="43.15,299.15 212.85,299.15 212.85,468.85" fill="none" stroke="#b4cfb0" stroke-width="0.5"/><polygon points="212.85,468.85 43.15,468.85 43.15,299.15" fill="none" stroke="#b4cfb0" stroke-width="0.5"/><polygon points="248.00,248.00 248.00,8.00 228.00,8.00" fill="none" stroke="#b4cfb0" stroke-width="0.5"/><polygon points="248.00,248.00 228.00,8.00 228.00,248.00" fill="none" stroke="#b4cfb0" stroke-width="0.5"/><polygon points="228.00,248.00 228.00,8.00 208.00,8.00" fill="none" stroke="#b4cfb0" stroke-width="0.5"/><polygon points="228.00,248.00 208.00,8.00 208.00,248.00" fill="none" stroke="#b4cfb0" stroke-width="0.5"/><polygon points="208.00,248.00 208.00,8.00 188.00,8.00" fill="none" stroke="#b4cfb0" stroke-width="0.5"/><polygon points="208.00,248.00 188.00,8.00 188.00,248.00" fill="none" stroke="#b4cfb0" stroke-width="0.5"/><polygon points="188.00,248.00 188.00,8.00 168.00,8.00" fill="none" stroke="#b4cfb0" stroke-width="0.5"/><polygon points="188.00,248.00 168.00,8.00 168.00,248.00" fill="none" stroke="#b4cfb0" stroke-width="0.5"/><polygon points="168.00,248.00 168.00,8.00 148.00,8.00" fill="none" stroke="#b4cfb0" stroke-width="0.5"/><polygon points="168.00,248.00 148.00,8.00 148.00,248.00" fill="none" stroke="#b4cfb0" stroke-width="0.5"/><polygon points="148.00,248.00 148.00,8.00 128.00,8.00" fill="none" stroke="#b4cfb0" stroke-width="0.5"/><polygon points="148.00,248.00 128.00,8.00 128.00,248.00" fill="none" stroke="#b4cfb0" stroke-width="0.5"/><polygon points="128.00,248.00 128.00,8.00 108.00,8.00" fill="none" stroke="#b4cfb0" stroke-width="0.5"/><polygon points="128.00,248.00 108.00,8.00 108.00,248.00" fill="none" stroke="#b4cfb0" stroke-width="0.5"/><polygon points="108.00,248.00 108.00,8.00 88.00,8.00" fill="none" stroke="#b4cfb0" stroke-width="0.5"/><polygon points="108.00,248.00 88.00,8.00 88.00,248.00" fill="none" stroke="#b4cfb0" stroke-width="0.5"/><polygon points="88.00,248.00 88.00,8.00 68.00,8.00" fill="none" stroke="#b4cfb0" stroke-width="0.5"/><polygon points="88.00,248.00 68.00,8.00 68.00,248.00" fill="none" stroke="#b4cfb0" stroke-width="0.5"/><polygon points="68.00,248.00 68.00,8.00 48.00,8.00" fill="none" stroke="#b4cfb0" stroke-width="0.5"/><polygon points="68.00,248.00 48.00,8.00 48.00,248.00" fill="none" stroke="#b4cfb0" stroke-width="0.5"/><polygon points="186.74,94.09 161.91,69.26 128.00,60.17" fill="none" stroke="#b4cfb0" stroke-width="0.5"/><polygon points="128.00,60.17 94.09,69.26 69.26,94.09" fill="none" stroke="#b4cfb0" stroke-width="0.5"/><polygon points="69.26,94.09 60.17,128.00 69.26,161.91" fill="none" stroke="#b4cfb0" stroke-width="0.5"/><polygon points="69.26,161.91 94.09,186.74 128.00,195.83" fill="none" stroke="#b4cfb0" stroke-width="0.5"/><polygon points="128.00,195.83 161.91,186.74 186.74,161.91" fill="none" stroke="#b4cfb0" stroke-width="0.5"/><polygon points="186.74,161.91 195.83,128.00 186.74,94.09" fill="none" stroke="#b4cfb0" stroke-width="0.5"/><polygon points="186.74,94.09 128.00,60.17 69.26,94.09" fill="none" stroke="#b4cfb0" stroke-width="0.5"/><polygon points="69.26,94.09 69.26,161.91 128.00,195.83" fill="none" stroke="#b4cfb0" stroke-width="0.5"/><polygon points="128.00,195.83 186.74,161.91 186.74,94.09" fill="none" stroke="#b4cfb0" stroke-width="0.5"/><polygon points="69.26,94.09 128.00,195.83 186.74,94.09" fill="none" stroke="#b4cfb0" stroke-width="0.5"/><polygon points="48.00,248.00 48.00,8.00 28.00,8.00" fill="none" stroke="#b4cfb0" stroke-width="0.5"/><polygon points="48.00,248.00 28.00,8.00 28.00,248.00" fill="none" stroke="#b4cfb0" stroke-width="0.5"/><polygon points="28.00,248.00 28.00,8.00 8.00,8.00" fill="none" stroke="#b4cfb0" stroke-width="0.5"/><polygon points="28.00,248.00 8.00,8.00 8.00,248.00" fill="none" stroke="#b4cfb0" stroke-width="0.5"/><polygon points="68.00,24.08 128.00,8.00 188.00,24.08" fill="none" stroke="#b4cfb0" stroke-width="0.5"/><polygon points="188.00,24.08 231.92,68.00 248.00,128.00" fill="none" stroke="#b4cfb0" stroke-width="0.5"/><polygon points="248.00,128.00 231.92,188.00 188.00,231.92" fill="none" stroke="#b4cfb0" stroke-width="0.5"/><polygon points="188.00,231.92 128.00,248.00 68.00,231.92" fill="none" stroke="#b4cfb0" stroke-width="0.5"/><polygon points="68.00,231.92 24.08,188.00 8.00,128.00" fill="none" stroke="#b4cfb0" stroke-width="0.5"/><polygon points="8.00,128.00 24.08,68.00 68.00,24.08" fill="none" stroke="#b4cfb0" stroke-width="0.5"/><polygon points="68.00,24.08 188.00,24.08 248.00,128.00" fill="none" stroke="#b4cfb0" stroke-width="0.5"/><polygon points="248.00,128.00 188.00,231.92 68.00,231.92" fill="none" stroke="#b4cfb0" stroke-width="0.5"/><polygon points="68.00,231.92 8.00,128.00 68.00,24.08" fill="none" stroke="#b4cfb0" stroke-width="0.5"/><polygon points="248.00,128.00 68.00,231.92 68.00,24.08" fill="none" stroke="#b4cfb0" stroke-width="0.5"/><polygon points="504.00,248.00 504.00,8.00 484.00,8.00" fill="none" stroke="#b4cfb0" stroke-width="0.5"/><polygon points="504.00,248.00 484.00,8.00 484.00,248.00" fill="none" stroke="#b4cfb0" stroke-width="0.5"/><polygon points="484.00,248.00 484.00,8.00 464.00,8.00" fill="none" stroke="#b4cfb0" stroke-width="0.5"/><polygon points="484.00,248.00 464.00,8.00 464.00,248.00" fill="none" stroke="#b4cfb0" stroke-width="0.5"/><polygon points="464.00,248.00 464.00,8.00 444.00,8.00" fill="none" stroke="#b4cfb0" stroke-width="0.5"/><polygon points="464.00,248.00 444.00,8.00 444.00,248.00" fill="none" stroke="#b4cfb0" stroke-width="0.5"/><polygon points="444.00,248.00 444.00,8.00 424.00,8.00" fill="none" stroke="#b4cfb0" stroke-width="0.5"/><polygon points="444.00,248.00 424.00,8.00 424.00,248.00" fill="none" stroke="#b4cfb0" stroke-width="0.5"/><polygon points="424.00,248.00 424.00,8.00 404.00,8.00" fill="none" stroke="#b4cfb0" stroke-width="0.5"/><polygon points="424.00,248.00 404.00,8.00 404.00,248.00" fill="none" stroke="#b4cfb0" stroke-width="0.5"/><polygon points="404.00,248.00 404.00,8.00 384.00,8.00" fill="none" stroke="#b4cfb0" stroke-width="0.5"/><polygon points="404.00,248.00 384.00,8.00 384.00,248.00" fill="none" stroke="#b4cfb0" stroke-width="0.5"/><polygon points="384.00,248.00 384.00,8.00 364.00,8.00" fill="none" stroke="#b4cfb0" stroke-width="0.5"/><polygon points="384.00,248.00 364.00,8.00 364.00,248.00" fill="none" stroke="#b4cfb0" stroke-width="0.5"/><polygon points="364.00,248.00 364.00,8.00 344.00,8.00" fill="none" stroke="#b4cfb0" stroke-width="0.5"/><polygon points="364.00,248.00 344.00,8.00 344.00,248.00" fill="none" stroke="#b4cfb0" stroke-width="0.5"/><polygon points="344.00,248.00 344.00,8.00 324.00,8.00" fill="none" stroke="#b4cfb0" stroke-width="0.5"/><polygon points="344.00,248.00 324.00,8.00 324.00,248.00" fill="none" stroke="#b4cfb0" stroke-width="0.5"/><polygon points="324.00,248.00 324.00,8.00 304.00,8.00" fill="none" stroke="#b4cfb0" stroke-width="0.5"/><polygon points="324.00,248.00 304.00,8.00 304.00,248.00" fill="none" stroke="#b4cfb0" stroke-width="0.5"/><polygon points="487.92,68.00 444.00,24.08 384.00,8.00" fill="none" stroke="#b4cfb0" stroke-width="0.5"/><polygon points="384.00,8.00 324.00,24.08 280.08,68.00" fill="none" stroke="#b4cfb0" stroke-width="0.5"/><polygon points="280.08,68.00 264.00,128.00 280.08,188.00" fill="none" stroke="#b4cfb0" stroke-width="0.5"/><polygon points="280.08,188.00 324.00,231.92 384.00,248.00" fill="none" stroke="#b4cfb0" stroke-width="0.5"/><polygon points="384.00,248.00 444.00,231.92 487.92,188.00" fill="none" stroke="#b4cfb0" stroke-width="0.5"/><polygon points="487.92,188.00 504.00,128.00 487.92,68.00" fill="none" stroke="#b4cfb0" stroke-width="0.5"/><polygon points="487.92,68.00 384.00,8.00 280.08,68.00" fill="none" stroke="#b4cfb0" stroke-width="0.5"/><polygon points="280.08,68.00 280.08,188.00 384.00,248.00" fill="none" stroke="#b4cfb0" stroke-width="0.5"/><polygon points="384.00,248.00 487.92,188.00 487.92,68.00" fill="none" stroke="#b4cfb0" stroke-width="0.5"/><polygon points="280.08,68.00 384.00,248.00 487.92,68.00" fill="none" stroke="#b4cfb0" stroke-width="0.5"/><polygon points="304.00,248.00 304.00,8.00 284.00,8.00" fill="none" stroke="#b4cfb0" stroke-width="0.5"/><polygon points="304.00,248.00 284.00,8.00 284.00,248.00" fill="none" stroke="#b4cfb0" stroke-width="0.5"/><polygon points="284.00,248.00 284.00,8.00 264.00,8.00" fill="none" stroke="#b4cfb0" stroke-width="0.5"/><polygon points="284.00,248.00 264.00,8.00 264.00,248.00" fill="none" stroke="#b4cfb0" stroke-width="0.5"/><polygon points="324.00,24.08 384.00,8.00 444.00,24.08" fill="none" stroke="#b4cfb0" stroke-width="0.5"/><polygon points="444.00,24.08 487.92,68.00 504.00,128.00" fill="none" stroke="#b4cfb0" stroke-width="0.5"/><polygon points="504.00,128.00 487.92,188.00 444.00,231.92" fill="none" stroke="#b4cfb0" stroke-width="0.5"/><polygon points="444.00,231.92 384.00,248.00 324.00,231.92" fill="none" stroke="#b4cfb0" stroke-width="0.5"/><polygon points="324.00,231.92 280.08,188.00 264.00,128.00" fill="none" stroke="#b4cfb0" stroke-width="0.5"/><polygon points="264.00,128.00 280.08,68.00 324.00,24.08" fill="none" stroke="#b4cfb0" stroke-width="0.5"/><polygon points="324.00,24.08 444.00,24.08 504.00,128.00" fill="none" stroke="#b4cfb0" stroke-width="0.5"/><polygon points="504.00,128.00 444.00,231.92 324.00,231.92" fill="none" stroke="#b4cfb0" stroke-width="0.5"/><polygon points="324.00,231.92 264.00,128.00 324.00,24.08" fill="none" stroke="#b4cfb0" stroke-width="0.5"/><polygon points="504.00,128.00 324.00,231.92 324.00,24.08" fill="none" stroke="#b4cfb0" stroke-width="0.5"/></svg>