# Triangulated UV-mapped street prop; meters; Z-up
mtllib service_workshop.mtl
o service_workshop
v -3.0000000 -7.0999999 0.0000000
v -3.0000000 -7.0999999 6.0000000
v -3.0000000 7.0999999 0.0000000
v -3.0000000 7.0999999 6.0000000
v -2.7600002 -7.0999999 0.0000000
v -2.7600002 -7.0999999 6.0000000
v -2.7600002 7.0999999 0.0000000
v -2.7600002 7.0999999 6.0000000
v 2.7600002 -7.0999999 0.0000000
v 2.7600002 -7.0999999 6.0000000
v 2.7600002 7.0999999 0.0000000
v 2.7600002 7.0999999 6.0000000
v 3.0000000 -7.0999999 0.0000000
v 3.0000000 -7.0999999 6.0000000
v 3.0000000 7.0999999 0.0000000
v 3.0000000 7.0999999 6.0000000
v -2.7600000 6.8600001 0.0000000
v -2.7600000 6.8600001 6.0000000
v -2.7600000 7.0999999 0.0000000
v -2.7600000 7.0999999 6.0000000
v 2.7600002 6.8600001 0.0000000
v 2.7600002 6.8600001 6.0000000
v 2.7600002 7.0999999 0.0000000
v 2.7600002 7.0999999 6.0000000
v -3.0000000 -7.0999999 0.0000000
v -3.0000000 -7.0999999 6.0000000
v -3.0000000 -6.8600001 0.0000000
v -3.0000000 -6.8600001 6.0000000
v -1.5000000 -7.0999999 0.0000000
v -1.5000000 -7.0999999 6.0000000
v -1.5000000 -6.8600001 0.0000000
v -1.5000000 -6.8600001 6.0000000
v 1.5000000 -7.0999999 0.0000000
v 1.5000000 -7.0999999 6.0000000
v 1.5000000 -6.8600001 0.0000000
v 1.5000000 -6.8600001 6.0000000
v 3.0000000 -7.0999999 0.0000000
v 3.0000000 -7.0999999 6.0000000
v 3.0000000 -6.8600001 0.0000000
v 3.0000000 -6.8600001 6.0000000
v -1.5000000 -7.0999999 3.0000000
v -1.5000000 -7.0999999 6.0000000
v -1.5000000 -6.8600001 3.0000000
v -1.5000000 -6.8600001 6.0000000
v 1.5000000 -7.0999999 3.0000000
v 1.5000000 -7.0999999 6.0000000
v 1.5000000 -6.8600001 3.0000000
v 1.5000000 -6.8600001 6.0000000
v -3.0000000 -7.1599998 0.0000000
v -3.0000000 -7.1599998 0.3600001
v -3.0000000 -7.0400000 0.0000000
v -3.0000000 -7.0400000 0.3600001
v -1.5000000 -7.1599998 0.0000000
v -1.5000000 -7.1599998 0.3600001
v -1.5000000 -7.0400000 0.0000000
v -1.5000000 -7.0400000 0.3600001
v 1.5000000 -7.1599998 0.0000000
v 1.5000000 -7.1599998 0.3600001
v 1.5000000 -7.0400000 0.0000000
v 1.5000000 -7.0400000 0.3600001
v 3.0000000 -7.1599998 0.0000000
v 3.0000000 -7.1599998 0.3600001
v 3.0000000 -7.0400000 0.0000000
v 3.0000000 -7.0400000 0.3600001
v -3.1199999 -7.2199998 6.0000000
v -3.1199999 -7.2199998 6.1599998
v -3.1199999 7.2199998 6.0000000
v -3.1199999 7.2199998 6.1599998
v 3.1199999 -7.2199998 6.0000000
v 3.1199999 -7.2199998 6.1599998
v 3.1199999 7.2199998 6.0000000
v 3.1199999 7.2199998 6.1599998
v -3.0799999 -7.1799998 5.7400002
v -3.0799999 -7.1799998 5.9000001
v -3.0799999 7.1799998 5.7400002
v -3.0799999 7.1799998 5.9000001
v 3.0799999 -7.1799998 5.7400002
v 3.0799999 -7.1799998 5.9000001
v 3.0799999 7.1799998 5.7400002
v 3.0799999 7.1799998 5.9000001
v -2.4900000 -7.1424999 2.7200000
v -2.4900000 -7.1424999 4.2799997
v -2.4900000 -7.1075001 2.7200000
v -2.4900000 -7.1075001 4.2799997
v -1.5100000 -7.1424999 2.7200000
v -1.5100000 -7.1424999 4.2799997
v -1.5100000 -7.1075001 2.7200000
v -1.5100000 -7.1075001 4.2799997
v -2.4200001 -7.1624999 2.7900000
v -2.4200001 -7.1624999 4.2100000
v -2.4200001 -7.1375003 2.7900000
v -2.4200001 -7.1375003 4.2100000
v -1.5800000 -7.1624999 2.7900000
v -1.5800000 -7.1624999 4.2100000
v -1.5800000 -7.1375003 2.7900000
v -1.5800000 -7.1375003 4.2100000
v -2.5550001 -7.1999998 2.6125002
v -2.5550001 -7.1999998 2.6875000
v -2.5550001 -7.0500002 2.6125002
v -2.5550001 -7.0500002 2.6875000
v -1.4449999 -7.1999998 2.6125002
v -1.4449999 -7.1999998 2.6875000
v -1.4449999 -7.0500002 2.6125002
v -1.4449999 -7.0500002 2.6875000
v -0.4900000 -7.1424999 2.7200000
v -0.4900000 -7.1424999 4.2799997
v -0.4900000 -7.1075001 2.7200000
v -0.4900000 -7.1075001 4.2799997
v 0.4900000 -7.1424999 2.7200000
v 0.4900000 -7.1424999 4.2799997
v 0.4900000 -7.1075001 2.7200000
v 0.4900000 -7.1075001 4.2799997
v -0.4200001 -7.1624999 2.7900000
v -0.4200001 -7.1624999 4.2100000
v -0.4200001 -7.1375003 2.7900000
v -0.4200001 -7.1375003 4.2100000
v 0.4200001 -7.1624999 2.7900000
v 0.4200001 -7.1624999 4.2100000
v 0.4200001 -7.1375003 2.7900000
v 0.4200001 -7.1375003 4.2100000
v -0.5550001 -7.1999998 2.6125002
v -0.5550001 -7.1999998 2.6875000
v -0.5550001 -7.0500002 2.6125002
v -0.5550001 -7.0500002 2.6875000
v 0.5550001 -7.1999998 2.6125002
v 0.5550001 -7.1999998 2.6875000
v 0.5550001 -7.0500002 2.6125002
v 0.5550001 -7.0500002 2.6875000
v 1.5100002 -7.1424999 2.7200000
v 1.5100002 -7.1424999 4.2799997
v 1.5100002 -7.1075001 2.7200000
v 1.5100002 -7.1075001 4.2799997
v 2.4899998 -7.1424999 2.7200000
v 2.4899998 -7.1424999 4.2799997
v 2.4899998 -7.1075001 2.7200000
v 2.4899998 -7.1075001 4.2799997
v 1.5799999 -7.1624999 2.7900000
v 1.5799999 -7.1624999 4.2100000
v 1.5799999 -7.1375003 2.7900000
v 1.5799999 -7.1375003 4.2100000
v 2.4200001 -7.1624999 2.7900000
v 2.4200001 -7.1624999 4.2100000
v 2.4200001 -7.1375003 2.7900000
v 2.4200001 -7.1375003 4.2100000
v 1.4450002 -7.1999998 2.6125002
v 1.4450002 -7.1999998 2.6875000
v 1.4450002 -7.0500002 2.6125002
v 1.4450002 -7.0500002 2.6875000
v 2.5549998 -7.1999998 2.6125002
v 2.5549998 -7.1999998 2.6875000
v 2.5549998 -7.0500002 2.6125002
v 2.5549998 -7.0500002 2.6875000
v -2.4900000 7.1075001 2.7200000
v -2.4900000 7.1075001 4.2799997
v -2.4900000 7.1424999 2.7200000
v -2.4900000 7.1424999 4.2799997
v -1.5100000 7.1075001 2.7200000
v -1.5100000 7.1075001 4.2799997
v -1.5100000 7.1424999 2.7200000
v -1.5100000 7.1424999 4.2799997
v -2.4200001 7.1375003 2.7900000
v -2.4200001 7.1375003 4.2100000
v -2.4200001 7.1624999 2.7900000
v -2.4200001 7.1624999 4.2100000
v -1.5800000 7.1375003 2.7900000
v -1.5800000 7.1375003 4.2100000
v -1.5800000 7.1624999 2.7900000
v -1.5800000 7.1624999 4.2100000
v -2.5550001 7.0500002 2.6125002
v -2.5550001 7.0500002 2.6875000
v -2.5550001 7.1999998 2.6125002
v -2.5550001 7.1999998 2.6875000
v -1.4449999 7.0500002 2.6125002
v -1.4449999 7.0500002 2.6875000
v -1.4449999 7.1999998 2.6125002
v -1.4449999 7.1999998 2.6875000
v -0.4900000 7.1075001 2.7200000
v -0.4900000 7.1075001 4.2799997
v -0.4900000 7.1424999 2.7200000
v -0.4900000 7.1424999 4.2799997
v 0.4900000 7.1075001 2.7200000
v 0.4900000 7.1075001 4.2799997
v 0.4900000 7.1424999 2.7200000
v 0.4900000 7.1424999 4.2799997
v -0.4200001 7.1375003 2.7900000
v -0.4200001 7.1375003 4.2100000
v -0.4200001 7.1624999 2.7900000
v -0.4200001 7.1624999 4.2100000
v 0.4200001 7.1375003 2.7900000
v 0.4200001 7.1375003 4.2100000
v 0.4200001 7.1624999 2.7900000
v 0.4200001 7.1624999 4.2100000
v -0.5550001 7.0500002 2.6125002
v -0.5550001 7.0500002 2.6875000
v -0.5550001 7.1999998 2.6125002
v -0.5550001 7.1999998 2.6875000
v 0.5550001 7.0500002 2.6125002
v 0.5550001 7.0500002 2.6875000
v 0.5550001 7.1999998 2.6125002
v 0.5550001 7.1999998 2.6875000
v 1.5100002 7.1075001 2.7200000
v 1.5100002 7.1075001 4.2799997
v 1.5100002 7.1424999 2.7200000
v 1.5100002 7.1424999 4.2799997
v 2.4899998 7.1075001 2.7200000
v 2.4899998 7.1075001 4.2799997
v 2.4899998 7.1424999 2.7200000
v 2.4899998 7.1424999 4.2799997
v 1.5799999 7.1375003 2.7900000
v 1.5799999 7.1375003 4.2100000
v 1.5799999 7.1624999 2.7900000
v 1.5799999 7.1624999 4.2100000
v 2.4200001 7.1375003 2.7900000
v 2.4200001 7.1375003 4.2100000
v 2.4200001 7.1624999 2.7900000
v 2.4200001 7.1624999 4.2100000
v 1.4450002 7.0500002 2.6125002
v 1.4450002 7.0500002 2.6875000
v 1.4450002 7.1999998 2.6125002
v 1.4450002 7.1999998 2.6875000
v 2.5549998 7.0500002 2.6125002
v 2.5549998 7.0500002 2.6875000
v 2.5549998 7.1999998 2.6125002
v 2.5549998 7.1999998 2.6875000
v -3.0425000 -4.4660001 2.7200000
v -3.0425000 -4.4660001 4.2799997
v -3.0425000 -3.4860001 2.7200000
v -3.0425000 -3.4860001 4.2799997
v -3.0075002 -4.4660001 2.7200000
v -3.0075002 -4.4660001 4.2799997
v -3.0075002 -3.4860001 2.7200000
v -3.0075002 -3.4860001 4.2799997
v -3.0625000 -4.3959999 2.7900000
v -3.0625000 -4.3959999 4.2100000
v -3.0625000 -3.5560000 2.7900000
v -3.0625000 -3.5560000 4.2100000
v -3.0374999 -4.3959999 2.7900000
v -3.0374999 -4.3959999 4.2100000
v -3.0374999 -3.5560000 2.7900000
v -3.0374999 -3.5560000 4.2100000
v -3.1000001 -4.5310001 2.6125002
v -3.1000001 -4.5310001 2.6875000
v -3.1000001 -3.4210000 2.6125002
v -3.1000001 -3.4210000 2.6875000
v -2.9500000 -4.5310001 2.6125002
v -2.9500000 -4.5310001 2.6875000
v -2.9500000 -3.4210000 2.6125002
v -2.9500000 -3.4210000 2.6875000
v -3.0425000 -0.4900000 2.7200000
v -3.0425000 -0.4900000 4.2799997
v -3.0425000 0.4900000 2.7200000
v -3.0425000 0.4900000 4.2799997
v -3.0075002 -0.4900000 2.7200000
v -3.0075002 -0.4900000 4.2799997
v -3.0075002 0.4900000 2.7200000
v -3.0075002 0.4900000 4.2799997
v -3.0625000 -0.4200000 2.7900000
v -3.0625000 -0.4200000 4.2100000
v -3.0625000 0.4200000 2.7900000
v -3.0625000 0.4200000 4.2100000
v -3.0374999 -0.4200000 2.7900000
v -3.0374999 -0.4200000 4.2100000
v -3.0374999 0.4200000 2.7900000
v -3.0374999 0.4200000 4.2100000
v -3.1000001 -0.5550000 2.6125002
v -3.1000001 -0.5550000 2.6875000
v -3.1000001 0.5550000 2.6125002
v -3.1000001 0.5550000 2.6875000
v -2.9500000 -0.5550000 2.6125002
v -2.9500000 -0.5550000 2.6875000
v -2.9500000 0.5550000 2.6125002
v -2.9500000 0.5550000 2.6875000
v -3.0425000 3.4860001 2.7200000
v -3.0425000 3.4860001 4.2799997
v -3.0425000 4.4660001 2.7200000
v -3.0425000 4.4660001 4.2799997
v -3.0075002 3.4860001 2.7200000
v -3.0075002 3.4860001 4.2799997
v -3.0075002 4.4660001 2.7200000
v -3.0075002 4.4660001 4.2799997
v -3.0625000 3.5560000 2.7900000
v -3.0625000 3.5560000 4.2100000
v -3.0625000 4.3959999 2.7900000
v -3.0625000 4.3959999 4.2100000
v -3.0374999 3.5560000 2.7900000
v -3.0374999 3.5560000 4.2100000
v -3.0374999 4.3959999 2.7900000
v -3.0374999 4.3959999 4.2100000
v -3.1000001 3.4210000 2.6125002
v -3.1000001 3.4210000 2.6875000
v -3.1000001 4.5310001 2.6125002
v -3.1000001 4.5310001 2.6875000
v -2.9500000 3.4210000 2.6125002
v -2.9500000 3.4210000 2.6875000
v -2.9500000 4.5310001 2.6125002
v -2.9500000 4.5310001 2.6875000
v 3.0075002 -4.4660001 2.7200000
v 3.0075002 -4.4660001 4.2799997
v 3.0075002 -3.4860001 2.7200000
v 3.0075002 -3.4860001 4.2799997
v 3.0425000 -4.4660001 2.7200000
v 3.0425000 -4.4660001 4.2799997
v 3.0425000 -3.4860001 2.7200000
v 3.0425000 -3.4860001 4.2799997
v 3.0375004 -4.3959999 2.7900000
v 3.0375004 -4.3959999 4.2100000
v 3.0375004 -3.5560000 2.7900000
v 3.0375004 -3.5560000 4.2100000
v 3.0625000 -4.3959999 2.7900000
v 3.0625000 -4.3959999 4.2100000
v 3.0625000 -3.5560000 2.7900000
v 3.0625000 -3.5560000 4.2100000
v 2.9500003 -4.5310001 2.6125002
v 2.9500003 -4.5310001 2.6875000
v 2.9500003 -3.4210000 2.6125002
v 2.9500003 -3.4210000 2.6875000
v 3.0999999 -4.5310001 2.6125002
v 3.0999999 -4.5310001 2.6875000
v 3.0999999 -3.4210000 2.6125002
v 3.0999999 -3.4210000 2.6875000
v 3.0075002 -0.4900000 2.7200000
v 3.0075002 -0.4900000 4.2799997
v 3.0075002 0.4900000 2.7200000
v 3.0075002 0.4900000 4.2799997
v 3.0425000 -0.4900000 2.7200000
v 3.0425000 -0.4900000 4.2799997
v 3.0425000 0.4900000 2.7200000
v 3.0425000 0.4900000 4.2799997
v 3.0375004 -0.4200000 2.7900000
v 3.0375004 -0.4200000 4.2100000
v 3.0375004 0.4200000 2.7900000
v 3.0375004 0.4200000 4.2100000
v 3.0625000 -0.4200000 2.7900000
v 3.0625000 -0.4200000 4.2100000
v 3.0625000 0.4200000 2.7900000
v 3.0625000 0.4200000 4.2100000
v 2.9500003 -0.5550000 2.6125002
v 2.9500003 -0.5550000 2.6875000
v 2.9500003 0.5550000 2.6125002
v 2.9500003 0.5550000 2.6875000
v 3.0999999 -0.5550000 2.6125002
v 3.0999999 -0.5550000 2.6875000
v 3.0999999 0.5550000 2.6125002
v 3.0999999 0.5550000 2.6875000
v 3.0075002 3.4860001 2.7200000
v 3.0075002 3.4860001 4.2799997
v 3.0075002 4.4660001 2.7200000
v 3.0075002 4.4660001 4.2799997
v 3.0425000 3.4860001 2.7200000
v 3.0425000 3.4860001 4.2799997
v 3.0425000 4.4660001 2.7200000
v 3.0425000 4.4660001 4.2799997
v 3.0375004 3.5560000 2.7900000
v 3.0375004 3.5560000 4.2100000
v 3.0375004 4.3959999 2.7900000
v 3.0375004 4.3959999 4.2100000
v 3.0625000 3.5560000 2.7900000
v 3.0625000 3.5560000 4.2100000
v 3.0625000 4.3959999 2.7900000
v 3.0625000 4.3959999 4.2100000
v 2.9500003 3.4210000 2.6125002
v 2.9500003 3.4210000 2.6875000
v 2.9500003 4.5310001 2.6125002
v 2.9500003 4.5310001 2.6875000
v 3.0999999 3.4210000 2.6125002
v 3.0999999 3.4210000 2.6875000
v 3.0999999 4.5310001 2.6125002
v 3.0999999 4.5310001 2.6875000
v -2.8499999 -7.1900001 0.1800001
v -2.8499999 -7.1900001 1.6800001
v -2.8499999 -7.1100001 0.1800001
v -2.8499999 -7.1100001 1.6800001
v -1.6500000 -7.1900001 0.1800001
v -1.6500000 -7.1900001 1.6800001
v -1.6500000 -7.1100001 0.1800001
v -1.6500000 -7.1100001 1.6800001
v 1.6500001 -7.1900001 0.1800001
v 1.6500001 -7.1900001 1.6800001
v 1.6500001 -7.1100001 0.1800001
v 1.6500001 -7.1100001 1.6800001
v 2.8499999 -7.1900001 0.1800001
v 2.8499999 -7.1900001 1.6800001
v 2.8499999 -7.1100001 0.1800001
v 2.8499999 -7.1100001 1.6800001
vt 0.5078125 0.5078125
vt 0.5078125 0.9921875
vt 0.9921875 0.9921875
vt 0.9921875 0.5078125
vt 0.5078125 0.5078125
vt 0.5078125 0.9921875
vt 0.9921875 0.9921875
vt 0.9921875 0.5078125
vt 0.9921875 0.5078125
vt 0.9921875 0.9921875
vt 0.5078125 0.9921875
vt 0.5078125 0.5078125
vt 0.9921875 0.5078125
vt 0.9921875 0.9921875
vt 0.5078125 0.9921875
vt 0.5078125 0.5078125
vt 0.5078125 0.9921875
vt 0.9921875 0.9921875
vt 0.9921875 0.5078125
vt 0.5078125 0.5078125
vt 0.9921875 0.9921875
vt 0.5078125 0.9921875
vt 0.5078125 0.5078125
vt 0.9921875 0.5078125
vt 0.5078125 0.5078125
vt 0.5078125 0.9921875
vt 0.9921875 0.9921875
vt 0.9921875 0.5078125
vt 0.5078125 0.5078125
vt 0.5078125 0.9921875
vt 0.9921875 0.9921875
vt 0.9921875 0.5078125
vt 0.9921875 0.5078125
vt 0.9921875 0.9921875
vt 0.5078125 0.9921875
vt 0.5078125 0.5078125
vt 0.9921875 0.5078125
vt 0.9921875 0.9921875
vt 0.5078125 0.9921875
vt 0.5078125 0.5078125
vt 0.5078125 0.9921875
vt 0.9921875 0.9921875
vt 0.9921875 0.5078125
vt 0.5078125 0.5078125
vt 0.9921875 0.9921875
vt 0.5078125 0.9921875
vt 0.5078125 0.5078125
vt 0.9921875 0.5078125
vt 0.5078125 0.5078125
vt 0.5078125 0.9921875
vt 0.9921875 0.9921875
vt 0.9921875 0.5078125
vt 0.5078125 0.5078125
vt 0.5078125 0.9921875
vt 0.9921875 0.9921875
vt 0.9921875 0.5078125
vt 0.9921875 0.5078125
vt 0.9921875 0.9921875
vt 0.5078125 0.9921875
vt 0.5078125 0.5078125
vt 0.9921875 0.5078125
vt 0.9921875 0.9921875
vt 0.5078125 0.9921875
vt 0.5078125 0.5078125
vt 0.5078125 0.9921875
vt 0.9921875 0.9921875
vt 0.9921875 0.5078125
vt 0.5078125 0.5078125
vt 0.9921875 0.9921875
vt 0.5078125 0.9921875
vt 0.5078125 0.5078125
vt 0.9921875 0.5078125
vt 0.5078125 0.5078125
vt 0.5078125 0.9921875
vt 0.9921875 0.9921875
vt 0.9921875 0.5078125
vt 0.5078125 0.5078125
vt 0.5078125 0.9921875
vt 0.9921875 0.9921875
vt 0.9921875 0.5078125
vt 0.9921875 0.5078125
vt 0.9921875 0.9921875
vt 0.5078125 0.9921875
vt 0.5078125 0.5078125
vt 0.9921875 0.5078125
vt 0.9921875 0.9921875
vt 0.5078125 0.9921875
vt 0.5078125 0.5078125
vt 0.5078125 0.9921875
vt 0.9921875 0.9921875
vt 0.9921875 0.5078125
vt 0.5078125 0.5078125
vt 0.9921875 0.9921875
vt 0.5078125 0.9921875
vt 0.5078125 0.5078125
vt 0.9921875 0.5078125
vt 0.5078125 0.5078125
vt 0.5078125 0.9921875
vt 0.9921875 0.9921875
vt 0.9921875 0.5078125
vt 0.5078125 0.5078125
vt 0.5078125 0.9921875
vt 0.9921875 0.9921875
vt 0.9921875 0.5078125
vt 0.9921875 0.5078125
vt 0.9921875 0.9921875
vt 0.5078125 0.9921875
vt 0.5078125 0.5078125
vt 0.9921875 0.5078125
vt 0.9921875 0.9921875
vt 0.5078125 0.9921875
vt 0.5078125 0.5078125
vt 0.5078125 0.9921875
vt 0.9921875 0.9921875
vt 0.9921875 0.5078125
vt 0.5078125 0.5078125
vt 0.9921875 0.9921875
vt 0.5078125 0.9921875
vt 0.5078125 0.5078125
vt 0.9921875 0.5078125
vt 0.5078125 0.5078125
vt 0.5078125 0.9921875
vt 0.9921875 0.9921875
vt 0.9921875 0.5078125
vt 0.5078125 0.5078125
vt 0.5078125 0.9921875
vt 0.9921875 0.9921875
vt 0.9921875 0.5078125
vt 0.9921875 0.5078125
vt 0.9921875 0.9921875
vt 0.5078125 0.9921875
vt 0.5078125 0.5078125
vt 0.9921875 0.5078125
vt 0.9921875 0.9921875
vt 0.5078125 0.9921875
vt 0.5078125 0.5078125
vt 0.5078125 0.9921875
vt 0.9921875 0.9921875
vt 0.9921875 0.5078125
vt 0.5078125 0.5078125
vt 0.9921875 0.9921875
vt 0.5078125 0.9921875
vt 0.5078125 0.5078125
vt 0.9921875 0.5078125
vt 0.0078125 0.0078125
vt 0.0078125 0.4921875
vt 0.4921875 0.4921875
vt 0.4921875 0.0078125
vt 0.0078125 0.0078125
vt 0.0078125 0.4921875
vt 0.4921875 0.4921875
vt 0.4921875 0.0078125
vt 0.4921875 0.0078125
vt 0.4921875 0.4921875
vt 0.0078125 0.4921875
vt 0.0078125 0.0078125
vt 0.4921875 0.0078125
vt 0.4921875 0.4921875
vt 0.0078125 0.4921875
vt 0.0078125 0.0078125
vt 0.0078125 0.4921875
vt 0.4921875 0.4921875
vt 0.4921875 0.0078125
vt 0.0078125 0.0078125
vt 0.4921875 0.4921875
vt 0.0078125 0.4921875
vt 0.0078125 0.0078125
vt 0.4921875 0.0078125
vt 0.0078125 0.0078125
vt 0.0078125 0.4921875
vt 0.4921875 0.4921875
vt 0.4921875 0.0078125
vt 0.0078125 0.0078125
vt 0.0078125 0.4921875
vt 0.4921875 0.4921875
vt 0.4921875 0.0078125
vt 0.4921875 0.0078125
vt 0.4921875 0.4921875
vt 0.0078125 0.4921875
vt 0.0078125 0.0078125
vt 0.4921875 0.0078125
vt 0.4921875 0.4921875
vt 0.0078125 0.4921875
vt 0.0078125 0.0078125
vt 0.0078125 0.4921875
vt 0.4921875 0.4921875
vt 0.4921875 0.0078125
vt 0.0078125 0.0078125
vt 0.4921875 0.4921875
vt 0.0078125 0.4921875
vt 0.0078125 0.0078125
vt 0.4921875 0.0078125
vt 0.0078125 0.0078125
vt 0.0078125 0.4921875
vt 0.4921875 0.4921875
vt 0.4921875 0.0078125
vt 0.0078125 0.0078125
vt 0.0078125 0.4921875
vt 0.4921875 0.4921875
vt 0.4921875 0.0078125
vt 0.4921875 0.0078125
vt 0.4921875 0.4921875
vt 0.0078125 0.4921875
vt 0.0078125 0.0078125
vt 0.4921875 0.0078125
vt 0.4921875 0.4921875
vt 0.0078125 0.4921875
vt 0.0078125 0.0078125
vt 0.0078125 0.4921875
vt 0.4921875 0.4921875
vt 0.4921875 0.0078125
vt 0.0078125 0.0078125
vt 0.9921875 0.4921875
vt 0.5078125 0.4921875
vt 0.5078125 0.0078125
vt 0.9921875 0.0078125
vt 0.0078125 0.0078125
vt 0.0078125 0.4921875
vt 0.4921875 0.4921875
vt 0.4921875 0.0078125
vt 0.0078125 0.0078125
vt 0.0078125 0.4921875
vt 0.4921875 0.4921875
vt 0.4921875 0.0078125
vt 0.4921875 0.0078125
vt 0.4921875 0.4921875
vt 0.0078125 0.4921875
vt 0.0078125 0.0078125
vt 0.4921875 0.0078125
vt 0.4921875 0.4921875
vt 0.0078125 0.4921875
vt 0.0078125 0.0078125
vt 0.0078125 0.4921875
vt 0.4921875 0.4921875
vt 0.4921875 0.0078125
vt 0.0078125 0.0078125
vt 0.4921875 0.4921875
vt 0.0078125 0.4921875
vt 0.0078125 0.0078125
vt 0.4921875 0.0078125
vt 0.0078125 0.0078125
vt 0.0078125 0.4921875
vt 0.4921875 0.4921875
vt 0.4921875 0.0078125
vt 0.0078125 0.0078125
vt 0.0078125 0.4921875
vt 0.4921875 0.4921875
vt 0.4921875 0.0078125
vt 0.4921875 0.0078125
vt 0.4921875 0.4921875
vt 0.0078125 0.4921875
vt 0.0078125 0.0078125
vt 0.4921875 0.0078125
vt 0.4921875 0.4921875
vt 0.0078125 0.4921875
vt 0.0078125 0.0078125
vt 0.0078125 0.4921875
vt 0.4921875 0.4921875
vt 0.4921875 0.0078125
vt 0.0078125 0.0078125
vt 0.4921875 0.4921875
vt 0.0078125 0.4921875
vt 0.0078125 0.0078125
vt 0.4921875 0.0078125
vt 0.0078125 0.5078125
vt 0.0078125 0.9921875
vt 0.4921875 0.9921875
vt 0.4921875 0.5078125
vt 0.0078125 0.5078125
vt 0.0078125 0.9921875
vt 0.4921875 0.9921875
vt 0.4921875 0.5078125
vt 0.4921875 0.5078125
vt 0.4921875 0.9921875
vt 0.0078125 0.9921875
vt 0.0078125 0.5078125
vt 0.4921875 0.5078125
vt 0.4921875 0.9921875
vt 0.0078125 0.9921875
vt 0.0078125 0.5078125
vt 0.0078125 0.9921875
vt 0.4921875 0.9921875
vt 0.4921875 0.5078125
vt 0.0078125 0.5078125
vt 0.4921875 0.9921875
vt 0.0078125 0.9921875
vt 0.0078125 0.5078125
vt 0.4921875 0.5078125
vt 0.0078125 0.0078125
vt 0.0078125 0.4921875
vt 0.4921875 0.4921875
vt 0.4921875 0.0078125
vt 0.0078125 0.0078125
vt 0.0078125 0.4921875
vt 0.4921875 0.4921875
vt 0.4921875 0.0078125
vt 0.4921875 0.0078125
vt 0.4921875 0.4921875
vt 0.0078125 0.4921875
vt 0.0078125 0.0078125
vt 0.4921875 0.0078125
vt 0.4921875 0.4921875
vt 0.0078125 0.4921875
vt 0.0078125 0.0078125
vt 0.0078125 0.4921875
vt 0.4921875 0.4921875
vt 0.4921875 0.0078125
vt 0.0078125 0.0078125
vt 0.4921875 0.4921875
vt 0.0078125 0.4921875
vt 0.0078125 0.0078125
vt 0.4921875 0.0078125
vt 0.0078125 0.0078125
vt 0.0078125 0.4921875
vt 0.4921875 0.4921875
vt 0.4921875 0.0078125
vt 0.0078125 0.0078125
vt 0.0078125 0.4921875
vt 0.4921875 0.4921875
vt 0.4921875 0.0078125
vt 0.4921875 0.0078125
vt 0.4921875 0.4921875
vt 0.0078125 0.4921875
vt 0.0078125 0.0078125
vt 0.4921875 0.0078125
vt 0.4921875 0.4921875
vt 0.0078125 0.4921875
vt 0.0078125 0.0078125
vt 0.0078125 0.4921875
vt 0.4921875 0.4921875
vt 0.4921875 0.0078125
vt 0.0078125 0.0078125
vt 0.4921875 0.4921875
vt 0.0078125 0.4921875
vt 0.0078125 0.0078125
vt 0.4921875 0.0078125
vt 0.0078125 0.5078125
vt 0.0078125 0.9921875
vt 0.4921875 0.9921875
vt 0.4921875 0.5078125
vt 0.0078125 0.5078125
vt 0.0078125 0.9921875
vt 0.4921875 0.9921875
vt 0.4921875 0.5078125
vt 0.4921875 0.5078125
vt 0.4921875 0.9921875
vt 0.0078125 0.9921875
vt 0.0078125 0.5078125
vt 0.4921875 0.5078125
vt 0.4921875 0.9921875
vt 0.0078125 0.9921875
vt 0.0078125 0.5078125
vt 0.0078125 0.9921875
vt 0.4921875 0.9921875
vt 0.4921875 0.5078125
vt 0.0078125 0.5078125
vt 0.4921875 0.9921875
vt 0.0078125 0.9921875
vt 0.0078125 0.5078125
vt 0.4921875 0.5078125
vt 0.0078125 0.0078125
vt 0.0078125 0.4921875
vt 0.4921875 0.4921875
vt 0.4921875 0.0078125
vt 0.0078125 0.0078125
vt 0.0078125 0.4921875
vt 0.4921875 0.4921875
vt 0.4921875 0.0078125
vt 0.4921875 0.0078125
vt 0.4921875 0.4921875
vt 0.0078125 0.4921875
vt 0.0078125 0.0078125
vt 0.4921875 0.0078125
vt 0.4921875 0.4921875
vt 0.0078125 0.4921875
vt 0.0078125 0.0078125
vt 0.0078125 0.4921875
vt 0.4921875 0.4921875
vt 0.4921875 0.0078125
vt 0.0078125 0.0078125
vt 0.4921875 0.4921875
vt 0.0078125 0.4921875
vt 0.0078125 0.0078125
vt 0.4921875 0.0078125
vt 0.0078125 0.0078125
vt 0.0078125 0.4921875
vt 0.4921875 0.4921875
vt 0.4921875 0.0078125
vt 0.0078125 0.0078125
vt 0.0078125 0.4921875
vt 0.4921875 0.4921875
vt 0.4921875 0.0078125
vt 0.4921875 0.0078125
vt 0.4921875 0.4921875
vt 0.0078125 0.4921875
vt 0.0078125 0.0078125
vt 0.4921875 0.0078125
vt 0.4921875 0.4921875
vt 0.0078125 0.4921875
vt 0.0078125 0.0078125
vt 0.0078125 0.4921875
vt 0.4921875 0.4921875
vt 0.4921875 0.0078125
vt 0.0078125 0.0078125
vt 0.4921875 0.4921875
vt 0.0078125 0.4921875
vt 0.0078125 0.0078125
vt 0.4921875 0.0078125
vt 0.0078125 0.5078125
vt 0.0078125 0.9921875
vt 0.4921875 0.9921875
vt 0.4921875 0.5078125
vt 0.0078125 0.5078125
vt 0.0078125 0.9921875
vt 0.4921875 0.9921875
vt 0.4921875 0.5078125
vt 0.4921875 0.5078125
vt 0.4921875 0.9921875
vt 0.0078125 0.9921875
vt 0.0078125 0.5078125
vt 0.4921875 0.5078125
vt 0.4921875 0.9921875
vt 0.0078125 0.9921875
vt 0.0078125 0.5078125
vt 0.0078125 0.9921875
vt 0.4921875 0.9921875
vt 0.4921875 0.5078125
vt 0.0078125 0.5078125
vt 0.4921875 0.9921875
vt 0.0078125 0.9921875
vt 0.0078125 0.5078125
vt 0.4921875 0.5078125
vt 0.0078125 0.0078125
vt 0.0078125 0.4921875
vt 0.4921875 0.4921875
vt 0.4921875 0.0078125
vt 0.0078125 0.0078125
vt 0.0078125 0.4921875
vt 0.4921875 0.4921875
vt 0.4921875 0.0078125
vt 0.4921875 0.0078125
vt 0.4921875 0.4921875
vt 0.0078125 0.4921875
vt 0.0078125 0.0078125
vt 0.4921875 0.0078125
vt 0.4921875 0.4921875
vt 0.0078125 0.4921875
vt 0.0078125 0.0078125
vt 0.0078125 0.4921875
vt 0.4921875 0.4921875
vt 0.4921875 0.0078125
vt 0.0078125 0.0078125
vt 0.4921875 0.4921875
vt 0.0078125 0.4921875
vt 0.0078125 0.0078125
vt 0.4921875 0.0078125
vt 0.0078125 0.0078125
vt 0.0078125 0.4921875
vt 0.4921875 0.4921875
vt 0.4921875 0.0078125
vt 0.0078125 0.0078125
vt 0.0078125 0.4921875
vt 0.4921875 0.4921875
vt 0.4921875 0.0078125
vt 0.4921875 0.0078125
vt 0.4921875 0.4921875
vt 0.0078125 0.4921875
vt 0.0078125 0.0078125
vt 0.4921875 0.0078125
vt 0.4921875 0.4921875
vt 0.0078125 0.4921875
vt 0.0078125 0.0078125
vt 0.0078125 0.4921875
vt 0.4921875 0.4921875
vt 0.4921875 0.0078125
vt 0.0078125 0.0078125
vt 0.4921875 0.4921875
vt 0.0078125 0.4921875
vt 0.0078125 0.0078125
vt 0.4921875 0.0078125
vt 0.0078125 0.5078125
vt 0.0078125 0.9921875
vt 0.4921875 0.9921875
vt 0.4921875 0.5078125
vt 0.0078125 0.5078125
vt 0.0078125 0.9921875
vt 0.4921875 0.9921875
vt 0.4921875 0.5078125
vt 0.4921875 0.5078125
vt 0.4921875 0.9921875
vt 0.0078125 0.9921875
vt 0.0078125 0.5078125
vt 0.4921875 0.5078125
vt 0.4921875 0.9921875
vt 0.0078125 0.9921875
vt 0.0078125 0.5078125
vt 0.0078125 0.9921875
vt 0.4921875 0.9921875
vt 0.4921875 0.5078125
vt 0.0078125 0.5078125
vt 0.4921875 0.9921875
vt 0.0078125 0.9921875
vt 0.0078125 0.5078125
vt 0.4921875 0.5078125
vt 0.0078125 0.0078125
vt 0.0078125 0.4921875
vt 0.4921875 0.4921875
vt 0.4921875 0.0078125
vt 0.0078125 0.0078125
vt 0.0078125 0.4921875
vt 0.4921875 0.4921875
vt 0.4921875 0.0078125
vt 0.4921875 0.0078125
vt 0.4921875 0.4921875
vt 0.0078125 0.4921875
vt 0.0078125 0.0078125
vt 0.4921875 0.0078125
vt 0.4921875 0.4921875
vt 0.0078125 0.4921875
vt 0.0078125 0.0078125
vt 0.0078125 0.4921875
vt 0.4921875 0.4921875
vt 0.4921875 0.0078125
vt 0.0078125 0.0078125
vt 0.4921875 0.4921875
vt 0.0078125 0.4921875
vt 0.0078125 0.0078125
vt 0.4921875 0.0078125
vt 0.0078125 0.0078125
vt 0.0078125 0.4921875
vt 0.4921875 0.4921875
vt 0.4921875 0.0078125
vt 0.0078125 0.0078125
vt 0.0078125 0.4921875
vt 0.4921875 0.4921875
vt 0.4921875 0.0078125
vt 0.4921875 0.0078125
vt 0.4921875 0.4921875
vt 0.0078125 0.4921875
vt 0.0078125 0.0078125
vt 0.4921875 0.0078125
vt 0.4921875 0.4921875
vt 0.0078125 0.4921875
vt 0.0078125 0.0078125
vt 0.0078125 0.4921875
vt 0.4921875 0.4921875
vt 0.4921875 0.0078125
vt 0.0078125 0.0078125
vt 0.4921875 0.4921875
vt 0.0078125 0.4921875
vt 0.0078125 0.0078125
vt 0.4921875 0.0078125
vt 0.0078125 0.5078125
vt 0.0078125 0.9921875
vt 0.4921875 0.9921875
vt 0.4921875 0.5078125
vt 0.0078125 0.5078125
vt 0.0078125 0.9921875
vt 0.4921875 0.9921875
vt 0.4921875 0.5078125
vt 0.4921875 0.5078125
vt 0.4921875 0.9921875
vt 0.0078125 0.9921875
vt 0.0078125 0.5078125
vt 0.4921875 0.5078125
vt 0.4921875 0.9921875
vt 0.0078125 0.9921875
vt 0.0078125 0.5078125
vt 0.0078125 0.9921875
vt 0.4921875 0.9921875
vt 0.4921875 0.5078125
vt 0.0078125 0.5078125
vt 0.4921875 0.9921875
vt 0.0078125 0.9921875
vt 0.0078125 0.5078125
vt 0.4921875 0.5078125
vt 0.0078125 0.0078125
vt 0.0078125 0.4921875
vt 0.4921875 0.4921875
vt 0.4921875 0.0078125
vt 0.0078125 0.0078125
vt 0.0078125 0.4921875
vt 0.4921875 0.4921875
vt 0.4921875 0.0078125
vt 0.4921875 0.0078125
vt 0.4921875 0.4921875
vt 0.0078125 0.4921875
vt 0.0078125 0.0078125
vt 0.4921875 0.0078125
vt 0.4921875 0.4921875
vt 0.0078125 0.4921875
vt 0.0078125 0.0078125
vt 0.0078125 0.4921875
vt 0.4921875 0.4921875
vt 0.4921875 0.0078125
vt 0.0078125 0.0078125
vt 0.4921875 0.4921875
vt 0.0078125 0.4921875
vt 0.0078125 0.0078125
vt 0.4921875 0.0078125
vt 0.0078125 0.0078125
vt 0.0078125 0.4921875
vt 0.4921875 0.4921875
vt 0.4921875 0.0078125
vt 0.0078125 0.0078125
vt 0.0078125 0.4921875
vt 0.4921875 0.4921875
vt 0.4921875 0.0078125
vt 0.4921875 0.0078125
vt 0.4921875 0.4921875
vt 0.0078125 0.4921875
vt 0.0078125 0.0078125
vt 0.4921875 0.0078125
vt 0.4921875 0.4921875
vt 0.0078125 0.4921875
vt 0.0078125 0.0078125
vt 0.0078125 0.4921875
vt 0.4921875 0.4921875
vt 0.4921875 0.0078125
vt 0.0078125 0.0078125
vt 0.4921875 0.4921875
vt 0.0078125 0.4921875
vt 0.0078125 0.0078125
vt 0.4921875 0.0078125
vt 0.0078125 0.5078125
vt 0.0078125 0.9921875
vt 0.4921875 0.9921875
vt 0.4921875 0.5078125
vt 0.0078125 0.5078125
vt 0.0078125 0.9921875
vt 0.4921875 0.9921875
vt 0.4921875 0.5078125
vt 0.4921875 0.5078125
vt 0.4921875 0.9921875
vt 0.0078125 0.9921875
vt 0.0078125 0.5078125
vt 0.4921875 0.5078125
vt 0.4921875 0.9921875
vt 0.0078125 0.9921875
vt 0.0078125 0.5078125
vt 0.0078125 0.9921875
vt 0.4921875 0.9921875
vt 0.4921875 0.5078125
vt 0.0078125 0.5078125
vt 0.4921875 0.9921875
vt 0.0078125 0.9921875
vt 0.0078125 0.5078125
vt 0.4921875 0.5078125
vt 0.0078125 0.0078125
vt 0.0078125 0.4921875
vt 0.4921875 0.4921875
vt 0.4921875 0.0078125
vt 0.0078125 0.0078125
vt 0.0078125 0.4921875
vt 0.4921875 0.4921875
vt 0.4921875 0.0078125
vt 0.4921875 0.0078125
vt 0.4921875 0.4921875
vt 0.0078125 0.4921875
vt 0.0078125 0.0078125
vt 0.4921875 0.0078125
vt 0.4921875 0.4921875
vt 0.0078125 0.4921875
vt 0.0078125 0.0078125
vt 0.0078125 0.4921875
vt 0.4921875 0.4921875
vt 0.4921875 0.0078125
vt 0.0078125 0.0078125
vt 0.4921875 0.4921875
vt 0.0078125 0.4921875
vt 0.0078125 0.0078125
vt 0.4921875 0.0078125
vt 0.0078125 0.0078125
vt 0.0078125 0.4921875
vt 0.4921875 0.4921875
vt 0.4921875 0.0078125
vt 0.0078125 0.0078125
vt 0.0078125 0.4921875
vt 0.4921875 0.4921875
vt 0.4921875 0.0078125
vt 0.4921875 0.0078125
vt 0.4921875 0.4921875
vt 0.0078125 0.4921875
vt 0.0078125 0.0078125
vt 0.4921875 0.0078125
vt 0.4921875 0.4921875
vt 0.0078125 0.4921875
vt 0.0078125 0.0078125
vt 0.0078125 0.4921875
vt 0.4921875 0.4921875
vt 0.4921875 0.0078125
vt 0.0078125 0.0078125
vt 0.4921875 0.4921875
vt 0.0078125 0.4921875
vt 0.0078125 0.0078125
vt 0.4921875 0.0078125
vt 0.0078125 0.5078125
vt 0.0078125 0.9921875
vt 0.4921875 0.9921875
vt 0.4921875 0.5078125
vt 0.0078125 0.5078125
vt 0.0078125 0.9921875
vt 0.4921875 0.9921875
vt 0.4921875 0.5078125
vt 0.4921875 0.5078125
vt 0.4921875 0.9921875
vt 0.0078125 0.9921875
vt 0.0078125 0.5078125
vt 0.4921875 0.5078125
vt 0.4921875 0.9921875
vt 0.0078125 0.9921875
vt 0.0078125 0.5078125
vt 0.0078125 0.9921875
vt 0.4921875 0.9921875
vt 0.4921875 0.5078125
vt 0.0078125 0.5078125
vt 0.4921875 0.9921875
vt 0.0078125 0.9921875
vt 0.0078125 0.5078125
vt 0.4921875 0.5078125
vt 0.0078125 0.0078125
vt 0.0078125 0.4921875
vt 0.4921875 0.4921875
vt 0.4921875 0.0078125
vt 0.0078125 0.0078125
vt 0.0078125 0.4921875
vt 0.4921875 0.4921875
vt 0.4921875 0.0078125
vt 0.4921875 0.0078125
vt 0.4921875 0.4921875
vt 0.0078125 0.4921875
vt 0.0078125 0.0078125
vt 0.4921875 0.0078125
vt 0.4921875 0.4921875
vt 0.0078125 0.4921875
vt 0.0078125 0.0078125
vt 0.0078125 0.4921875
vt 0.4921875 0.4921875
vt 0.4921875 0.0078125
vt 0.0078125 0.0078125
vt 0.4921875 0.4921875
vt 0.0078125 0.4921875
vt 0.0078125 0.0078125
vt 0.4921875 0.0078125
vt 0.0078125 0.0078125
vt 0.0078125 0.4921875
vt 0.4921875 0.4921875
vt 0.4921875 0.0078125
vt 0.0078125 0.0078125
vt 0.0078125 0.4921875
vt 0.4921875 0.4921875
vt 0.4921875 0.0078125
vt 0.4921875 0.0078125
vt 0.4921875 0.4921875
vt 0.0078125 0.4921875
vt 0.0078125 0.0078125
vt 0.4921875 0.0078125
vt 0.4921875 0.4921875
vt 0.0078125 0.4921875
vt 0.0078125 0.0078125
vt 0.0078125 0.4921875
vt 0.4921875 0.4921875
vt 0.4921875 0.0078125
vt 0.0078125 0.0078125
vt 0.4921875 0.4921875
vt 0.0078125 0.4921875
vt 0.0078125 0.0078125
vt 0.4921875 0.0078125
vt 0.0078125 0.5078125
vt 0.0078125 0.9921875
vt 0.4921875 0.9921875
vt 0.4921875 0.5078125
vt 0.0078125 0.5078125
vt 0.0078125 0.9921875
vt 0.4921875 0.9921875
vt 0.4921875 0.5078125
vt 0.4921875 0.5078125
vt 0.4921875 0.9921875
vt 0.0078125 0.9921875
vt 0.0078125 0.5078125
vt 0.4921875 0.5078125
vt 0.4921875 0.9921875
vt 0.0078125 0.9921875
vt 0.0078125 0.5078125
vt 0.0078125 0.9921875
vt 0.4921875 0.9921875
vt 0.4921875 0.5078125
vt 0.0078125 0.5078125
vt 0.4921875 0.9921875
vt 0.0078125 0.9921875
vt 0.0078125 0.5078125
vt 0.4921875 0.5078125
vt 0.0078125 0.0078125
vt 0.0078125 0.4921875
vt 0.4921875 0.4921875
vt 0.4921875 0.0078125
vt 0.0078125 0.0078125
vt 0.0078125 0.4921875
vt 0.4921875 0.4921875
vt 0.4921875 0.0078125
vt 0.4921875 0.0078125
vt 0.4921875 0.4921875
vt 0.0078125 0.4921875
vt 0.0078125 0.0078125
vt 0.4921875 0.0078125
vt 0.4921875 0.4921875
vt 0.0078125 0.4921875
vt 0.0078125 0.0078125
vt 0.0078125 0.4921875
vt 0.4921875 0.4921875
vt 0.4921875 0.0078125
vt 0.0078125 0.0078125
vt 0.4921875 0.4921875
vt 0.0078125 0.4921875
vt 0.0078125 0.0078125
vt 0.4921875 0.0078125
vt 0.0078125 0.0078125
vt 0.0078125 0.4921875
vt 0.4921875 0.4921875
vt 0.4921875 0.0078125
vt 0.0078125 0.0078125
vt 0.0078125 0.4921875
vt 0.4921875 0.4921875
vt 0.4921875 0.0078125
vt 0.4921875 0.0078125
vt 0.4921875 0.4921875
vt 0.0078125 0.4921875
vt 0.0078125 0.0078125
vt 0.4921875 0.0078125
vt 0.4921875 0.4921875
vt 0.0078125 0.4921875
vt 0.0078125 0.0078125
vt 0.0078125 0.4921875
vt 0.4921875 0.4921875
vt 0.4921875 0.0078125
vt 0.0078125 0.0078125
vt 0.4921875 0.4921875
vt 0.0078125 0.4921875
vt 0.0078125 0.0078125
vt 0.4921875 0.0078125
vt 0.0078125 0.5078125
vt 0.0078125 0.9921875
vt 0.4921875 0.9921875
vt 0.4921875 0.5078125
vt 0.0078125 0.5078125
vt 0.0078125 0.9921875
vt 0.4921875 0.9921875
vt 0.4921875 0.5078125
vt 0.4921875 0.5078125
vt 0.4921875 0.9921875
vt 0.0078125 0.9921875
vt 0.0078125 0.5078125
vt 0.4921875 0.5078125
vt 0.4921875 0.9921875
vt 0.0078125 0.9921875
vt 0.0078125 0.5078125
vt 0.0078125 0.9921875
vt 0.4921875 0.9921875
vt 0.4921875 0.5078125
vt 0.0078125 0.5078125
vt 0.4921875 0.9921875
vt 0.0078125 0.9921875
vt 0.0078125 0.5078125
vt 0.4921875 0.5078125
vt 0.0078125 0.0078125
vt 0.0078125 0.4921875
vt 0.4921875 0.4921875
vt 0.4921875 0.0078125
vt 0.0078125 0.0078125
vt 0.0078125 0.4921875
vt 0.4921875 0.4921875
vt 0.4921875 0.0078125
vt 0.4921875 0.0078125
vt 0.4921875 0.4921875
vt 0.0078125 0.4921875
vt 0.0078125 0.0078125
vt 0.4921875 0.0078125
vt 0.4921875 0.4921875
vt 0.0078125 0.4921875
vt 0.0078125 0.0078125
vt 0.0078125 0.4921875
vt 0.4921875 0.4921875
vt 0.4921875 0.0078125
vt 0.0078125 0.0078125
vt 0.4921875 0.4921875
vt 0.0078125 0.4921875
vt 0.0078125 0.0078125
vt 0.4921875 0.0078125
vt 0.0078125 0.0078125
vt 0.0078125 0.4921875
vt 0.4921875 0.4921875
vt 0.4921875 0.0078125
vt 0.0078125 0.0078125
vt 0.0078125 0.4921875
vt 0.4921875 0.4921875
vt 0.4921875 0.0078125
vt 0.4921875 0.0078125
vt 0.4921875 0.4921875
vt 0.0078125 0.4921875
vt 0.0078125 0.0078125
vt 0.4921875 0.0078125
vt 0.4921875 0.4921875
vt 0.0078125 0.4921875
vt 0.0078125 0.0078125
vt 0.0078125 0.4921875
vt 0.4921875 0.4921875
vt 0.4921875 0.0078125
vt 0.0078125 0.0078125
vt 0.4921875 0.4921875
vt 0.0078125 0.4921875
vt 0.0078125 0.0078125
vt 0.4921875 0.0078125
vt 0.0078125 0.5078125
vt 0.0078125 0.9921875
vt 0.4921875 0.9921875
vt 0.4921875 0.5078125
vt 0.0078125 0.5078125
vt 0.0078125 0.9921875
vt 0.4921875 0.9921875
vt 0.4921875 0.5078125
vt 0.4921875 0.5078125
vt 0.4921875 0.9921875
vt 0.0078125 0.9921875
vt 0.0078125 0.5078125
vt 0.4921875 0.5078125
vt 0.4921875 0.9921875
vt 0.0078125 0.9921875
vt 0.0078125 0.5078125
vt 0.0078125 0.9921875
vt 0.4921875 0.9921875
vt 0.4921875 0.5078125
vt 0.0078125 0.5078125
vt 0.4921875 0.9921875
vt 0.0078125 0.9921875
vt 0.0078125 0.5078125
vt 0.4921875 0.5078125
vt 0.0078125 0.0078125
vt 0.0078125 0.4921875
vt 0.4921875 0.4921875
vt 0.4921875 0.0078125
vt 0.0078125 0.0078125
vt 0.0078125 0.4921875
vt 0.4921875 0.4921875
vt 0.4921875 0.0078125
vt 0.4921875 0.0078125
vt 0.4921875 0.4921875
vt 0.0078125 0.4921875
vt 0.0078125 0.0078125
vt 0.4921875 0.0078125
vt 0.4921875 0.4921875
vt 0.0078125 0.4921875
vt 0.0078125 0.0078125
vt 0.0078125 0.4921875
vt 0.4921875 0.4921875
vt 0.4921875 0.0078125
vt 0.0078125 0.0078125
vt 0.4921875 0.4921875
vt 0.0078125 0.4921875
vt 0.0078125 0.0078125
vt 0.4921875 0.0078125
vt 0.0078125 0.0078125
vt 0.0078125 0.4921875
vt 0.4921875 0.4921875
vt 0.4921875 0.0078125
vt 0.0078125 0.0078125
vt 0.0078125 0.4921875
vt 0.4921875 0.4921875
vt 0.4921875 0.0078125
vt 0.4921875 0.0078125
vt 0.4921875 0.4921875
vt 0.0078125 0.4921875
vt 0.0078125 0.0078125
vt 0.4921875 0.0078125
vt 0.4921875 0.4921875
vt 0.0078125 0.4921875
vt 0.0078125 0.0078125
vt 0.0078125 0.4921875
vt 0.4921875 0.4921875
vt 0.4921875 0.0078125
vt 0.0078125 0.0078125
vt 0.4921875 0.4921875
vt 0.0078125 0.4921875
vt 0.0078125 0.0078125
vt 0.4921875 0.0078125
vt 0.0078125 0.5078125
vt 0.0078125 0.9921875
vt 0.4921875 0.9921875
vt 0.4921875 0.5078125
vt 0.0078125 0.5078125
vt 0.0078125 0.9921875
vt 0.4921875 0.9921875
vt 0.4921875 0.5078125
vt 0.4921875 0.5078125
vt 0.4921875 0.9921875
vt 0.0078125 0.9921875
vt 0.0078125 0.5078125
vt 0.4921875 0.5078125
vt 0.4921875 0.9921875
vt 0.0078125 0.9921875
vt 0.0078125 0.5078125
vt 0.0078125 0.9921875
vt 0.4921875 0.9921875
vt 0.4921875 0.5078125
vt 0.0078125 0.5078125
vt 0.4921875 0.9921875
vt 0.0078125 0.9921875
vt 0.0078125 0.5078125
vt 0.4921875 0.5078125
vt 0.0078125 0.0078125
vt 0.0078125 0.4921875
vt 0.4921875 0.4921875
vt 0.4921875 0.0078125
vt 0.0078125 0.0078125
vt 0.0078125 0.4921875
vt 0.4921875 0.4921875
vt 0.4921875 0.0078125
vt 0.4921875 0.0078125
vt 0.4921875 0.4921875
vt 0.0078125 0.4921875
vt 0.0078125 0.0078125
vt 0.4921875 0.0078125
vt 0.4921875 0.4921875
vt 0.0078125 0.4921875
vt 0.0078125 0.0078125
vt 0.0078125 0.4921875
vt 0.4921875 0.4921875
vt 0.4921875 0.0078125
vt 0.0078125 0.0078125
vt 0.4921875 0.4921875
vt 0.0078125 0.4921875
vt 0.0078125 0.0078125
vt 0.4921875 0.0078125
vt 0.0078125 0.0078125
vt 0.0078125 0.4921875
vt 0.4921875 0.4921875
vt 0.4921875 0.0078125
vt 0.0078125 0.0078125
vt 0.0078125 0.4921875
vt 0.4921875 0.4921875
vt 0.4921875 0.0078125
vt 0.4921875 0.0078125
vt 0.4921875 0.4921875
vt 0.0078125 0.4921875
vt 0.0078125 0.0078125
vt 0.4921875 0.0078125
vt 0.4921875 0.4921875
vt 0.0078125 0.4921875
vt 0.0078125 0.0078125
vt 0.0078125 0.4921875
vt 0.4921875 0.4921875
vt 0.4921875 0.0078125
vt 0.0078125 0.0078125
vt 0.4921875 0.4921875
vt 0.0078125 0.4921875
vt 0.0078125 0.0078125
vt 0.4921875 0.0078125
vt 0.0078125 0.5078125
vt 0.0078125 0.9921875
vt 0.4921875 0.9921875
vt 0.4921875 0.5078125
vt 0.0078125 0.5078125
vt 0.0078125 0.9921875
vt 0.4921875 0.9921875
vt 0.4921875 0.5078125
vt 0.4921875 0.5078125
vt 0.4921875 0.9921875
vt 0.0078125 0.9921875
vt 0.0078125 0.5078125
vt 0.4921875 0.5078125
vt 0.4921875 0.9921875
vt 0.0078125 0.9921875
vt 0.0078125 0.5078125
vt 0.0078125 0.9921875
vt 0.4921875 0.9921875
vt 0.4921875 0.5078125
vt 0.0078125 0.5078125
vt 0.4921875 0.9921875
vt 0.0078125 0.9921875
vt 0.0078125 0.5078125
vt 0.4921875 0.5078125
vt 0.0078125 0.0078125
vt 0.0078125 0.4921875
vt 0.4921875 0.4921875
vt 0.4921875 0.0078125
vt 0.0078125 0.0078125
vt 0.0078125 0.4921875
vt 0.4921875 0.4921875
vt 0.4921875 0.0078125
vt 0.4921875 0.0078125
vt 0.4921875 0.4921875
vt 0.0078125 0.4921875
vt 0.0078125 0.0078125
vt 0.4921875 0.0078125
vt 0.4921875 0.4921875
vt 0.0078125 0.4921875
vt 0.0078125 0.0078125
vt 0.0078125 0.4921875
vt 0.4921875 0.4921875
vt 0.4921875 0.0078125
vt 0.0078125 0.0078125
vt 0.4921875 0.4921875
vt 0.0078125 0.4921875
vt 0.0078125 0.0078125
vt 0.4921875 0.0078125
vt 0.0078125 0.5078125
vt 0.0078125 0.9921875
vt 0.4921875 0.9921875
vt 0.4921875 0.5078125
vt 0.0078125 0.5078125
vt 0.0078125 0.9921875
vt 0.4921875 0.9921875
vt 0.4921875 0.5078125
vt 0.4921875 0.5078125
vt 0.4921875 0.9921875
vt 0.0078125 0.9921875
vt 0.0078125 0.5078125
vt 0.4921875 0.5078125
vt 0.4921875 0.9921875
vt 0.0078125 0.9921875
vt 0.0078125 0.5078125
vt 0.0078125 0.9921875
vt 0.4921875 0.9921875
vt 0.4921875 0.5078125
vt 0.0078125 0.5078125
vt 0.4921875 0.9921875
vt 0.0078125 0.9921875
vt 0.0078125 0.5078125
vt 0.4921875 0.5078125
vt 0.0078125 0.5078125
vt 0.0078125 0.9921875
vt 0.4921875 0.9921875
vt 0.4921875 0.5078125
vt 0.0078125 0.5078125
vt 0.0078125 0.9921875
vt 0.4921875 0.9921875
vt 0.4921875 0.5078125
vt 0.4921875 0.5078125
vt 0.4921875 0.9921875
vt 0.0078125 0.9921875
vt 0.0078125 0.5078125
vt 0.4921875 0.5078125
vt 0.4921875 0.9921875
vt 0.0078125 0.9921875
vt 0.0078125 0.5078125
vt 0.0078125 0.9921875
vt 0.4921875 0.9921875
vt 0.4921875 0.5078125
vt 0.0078125 0.5078125
vt 0.4921875 0.9921875
vt 0.0078125 0.9921875
vt 0.0078125 0.5078125
vt 0.4921875 0.5078125
usemtl service_workshop
f 1/1 2/2 4/3
f 1/1 4/3 3/4
f 3/5 4/6 8/7
f 3/5 8/7 7/8
f 7/9 8/10 6/11
f 7/9 6/11 5/12
f 5/13 6/14 2/15
f 5/13 2/15 1/16
f 3/17 7/18 5/19
f 3/17 5/19 1/20
f 8/21 4/22 2/23
f 8/21 2/23 6/24
f 9/25 10/26 12/27
f 9/25 12/27 11/28
f 11/29 12/30 16/31
f 11/29 16/31 15/32
f 15/33 16/34 14/35
f 15/33 14/35 13/36
f 13/37 14/38 10/39
f 13/37 10/39 9/40
f 11/41 15/42 13/43
f 11/41 13/43 9/44
f 16/45 12/46 10/47
f 16/45 10/47 14/48
f 17/49 18/50 20/51
f 17/49 20/51 19/52
f 19/53 20/54 24/55
f 19/53 24/55 23/56
f 23/57 24/58 22/59
f 23/57 22/59 21/60
f 21/61 22/62 18/63
f 21/61 18/63 17/64
f 19/65 23/66 21/67
f 19/65 21/67 17/68
f 24/69 20/70 18/71
f 24/69 18/71 22/72
f 25/73 26/74 28/75
f 25/73 28/75 27/76
f 27/77 28/78 32/79
f 27/77 32/79 31/80
f 31/81 32/82 30/83
f 31/81 30/83 29/84
f 29/85 30/86 26/87
f 29/85 26/87 25/88
f 27/89 31/90 29/91
f 27/89 29/91 25/92
f 32/93 28/94 26/95
f 32/93 26/95 30/96
f 33/97 34/98 36/99
f 33/97 36/99 35/100
f 35/101 36/102 40/103
f 35/101 40/103 39/104
f 39/105 40/106 38/107
f 39/105 38/107 37/108
f 37/109 38/110 34/111
f 37/109 34/111 33/112
f 35/113 39/114 37/115
f 35/113 37/115 33/116
f 40/117 36/118 34/119
f 40/117 34/119 38/120
f 41/121 42/122 44/123
f 41/121 44/123 43/124
f 43/125 44/126 48/127
f 43/125 48/127 47/128
f 47/129 48/130 46/131
f 47/129 46/131 45/132
f 45/133 46/134 42/135
f 45/133 42/135 41/136
f 43/137 47/138 45/139
f 43/137 45/139 41/140
f 48/141 44/142 42/143
f 48/141 42/143 46/144
f 49/145 50/146 52/147
f 49/145 52/147 51/148
f 51/149 52/150 56/151
f 51/149 56/151 55/152
f 55/153 56/154 54/155
f 55/153 54/155 53/156
f 53/157 54/158 50/159
f 53/157 50/159 49/160
f 51/161 55/162 53/163
f 51/161 53/163 49/164
f 56/165 52/166 50/167
f 56/165 50/167 54/168
f 57/169 58/170 60/171
f 57/169 60/171 59/172
f 59/173 60/174 64/175
f 59/173 64/175 63/176
f 63/177 64/178 62/179
f 63/177 62/179 61/180
f 61/181 62/182 58/183
f 61/181 58/183 57/184
f 59/185 63/186 61/187
f 59/185 61/187 57/188
f 64/189 60/190 58/191
f 64/189 58/191 62/192
f 65/193 66/194 68/195
f 65/193 68/195 67/196
f 67/197 68/198 72/199
f 67/197 72/199 71/200
f 71/201 72/202 70/203
f 71/201 70/203 69/204
f 69/205 70/206 66/207
f 69/205 66/207 65/208
f 67/209 71/210 69/211
f 67/209 69/211 65/212
f 72/213 68/214 66/215
f 72/213 66/215 70/216
f 73/217 74/218 76/219
f 73/217 76/219 75/220
f 75/221 76/222 80/223
f 75/221 80/223 79/224
f 79/225 80/226 78/227
f 79/225 78/227 77/228
f 77/229 78/230 74/231
f 77/229 74/231 73/232
f 75/233 79/234 77/235
f 75/233 77/235 73/236
f 80/237 76/238 74/239
f 80/237 74/239 78/240
f 81/241 82/242 84/243
f 81/241 84/243 83/244
f 83/245 84/246 88/247
f 83/245 88/247 87/248
f 87/249 88/250 86/251
f 87/249 86/251 85/252
f 85/253 86/254 82/255
f 85/253 82/255 81/256
f 83/257 87/258 85/259
f 83/257 85/259 81/260
f 88/261 84/262 82/263
f 88/261 82/263 86/264
f 89/265 90/266 92/267
f 89/265 92/267 91/268
f 91/269 92/270 96/271
f 91/269 96/271 95/272
f 95/273 96/274 94/275
f 95/273 94/275 93/276
f 93/277 94/278 90/279
f 93/277 90/279 89/280
f 91/281 95/282 93/283
f 91/281 93/283 89/284
f 96/285 92/286 90/287
f 96/285 90/287 94/288
f 97/289 98/290 100/291
f 97/289 100/291 99/292
f 99/293 100/294 104/295
f 99/293 104/295 103/296
f 103/297 104/298 102/299
f 103/297 102/299 101/300
f 101/301 102/302 98/303
f 101/301 98/303 97/304
f 99/305 103/306 101/307
f 99/305 101/307 97/308
f 104/309 100/310 98/311
f 104/309 98/311 102/312
f 105/313 106/314 108/315
f 105/313 108/315 107/316
f 107/317 108/318 112/319
f 107/317 112/319 111/320
f 111/321 112/322 110/323
f 111/321 110/323 109/324
f 109/325 110/326 106/327
f 109/325 106/327 105/328
f 107/329 111/330 109/331
f 107/329 109/331 105/332
f 112/333 108/334 106/335
f 112/333 106/335 110/336
f 113/337 114/338 116/339
f 113/337 116/339 115/340
f 115/341 116/342 120/343
f 115/341 120/343 119/344
f 119/345 120/346 118/347
f 119/345 118/347 117/348
f 117/349 118/350 114/351
f 117/349 114/351 113/352
f 115/353 119/354 117/355
f 115/353 117/355 113/356
f 120/357 116/358 114/359
f 120/357 114/359 118/360
f 121/361 122/362 124/363
f 121/361 124/363 123/364
f 123/365 124/366 128/367
f 123/365 128/367 127/368
f 127/369 128/370 126/371
f 127/369 126/371 125/372
f 125/373 126/374 122/375
f 125/373 122/375 121/376
f 123/377 127/378 125/379
f 123/377 125/379 121/380
f 128/381 124/382 122/383
f 128/381 122/383 126/384
f 129/385 130/386 132/387
f 129/385 132/387 131/388
f 131/389 132/390 136/391
f 131/389 136/391 135/392
f 135/393 136/394 134/395
f 135/393 134/395 133/396
f 133/397 134/398 130/399
f 133/397 130/399 129/400
f 131/401 135/402 133/403
f 131/401 133/403 129/404
f 136/405 132/406 130/407
f 136/405 130/407 134/408
f 137/409 138/410 140/411
f 137/409 140/411 139/412
f 139/413 140/414 144/415
f 139/413 144/415 143/416
f 143/417 144/418 142/419
f 143/417 142/419 141/420
f 141/421 142/422 138/423
f 141/421 138/423 137/424
f 139/425 143/426 141/427
f 139/425 141/427 137/428
f 144/429 140/430 138/431
f 144/429 138/431 142/432
f 145/433 146/434 148/435
f 145/433 148/435 147/436
f 147/437 148/438 152/439
f 147/437 152/439 151/440
f 151/441 152/442 150/443
f 151/441 150/443 149/444
f 149/445 150/446 146/447
f 149/445 146/447 145/448
f 147/449 151/450 149/451
f 147/449 149/451 145/452
f 152/453 148/454 146/455
f 152/453 146/455 150/456
f 153/457 154/458 156/459
f 153/457 156/459 155/460
f 155/461 156/462 160/463
f 155/461 160/463 159/464
f 159/465 160/466 158/467
f 159/465 158/467 157/468
f 157/469 158/470 154/471
f 157/469 154/471 153/472
f 155/473 159/474 157/475
f 155/473 157/475 153/476
f 160/477 156/478 154/479
f 160/477 154/479 158/480
f 161/481 162/482 164/483
f 161/481 164/483 163/484
f 163/485 164/486 168/487
f 163/485 168/487 167/488
f 167/489 168/490 166/491
f 167/489 166/491 165/492
f 165/493 166/494 162/495
f 165/493 162/495 161/496
f 163/497 167/498 165/499
f 163/497 165/499 161/500
f 168/501 164/502 162/503
f 168/501 162/503 166/504
f 169/505 170/506 172/507
f 169/505 172/507 171/508
f 171/509 172/510 176/511
f 171/509 176/511 175/512
f 175/513 176/514 174/515
f 175/513 174/515 173/516
f 173/517 174/518 170/519
f 173/517 170/519 169/520
f 171/521 175/522 173/523
f 171/521 173/523 169/524
f 176/525 172/526 170/527
f 176/525 170/527 174/528
f 177/529 178/530 180/531
f 177/529 180/531 179/532
f 179/533 180/534 184/535
f 179/533 184/535 183/536
f 183/537 184/538 182/539
f 183/537 182/539 181/540
f 181/541 182/542 178/543
f 181/541 178/543 177/544
f 179/545 183/546 181/547
f 179/545 181/547 177/548
f 184/549 180/550 178/551
f 184/549 178/551 182/552
f 185/553 186/554 188/555
f 185/553 188/555 187/556
f 187/557 188/558 192/559
f 187/557 192/559 191/560
f 191/561 192/562 190/563
f 191/561 190/563 189/564
f 189/565 190/566 186/567
f 189/565 186/567 185/568
f 187/569 191/570 189/571
f 187/569 189/571 185/572
f 192/573 188/574 186/575
f 192/573 186/575 190/576
f 193/577 194/578 196/579
f 193/577 196/579 195/580
f 195/581 196/582 200/583
f 195/581 200/583 199/584
f 199/585 200/586 198/587
f 199/585 198/587 197/588
f 197/589 198/590 194/591
f 197/589 194/591 193/592
f 195/593 199/594 197/595
f 195/593 197/595 193/596
f 200/597 196/598 194/599
f 200/597 194/599 198/600
f 201/601 202/602 204/603
f 201/601 204/603 203/604
f 203/605 204/606 208/607
f 203/605 208/607 207/608
f 207/609 208/610 206/611
f 207/609 206/611 205/612
f 205/613 206/614 202/615
f 205/613 202/615 201/616
f 203/617 207/618 205/619
f 203/617 205/619 201/620
f 208/621 204/622 202/623
f 208/621 202/623 206/624
f 209/625 210/626 212/627
f 209/625 212/627 211/628
f 211/629 212/630 216/631
f 211/629 216/631 215/632
f 215/633 216/634 214/635
f 215/633 214/635 213/636
f 213/637 214/638 210/639
f 213/637 210/639 209/640
f 211/641 215/642 213/643
f 211/641 213/643 209/644
f 216/645 212/646 210/647
f 216/645 210/647 214/648
f 217/649 218/650 220/651
f 217/649 220/651 219/652
f 219/653 220/654 224/655
f 219/653 224/655 223/656
f 223/657 224/658 222/659
f 223/657 222/659 221/660
f 221/661 222/662 218/663
f 221/661 218/663 217/664
f 219/665 223/666 221/667
f 219/665 221/667 217/668
f 224/669 220/670 218/671
f 224/669 218/671 222/672
f 225/673 226/674 228/675
f 225/673 228/675 227/676
f 227/677 228/678 232/679
f 227/677 232/679 231/680
f 231/681 232/682 230/683
f 231/681 230/683 229/684
f 229/685 230/686 226/687
f 229/685 226/687 225/688
f 227/689 231/690 229/691
f 227/689 229/691 225/692
f 232/693 228/694 226/695
f 232/693 226/695 230/696
f 233/697 234/698 236/699
f 233/697 236/699 235/700
f 235/701 236/702 240/703
f 235/701 240/703 239/704
f 239/705 240/706 238/707
f 239/705 238/707 237/708
f 237/709 238/710 234/711
f 237/709 234/711 233/712
f 235/713 239/714 237/715
f 235/713 237/715 233/716
f 240/717 236/718 234/719
f 240/717 234/719 238/720
f 241/721 242/722 244/723
f 241/721 244/723 243/724
f 243/725 244/726 248/727
f 243/725 248/727 247/728
f 247/729 248/730 246/731
f 247/729 246/731 245/732
f 245/733 246/734 242/735
f 245/733 242/735 241/736
f 243/737 247/738 245/739
f 243/737 245/739 241/740
f 248/741 244/742 242/743
f 248/741 242/743 246/744
f 249/745 250/746 252/747
f 249/745 252/747 251/748
f 251/749 252/750 256/751
f 251/749 256/751 255/752
f 255/753 256/754 254/755
f 255/753 254/755 253/756
f 253/757 254/758 250/759
f 253/757 250/759 249/760
f 251/761 255/762 253/763
f 251/761 253/763 249/764
f 256/765 252/766 250/767
f 256/765 250/767 254/768
f 257/769 258/770 260/771
f 257/769 260/771 259/772
f 259/773 260/774 264/775
f 259/773 264/775 263/776
f 263/777 264/778 262/779
f 263/777 262/779 261/780
f 261/781 262/782 258/783
f 261/781 258/783 257/784
f 259/785 263/786 261/787
f 259/785 261/787 257/788
f 264/789 260/790 258/791
f 264/789 258/791 262/792
f 265/793 266/794 268/795
f 265/793 268/795 267/796
f 267/797 268/798 272/799
f 267/797 272/799 271/800
f 271/801 272/802 270/803
f 271/801 270/803 269/804
f 269/805 270/806 266/807
f 269/805 266/807 265/808
f 267/809 271/810 269/811
f 267/809 269/811 265/812
f 272/813 268/814 266/815
f 272/813 266/815 270/816
f 273/817 274/818 276/819
f 273/817 276/819 275/820
f 275/821 276/822 280/823
f 275/821 280/823 279/824
f 279/825 280/826 278/827
f 279/825 278/827 277/828
f 277/829 278/830 274/831
f 277/829 274/831 273/832
f 275/833 279/834 277/835
f 275/833 277/835 273/836
f 280/837 276/838 274/839
f 280/837 274/839 278/840
f 281/841 282/842 284/843
f 281/841 284/843 283/844
f 283/845 284/846 288/847
f 283/845 288/847 287/848
f 287/849 288/850 286/851
f 287/849 286/851 285/852
f 285/853 286/854 282/855
f 285/853 282/855 281/856
f 283/857 287/858 285/859
f 283/857 285/859 281/860
f 288/861 284/862 282/863
f 288/861 282/863 286/864
f 289/865 290/866 292/867
f 289/865 292/867 291/868
f 291/869 292/870 296/871
f 291/869 296/871 295/872
f 295/873 296/874 294/875
f 295/873 294/875 293/876
f 293/877 294/878 290/879
f 293/877 290/879 289/880
f 291/881 295/882 293/883
f 291/881 293/883 289/884
f 296/885 292/886 290/887
f 296/885 290/887 294/888
f 297/889 298/890 300/891
f 297/889 300/891 299/892
f 299/893 300/894 304/895
f 299/893 304/895 303/896
f 303/897 304/898 302/899
f 303/897 302/899 301/900
f 301/901 302/902 298/903
f 301/901 298/903 297/904
f 299/905 303/906 301/907
f 299/905 301/907 297/908
f 304/909 300/910 298/911
f 304/909 298/911 302/912
f 305/913 306/914 308/915
f 305/913 308/915 307/916
f 307/917 308/918 312/919
f 307/917 312/919 311/920
f 311/921 312/922 310/923
f 311/921 310/923 309/924
f 309/925 310/926 306/927
f 309/925 306/927 305/928
f 307/929 311/930 309/931
f 307/929 309/931 305/932
f 312/933 308/934 306/935
f 312/933 306/935 310/936
f 313/937 314/938 316/939
f 313/937 316/939 315/940
f 315/941 316/942 320/943
f 315/941 320/943 319/944
f 319/945 320/946 318/947
f 319/945 318/947 317/948
f 317/949 318/950 314/951
f 317/949 314/951 313/952
f 315/953 319/954 317/955
f 315/953 317/955 313/956
f 320/957 316/958 314/959
f 320/957 314/959 318/960
f 321/961 322/962 324/963
f 321/961 324/963 323/964
f 323/965 324/966 328/967
f 323/965 328/967 327/968
f 327/969 328/970 326/971
f 327/969 326/971 325/972
f 325/973 326/974 322/975
f 325/973 322/975 321/976
f 323/977 327/978 325/979
f 323/977 325/979 321/980
f 328/981 324/982 322/983
f 328/981 322/983 326/984
f 329/985 330/986 332/987
f 329/985 332/987 331/988
f 331/989 332/990 336/991
f 331/989 336/991 335/992
f 335/993 336/994 334/995
f 335/993 334/995 333/996
f 333/997 334/998 330/999
f 333/997 330/999 329/1000
f 331/1001 335/1002 333/1003
f 331/1001 333/1003 329/1004
f 336/1005 332/1006 330/1007
f 336/1005 330/1007 334/1008
f 337/1009 338/1010 340/1011
f 337/1009 340/1011 339/1012
f 339/1013 340/1014 344/1015
f 339/1013 344/1015 343/1016
f 343/1017 344/1018 342/1019
f 343/1017 342/1019 341/1020
f 341/1021 342/1022 338/1023
f 341/1021 338/1023 337/1024
f 339/1025 343/1026 341/1027
f 339/1025 341/1027 337/1028
f 344/1029 340/1030 338/1031
f 344/1029 338/1031 342/1032
f 345/1033 346/1034 348/1035
f 345/1033 348/1035 347/1036
f 347/1037 348/1038 352/1039
f 347/1037 352/1039 351/1040
f 351/1041 352/1042 350/1043
f 351/1041 350/1043 349/1044
f 349/1045 350/1046 346/1047
f 349/1045 346/1047 345/1048
f 347/1049 351/1050 349/1051
f 347/1049 349/1051 345/1052
f 352/1053 348/1054 346/1055
f 352/1053 346/1055 350/1056
f 353/1057 354/1058 356/1059
f 353/1057 356/1059 355/1060
f 355/1061 356/1062 360/1063
f 355/1061 360/1063 359/1064
f 359/1065 360/1066 358/1067
f 359/1065 358/1067 357/1068
f 357/1069 358/1070 354/1071
f 357/1069 354/1071 353/1072
f 355/1073 359/1074 357/1075
f 355/1073 357/1075 353/1076
f 360/1077 356/1078 354/1079
f 360/1077 354/1079 358/1080
f 361/1081 362/1082 364/1083
f 361/1081 364/1083 363/1084
f 363/1085 364/1086 368/1087
f 363/1085 368/1087 367/1088
f 367/1089 368/1090 366/1091
f 367/1089 366/1091 365/1092
f 365/1093 366/1094 362/1095
f 365/1093 362/1095 361/1096
f 363/1097 367/1098 365/1099
f 363/1097 365/1099 361/1100
f 368/1101 364/1102 362/1103
f 368/1101 362/1103 366/1104
f 369/1105 370/1106 372/1107
f 369/1105 372/1107 371/1108
f 371/1109 372/1110 376/1111
f 371/1109 376/1111 375/1112
f 375/1113 376/1114 374/1115
f 375/1113 374/1115 373/1116
f 373/1117 374/1118 370/1119
f 373/1117 370/1119 369/1120
f 371/1121 375/1122 373/1123
f 371/1121 373/1123 369/1124
f 376/1125 372/1126 370/1127
f 376/1125 370/1127 374/1128
f 377/1129 378/1130 380/1131
f 377/1129 380/1131 379/1132
f 379/1133 380/1134 384/1135
f 379/1133 384/1135 383/1136
f 383/1137 384/1138 382/1139
f 383/1137 382/1139 381/1140
f 381/1141 382/1142 378/1143
f 381/1141 378/1143 377/1144
f 379/1145 383/1146 381/1147
f 379/1145 381/1147 377/1148
f 384/1149 380/1150 378/1151
f 384/1149 378/1151 382/1152
