# Original vertex-authored wreck for Casino Royale
mtllib car_palette.mtl
o wreck_cavity
v -2.0100 0.9350 -0.7300
v -1.1600 0.9350 -0.7300
v -1.1600 0.9350 0.7300
v -2.0100 0.9350 0.7300
v -2.0100 0.9650 0.7300
v -1.1600 0.9650 0.7300
v -1.1600 0.9650 -0.7300
v -2.0100 0.9650 -0.7300
v -2.0100 0.9650 -0.7300
v -1.1600 0.9650 -0.7300
v -1.1600 0.9350 -0.7300
v -2.0100 0.9350 -0.7300
v -1.1600 0.9650 -0.7300
v -1.1600 0.9650 0.7300
v -1.1600 0.9350 0.7300
v -1.1600 0.9350 -0.7300
v -1.1600 0.9650 0.7300
v -2.0100 0.9650 0.7300
v -2.0100 0.9350 0.7300
v -1.1600 0.9350 0.7300
v -2.0100 0.9650 0.7300
v -2.0100 0.9650 -0.7300
v -2.0100 0.9350 -0.7300
v -2.0100 0.9350 0.7300
usemtl cavity
f 1 2 3
f 1 3 4
f 5 6 7
f 5 7 8
f 9 10 11
f 9 11 12
f 13 14 15
f 13 15 16
f 17 18 19
f 17 19 20
f 21 22 23
f 21 23 24
