# Original vertex-authored wreck for Casino Royale
mtllib car_palette.mtl
o wreck_trim
v -0.9580 0.4100 -0.8440
v -0.9220 0.4100 -0.8440
v -0.9220 0.4100 -0.8260
v -0.9580 0.4100 -0.8260
v -0.9580 0.8900 -0.8260
v -0.9220 0.8900 -0.8260
v -0.9220 0.8900 -0.8440
v -0.9580 0.8900 -0.8440
v -0.9580 0.8900 -0.8440
v -0.9220 0.8900 -0.8440
v -0.9220 0.4100 -0.8440
v -0.9580 0.4100 -0.8440
v -0.9220 0.8900 -0.8440
v -0.9220 0.8900 -0.8260
v -0.9220 0.4100 -0.8260
v -0.9220 0.4100 -0.8440
v -0.9220 0.8900 -0.8260
v -0.9580 0.8900 -0.8260
v -0.9580 0.4100 -0.8260
v -0.9220 0.4100 -0.8260
v -0.9580 0.8900 -0.8260
v -0.9580 0.8900 -0.8440
v -0.9580 0.4100 -0.8440
v -0.9580 0.4100 -0.8260
v 0.1620 0.4100 -0.8440
v 0.1980 0.4100 -0.8440
v 0.1980 0.4100 -0.8260
v 0.1620 0.4100 -0.8260
v 0.1620 0.8900 -0.8260
v 0.1980 0.8900 -0.8260
v 0.1980 0.8900 -0.8440
v 0.1620 0.8900 -0.8440
v 0.1620 0.8900 -0.8440
v 0.1980 0.8900 -0.8440
v 0.1980 0.4100 -0.8440
v 0.1620 0.4100 -0.8440
v 0.1980 0.8900 -0.8440
v 0.1980 0.8900 -0.8260
v 0.1980 0.4100 -0.8260
v 0.1980 0.4100 -0.8440
v 0.1980 0.8900 -0.8260
v 0.1620 0.8900 -0.8260
v 0.1620 0.4100 -0.8260
v 0.1980 0.4100 -0.8260
v 0.1620 0.8900 -0.8260
v 0.1620 0.8900 -0.8440
v 0.1620 0.4100 -0.8440
v 0.1620 0.4100 -0.8260
v 1.1020 0.4100 -0.8440
v 1.1380 0.4100 -0.8440
v 1.1380 0.4100 -0.8260
v 1.1020 0.4100 -0.8260
v 1.1020 0.8900 -0.8260
v 1.1380 0.8900 -0.8260
v 1.1380 0.8900 -0.8440
v 1.1020 0.8900 -0.8440
v 1.1020 0.8900 -0.8440
v 1.1380 0.8900 -0.8440
v 1.1380 0.4100 -0.8440
v 1.1020 0.4100 -0.8440
v 1.1380 0.8900 -0.8440
v 1.1380 0.8900 -0.8260
v 1.1380 0.4100 -0.8260
v 1.1380 0.4100 -0.8440
v 1.1380 0.8900 -0.8260
v 1.1020 0.8900 -0.8260
v 1.1020 0.4100 -0.8260
v 1.1380 0.4100 -0.8260
v 1.1020 0.8900 -0.8260
v 1.1020 0.8900 -0.8440
v 1.1020 0.4100 -0.8440
v 1.1020 0.4100 -0.8260
v -0.6400 0.7000 -0.8600
v -0.3800 0.7000 -0.8600
v -0.3800 0.7000 -0.8100
v -0.6400 0.7000 -0.8100
v -0.6400 0.7400 -0.8100
v -0.3800 0.7400 -0.8100
v -0.3800 0.7400 -0.8600
v -0.6400 0.7400 -0.8600
v -0.6400 0.7400 -0.8600
v -0.3800 0.7400 -0.8600
v -0.3800 0.7000 -0.8600
v -0.6400 0.7000 -0.8600
v -0.3800 0.7400 -0.8600
v -0.3800 0.7400 -0.8100
v -0.3800 0.7000 -0.8100
v -0.3800 0.7000 -0.8600
v -0.3800 0.7400 -0.8100
v -0.6400 0.7400 -0.8100
v -0.6400 0.7000 -0.8100
v -0.3800 0.7000 -0.8100
v -0.6400 0.7400 -0.8100
v -0.6400 0.7400 -0.8600
v -0.6400 0.7000 -0.8600
v -0.6400 0.7000 -0.8100
v 0.4600 0.7000 -0.8600
v 0.7200 0.7000 -0.8600
v 0.7200 0.7000 -0.8100
v 0.4600 0.7000 -0.8100
v 0.4600 0.7400 -0.8100
v 0.7200 0.7400 -0.8100
v 0.7200 0.7400 -0.8600
v 0.4600 0.7400 -0.8600
v 0.4600 0.7400 -0.8600
v 0.7200 0.7400 -0.8600
v 0.7200 0.7000 -0.8600
v 0.4600 0.7000 -0.8600
v 0.7200 0.7400 -0.8600
v 0.7200 0.7400 -0.8100
v 0.7200 0.7000 -0.8100
v 0.7200 0.7000 -0.8600
v 0.7200 0.7400 -0.8100
v 0.4600 0.7400 -0.8100
v 0.4600 0.7000 -0.8100
v 0.7200 0.7000 -0.8100
v 0.4600 0.7400 -0.8100
v 0.4600 0.7400 -0.8600
v 0.4600 0.7000 -0.8600
v 0.4600 0.7000 -0.8100
v -0.9580 0.4100 0.8260
v -0.9220 0.4100 0.8260
v -0.9220 0.4100 0.8440
v -0.9580 0.4100 0.8440
v -0.9580 0.8900 0.8440
v -0.9220 0.8900 0.8440
v -0.9220 0.8900 0.8260
v -0.9580 0.8900 0.8260
v -0.9580 0.8900 0.8260
v -0.9220 0.8900 0.8260
v -0.9220 0.4100 0.8260
v -0.9580 0.4100 0.8260
v -0.9220 0.8900 0.8260
v -0.9220 0.8900 0.8440
v -0.9220 0.4100 0.8440
v -0.9220 0.4100 0.8260
v -0.9220 0.8900 0.8440
v -0.9580 0.8900 0.8440
v -0.9580 0.4100 0.8440
v -0.9220 0.4100 0.8440
v -0.9580 0.8900 0.8440
v -0.9580 0.8900 0.8260
v -0.9580 0.4100 0.8260
v -0.9580 0.4100 0.8440
v 0.1620 0.4100 0.8260
v 0.1980 0.4100 0.8260
v 0.1980 0.4100 0.8440
v 0.1620 0.4100 0.8440
v 0.1620 0.8900 0.8440
v 0.1980 0.8900 0.8440
v 0.1980 0.8900 0.8260
v 0.1620 0.8900 0.8260
v 0.1620 0.8900 0.8260
v 0.1980 0.8900 0.8260
v 0.1980 0.4100 0.8260
v 0.1620 0.4100 0.8260
v 0.1980 0.8900 0.8260
v 0.1980 0.8900 0.8440
v 0.1980 0.4100 0.8440
v 0.1980 0.4100 0.8260
v 0.1980 0.8900 0.8440
v 0.1620 0.8900 0.8440
v 0.1620 0.4100 0.8440
v 0.1980 0.4100 0.8440
v 0.1620 0.8900 0.8440
v 0.1620 0.8900 0.8260
v 0.1620 0.4100 0.8260
v 0.1620 0.4100 0.8440
v 1.1020 0.4100 0.8260
v 1.1380 0.4100 0.8260
v 1.1380 0.4100 0.8440
v 1.1020 0.4100 0.8440
v 1.1020 0.8900 0.8440
v 1.1380 0.8900 0.8440
v 1.1380 0.8900 0.8260
v 1.1020 0.8900 0.8260
v 1.1020 0.8900 0.8260
v 1.1380 0.8900 0.8260
v 1.1380 0.4100 0.8260
v 1.1020 0.4100 0.8260
v 1.1380 0.8900 0.8260
v 1.1380 0.8900 0.8440
v 1.1380 0.4100 0.8440
v 1.1380 0.4100 0.8260
v 1.1380 0.8900 0.8440
v 1.1020 0.8900 0.8440
v 1.1020 0.4100 0.8440
v 1.1380 0.4100 0.8440
v 1.1020 0.8900 0.8440
v 1.1020 0.8900 0.8260
v 1.1020 0.4100 0.8260
v 1.1020 0.4100 0.8440
v -0.6400 0.7000 0.8100
v -0.3800 0.7000 0.8100
v -0.3800 0.7000 0.8600
v -0.6400 0.7000 0.8600
v -0.6400 0.7400 0.8600
v -0.3800 0.7400 0.8600
v -0.3800 0.7400 0.8100
v -0.6400 0.7400 0.8100
v -0.6400 0.7400 0.8100
v -0.3800 0.7400 0.8100
v -0.3800 0.7000 0.8100
v -0.6400 0.7000 0.8100
v -0.3800 0.7400 0.8100
v -0.3800 0.7400 0.8600
v -0.3800 0.7000 0.8600
v -0.3800 0.7000 0.8100
v -0.3800 0.7400 0.8600
v -0.6400 0.7400 0.8600
v -0.6400 0.7000 0.8600
v -0.3800 0.7000 0.8600
v -0.6400 0.7400 0.8600
v -0.6400 0.7400 0.8100
v -0.6400 0.7000 0.8100
v -0.6400 0.7000 0.8600
v 0.4600 0.7000 0.8100
v 0.7200 0.7000 0.8100
v 0.7200 0.7000 0.8600
v 0.4600 0.7000 0.8600
v 0.4600 0.7400 0.8600
v 0.7200 0.7400 0.8600
v 0.7200 0.7400 0.8100
v 0.4600 0.7400 0.8100
v 0.4600 0.7400 0.8100
v 0.7200 0.7400 0.8100
v 0.7200 0.7000 0.8100
v 0.4600 0.7000 0.8100
v 0.7200 0.7400 0.8100
v 0.7200 0.7400 0.8600
v 0.7200 0.7000 0.8600
v 0.7200 0.7000 0.8100
v 0.7200 0.7400 0.8600
v 0.4600 0.7400 0.8600
v 0.4600 0.7000 0.8600
v 0.7200 0.7000 0.8600
v 0.4600 0.7400 0.8600
v 0.4600 0.7400 0.8100
v 0.4600 0.7000 0.8100
v 0.4600 0.7000 0.8600
v -0.6900 1.5900 -0.6540
v 0.4400 1.5900 -0.6540
v 0.8300 0.9600 -0.7480
v -1.1100 0.9600 -0.7480
v -0.0800 0.9700 -0.7620
v -0.0350 0.9700 -0.7620
v -0.0350 0.9700 -0.7380
v -0.0800 0.9700 -0.7380
v -0.0800 1.6000 -0.7380
v -0.0350 1.6000 -0.7380
v -0.0350 1.6000 -0.7620
v -0.0800 1.6000 -0.7620
v -0.0800 1.6000 -0.7620
v -0.0350 1.6000 -0.7620
v -0.0350 0.9700 -0.7620
v -0.0800 0.9700 -0.7620
v -0.0350 1.6000 -0.7620
v -0.0350 1.6000 -0.7380
v -0.0350 0.9700 -0.7380
v -0.0350 0.9700 -0.7620
v -0.0350 1.6000 -0.7380
v -0.0800 1.6000 -0.7380
v -0.0800 0.9700 -0.7380
v -0.0350 0.9700 -0.7380
v -0.0800 1.6000 -0.7380
v -0.0800 1.6000 -0.7620
v -0.0800 0.9700 -0.7620
v -0.0800 0.9700 -0.7380
v -1.1100 0.9600 0.7480
v 0.8300 0.9600 0.7480
v 0.4400 1.5900 0.6540
v -0.6900 1.5900 0.6540
v -0.0800 0.9700 0.7380
v -0.0350 0.9700 0.7380
v -0.0350 0.9700 0.7620
v -0.0800 0.9700 0.7620
v -0.0800 1.6000 0.7620
v -0.0350 1.6000 0.7620
v -0.0350 1.6000 0.7380
v -0.0800 1.6000 0.7380
v -0.0800 1.6000 0.7380
v -0.0350 1.6000 0.7380
v -0.0350 0.9700 0.7380
v -0.0800 0.9700 0.7380
v -0.0350 1.6000 0.7380
v -0.0350 1.6000 0.7620
v -0.0350 0.9700 0.7620
v -0.0350 0.9700 0.7380
v -0.0350 1.6000 0.7620
v -0.0800 1.6000 0.7620
v -0.0800 0.9700 0.7620
v -0.0350 0.9700 0.7620
v -0.0800 1.6000 0.7620
v -0.0800 1.6000 0.7380
v -0.0800 0.9700 0.7380
v -0.0800 0.9700 0.7620
v 0.4800 1.5900 -0.6200
v 0.4800 1.5900 0.6200
v 0.9100 0.9600 0.7200
v 0.9100 0.9600 -0.7200
v -0.7300 1.5900 0.6200
v -0.7300 1.5900 -0.6200
v -1.1400 0.9600 -0.7200
v -1.1400 0.9600 0.7200
v -1.0600 0.3800 -1.0400
v -1.1654 0.6346 -1.0400
v -1.1654 0.6346 -0.7800
v -1.0600 0.3800 -0.7800
v -1.4200 0.3800 -1.0450
v -1.2786 0.5214 -1.0450
v -1.2200 0.3800 -1.0450
v -1.1654 0.6346 -1.0400
v -1.4200 0.7400 -1.0400
v -1.4200 0.7400 -0.7800
v -1.1654 0.6346 -0.7800
v -1.4200 0.3800 -1.0450
v -1.4200 0.5800 -1.0450
v -1.2786 0.5214 -1.0450
v -1.4200 0.7400 -1.0400
v -1.6746 0.6346 -1.0400
v -1.6746 0.6346 -0.7800
v -1.4200 0.7400 -0.7800
v -1.4200 0.3800 -1.0450
v -1.5614 0.5214 -1.0450
v -1.4200 0.5800 -1.0450
v -1.6746 0.6346 -1.0400
v -1.7800 0.3800 -1.0400
v -1.7800 0.3800 -0.7800
v -1.6746 0.6346 -0.7800
v -1.4200 0.3800 -1.0450
v -1.6200 0.3800 -1.0450
v -1.5614 0.5214 -1.0450
v -1.7800 0.3800 -1.0400
v -1.6746 0.1254 -1.0400
v -1.6746 0.1254 -0.7800
v -1.7800 0.3800 -0.7800
v -1.4200 0.3800 -1.0450
v -1.5614 0.2386 -1.0450
v -1.6200 0.3800 -1.0450
v -1.6746 0.1254 -1.0400
v -1.4200 0.0200 -1.0400
v -1.4200 0.0200 -0.7800
v -1.6746 0.1254 -0.7800
v -1.4200 0.3800 -1.0450
v -1.4200 0.1800 -1.0450
v -1.5614 0.2386 -1.0450
v -1.4200 0.0200 -1.0400
v -1.1654 0.1254 -1.0400
v -1.1654 0.1254 -0.7800
v -1.4200 0.0200 -0.7800
v -1.4200 0.3800 -1.0450
v -1.2786 0.2386 -1.0450
v -1.4200 0.1800 -1.0450
v -1.1654 0.1254 -1.0400
v -1.0600 0.3800 -1.0400
v -1.0600 0.3800 -0.7800
v -1.1654 0.1254 -0.7800
v -1.4200 0.3800 -1.0450
v -1.2200 0.3800 -1.0450
v -1.2786 0.2386 -1.0450
v -1.0600 0.3800 0.7800
v -1.1654 0.6346 0.7800
v -1.1654 0.6346 1.0400
v -1.0600 0.3800 1.0400
v -1.2200 0.3800 1.0450
v -1.2786 0.5214 1.0450
v -1.4200 0.3800 1.0450
v -1.1654 0.6346 0.7800
v -1.4200 0.7400 0.7800
v -1.4200 0.7400 1.0400
v -1.1654 0.6346 1.0400
v -1.2786 0.5214 1.0450
v -1.4200 0.5800 1.0450
v -1.4200 0.3800 1.0450
v -1.4200 0.7400 0.7800
v -1.6746 0.6346 0.7800
v -1.6746 0.6346 1.0400
v -1.4200 0.7400 1.0400
v -1.4200 0.5800 1.0450
v -1.5614 0.5214 1.0450
v -1.4200 0.3800 1.0450
v -1.6746 0.6346 0.7800
v -1.7800 0.3800 0.7800
v -1.7800 0.3800 1.0400
v -1.6746 0.6346 1.0400
v -1.5614 0.5214 1.0450
v -1.6200 0.3800 1.0450
v -1.4200 0.3800 1.0450
v -1.7800 0.3800 0.7800
v -1.6746 0.1254 0.7800
v -1.6746 0.1254 1.0400
v -1.7800 0.3800 1.0400
v -1.6200 0.3800 1.0450
v -1.5614 0.2386 1.0450
v -1.4200 0.3800 1.0450
v -1.6746 0.1254 0.7800
v -1.4200 0.0200 0.7800
v -1.4200 0.0200 1.0400
v -1.6746 0.1254 1.0400
v -1.5614 0.2386 1.0450
v -1.4200 0.1800 1.0450
v -1.4200 0.3800 1.0450
v -1.4200 0.0200 0.7800
v -1.1654 0.1254 0.7800
v -1.1654 0.1254 1.0400
v -1.4200 0.0200 1.0400
v -1.4200 0.1800 1.0450
v -1.2786 0.2386 1.0450
v -1.4200 0.3800 1.0450
v -1.1654 0.1254 0.7800
v -1.0600 0.3800 0.7800
v -1.0600 0.3800 1.0400
v -1.1654 0.1254 1.0400
v -1.2786 0.2386 1.0450
v -1.2200 0.3800 1.0450
v -1.4200 0.3800 1.0450
v 1.7800 0.3800 -1.0400
v 1.6746 0.6346 -1.0400
v 1.6746 0.6346 -0.7800
v 1.7800 0.3800 -0.7800
v 1.4200 0.3800 -1.0450
v 1.5614 0.5214 -1.0450
v 1.6200 0.3800 -1.0450
v 1.6746 0.6346 -1.0400
v 1.4200 0.7400 -1.0400
v 1.4200 0.7400 -0.7800
v 1.6746 0.6346 -0.7800
v 1.4200 0.3800 -1.0450
v 1.4200 0.5800 -1.0450
v 1.5614 0.5214 -1.0450
v 1.4200 0.7400 -1.0400
v 1.1654 0.6346 -1.0400
v 1.1654 0.6346 -0.7800
v 1.4200 0.7400 -0.7800
v 1.4200 0.3800 -1.0450
v 1.2786 0.5214 -1.0450
v 1.4200 0.5800 -1.0450
v 1.1654 0.6346 -1.0400
v 1.0600 0.3800 -1.0400
v 1.0600 0.3800 -0.7800
v 1.1654 0.6346 -0.7800
v 1.4200 0.3800 -1.0450
v 1.2200 0.3800 -1.0450
v 1.2786 0.5214 -1.0450
v 1.0600 0.3800 -1.0400
v 1.1654 0.1254 -1.0400
v 1.1654 0.1254 -0.7800
v 1.0600 0.3800 -0.7800
v 1.4200 0.3800 -1.0450
v 1.2786 0.2386 -1.0450
v 1.2200 0.3800 -1.0450
v 1.1654 0.1254 -1.0400
v 1.4200 0.0200 -1.0400
v 1.4200 0.0200 -0.7800
v 1.1654 0.1254 -0.7800
v 1.4200 0.3800 -1.0450
v 1.4200 0.1800 -1.0450
v 1.2786 0.2386 -1.0450
v 1.4200 0.0200 -1.0400
v 1.6746 0.1254 -1.0400
v 1.6746 0.1254 -0.7800
v 1.4200 0.0200 -0.7800
v 1.4200 0.3800 -1.0450
v 1.5614 0.2386 -1.0450
v 1.4200 0.1800 -1.0450
v 1.6746 0.1254 -1.0400
v 1.7800 0.3800 -1.0400
v 1.7800 0.3800 -0.7800
v 1.6746 0.1254 -0.7800
v 1.4200 0.3800 -1.0450
v 1.6200 0.3800 -1.0450
v 1.5614 0.2386 -1.0450
v 1.7800 0.3800 0.7800
v 1.6746 0.6346 0.7800
v 1.6746 0.6346 1.0400
v 1.7800 0.3800 1.0400
v 1.6200 0.3800 1.0450
v 1.5614 0.5214 1.0450
v 1.4200 0.3800 1.0450
v 1.6746 0.6346 0.7800
v 1.4200 0.7400 0.7800
v 1.4200 0.7400 1.0400
v 1.6746 0.6346 1.0400
v 1.5614 0.5214 1.0450
v 1.4200 0.5800 1.0450
v 1.4200 0.3800 1.0450
v 1.4200 0.7400 0.7800
v 1.1654 0.6346 0.7800
v 1.1654 0.6346 1.0400
v 1.4200 0.7400 1.0400
v 1.4200 0.5800 1.0450
v 1.2786 0.5214 1.0450
v 1.4200 0.3800 1.0450
v 1.1654 0.6346 0.7800
v 1.0600 0.3800 0.7800
v 1.0600 0.3800 1.0400
v 1.1654 0.6346 1.0400
v 1.2786 0.5214 1.0450
v 1.2200 0.3800 1.0450
v 1.4200 0.3800 1.0450
v 1.0600 0.3800 0.7800
v 1.1654 0.1254 0.7800
v 1.1654 0.1254 1.0400
v 1.0600 0.3800 1.0400
v 1.2200 0.3800 1.0450
v 1.2786 0.2386 1.0450
v 1.4200 0.3800 1.0450
v 1.1654 0.1254 0.7800
v 1.4200 0.0200 0.7800
v 1.4200 0.0200 1.0400
v 1.1654 0.1254 1.0400
v 1.2786 0.2386 1.0450
v 1.4200 0.1800 1.0450
v 1.4200 0.3800 1.0450
v 1.4200 0.0200 0.7800
v 1.6746 0.1254 0.7800
v 1.6746 0.1254 1.0400
v 1.4200 0.0200 1.0400
v 1.4200 0.1800 1.0450
v 1.5614 0.2386 1.0450
v 1.4200 0.3800 1.0450
v 1.6746 0.1254 0.7800
v 1.7800 0.3800 0.7800
v 1.7800 0.3800 1.0400
v 1.6746 0.1254 1.0400
v 1.5614 0.2386 1.0450
v 1.6200 0.3800 1.0450
v 1.4200 0.3800 1.0450
v -2.1800 0.5000 -0.9000
v -2.0500 0.5000 -0.9000
v -2.0500 0.5000 0.9000
v -2.1800 0.5000 0.9000
v -2.1800 0.6600 0.9000
v -2.0500 0.6600 0.9000
v -2.0500 0.6600 -0.9000
v -2.1800 0.6600 -0.9000
v -2.1800 0.6600 -0.9000
v -2.0500 0.6600 -0.9000
v -2.0500 0.5000 -0.9000
v -2.1800 0.5000 -0.9000
v -2.0500 0.6600 -0.9000
v -2.0500 0.6600 0.9000
v -2.0500 0.5000 0.9000
v -2.0500 0.5000 -0.9000
v -2.0500 0.6600 0.9000
v -2.1800 0.6600 0.9000
v -2.1800 0.5000 0.9000
v -2.0500 0.5000 0.9000
v -2.1800 0.6600 0.9000
v -2.1800 0.6600 -0.9000
v -2.1800 0.5000 -0.9000
v -2.1800 0.5000 0.9000
v 2.0500 0.5000 -0.9000
v 2.1800 0.5000 -0.9000
v 2.1800 0.5000 0.9000
v 2.0500 0.5000 0.9000
v 2.0500 0.6600 0.9000
v 2.1800 0.6600 0.9000
v 2.1800 0.6600 -0.9000
v 2.0500 0.6600 -0.9000
v 2.0500 0.6600 -0.9000
v 2.1800 0.6600 -0.9000
v 2.1800 0.5000 -0.9000
v 2.0500 0.5000 -0.9000
v 2.1800 0.6600 -0.9000
v 2.1800 0.6600 0.9000
v 2.1800 0.5000 0.9000
v 2.1800 0.5000 -0.9000
v 2.1800 0.6600 0.9000
v 2.0500 0.6600 0.9000
v 2.0500 0.5000 0.9000
v 2.1800 0.5000 0.9000
v 2.0500 0.6600 0.9000
v 2.0500 0.6600 -0.9000
v 2.0500 0.5000 -0.9000
v 2.0500 0.5000 0.9000
v 2.1000 0.6700 -0.8200
v 2.1400 0.6700 -0.8200
v 2.1400 0.6700 -0.4200
v 2.1000 0.6700 -0.4200
v 2.1000 0.8400 -0.4200
v 2.1400 0.8400 -0.4200
v 2.1400 0.8400 -0.8200
v 2.1000 0.8400 -0.8200
v 2.1000 0.8400 -0.8200
v 2.1400 0.8400 -0.8200
v 2.1400 0.6700 -0.8200
v 2.1000 0.6700 -0.8200
v 2.1400 0.8400 -0.8200
v 2.1400 0.8400 -0.4200
v 2.1400 0.6700 -0.4200
v 2.1400 0.6700 -0.8200
v 2.1400 0.8400 -0.4200
v 2.1000 0.8400 -0.4200
v 2.1000 0.6700 -0.4200
v 2.1400 0.6700 -0.4200
v 2.1000 0.8400 -0.4200
v 2.1000 0.8400 -0.8200
v 2.1000 0.6700 -0.8200
v 2.1000 0.6700 -0.4200
v -2.1400 0.6700 -0.8200
v -2.1000 0.6700 -0.8200
v -2.1000 0.6700 -0.4200
v -2.1400 0.6700 -0.4200
v -2.1400 0.8400 -0.4200
v -2.1000 0.8400 -0.4200
v -2.1000 0.8400 -0.8200
v -2.1400 0.8400 -0.8200
v -2.1400 0.8400 -0.8200
v -2.1000 0.8400 -0.8200
v -2.1000 0.6700 -0.8200
v -2.1400 0.6700 -0.8200
v -2.1000 0.8400 -0.8200
v -2.1000 0.8400 -0.4200
v -2.1000 0.6700 -0.4200
v -2.1000 0.6700 -0.8200
v -2.1000 0.8400 -0.4200
v -2.1400 0.8400 -0.4200
v -2.1400 0.6700 -0.4200
v -2.1000 0.6700 -0.4200
v -2.1400 0.8400 -0.4200
v -2.1400 0.8400 -0.8200
v -2.1400 0.6700 -0.8200
v -2.1400 0.6700 -0.4200
v 2.1000 0.6700 0.4200
v 2.1400 0.6700 0.4200
v 2.1400 0.6700 0.8200
v 2.1000 0.6700 0.8200
v 2.1000 0.8400 0.8200
v 2.1400 0.8400 0.8200
v 2.1400 0.8400 0.4200
v 2.1000 0.8400 0.4200
v 2.1000 0.8400 0.4200
v 2.1400 0.8400 0.4200
v 2.1400 0.6700 0.4200
v 2.1000 0.6700 0.4200
v 2.1400 0.8400 0.4200
v 2.1400 0.8400 0.8200
v 2.1400 0.6700 0.8200
v 2.1400 0.6700 0.4200
v 2.1400 0.8400 0.8200
v 2.1000 0.8400 0.8200
v 2.1000 0.6700 0.8200
v 2.1400 0.6700 0.8200
v 2.1000 0.8400 0.8200
v 2.1000 0.8400 0.4200
v 2.1000 0.6700 0.4200
v 2.1000 0.6700 0.8200
v -2.1400 0.6700 0.4200
v -2.1000 0.6700 0.4200
v -2.1000 0.6700 0.8200
v -2.1400 0.6700 0.8200
v -2.1400 0.8400 0.8200
v -2.1000 0.8400 0.8200
v -2.1000 0.8400 0.4200
v -2.1400 0.8400 0.4200
v -2.1400 0.8400 0.4200
v -2.1000 0.8400 0.4200
v -2.1000 0.6700 0.4200
v -2.1400 0.6700 0.4200
v -2.1000 0.8400 0.4200
v -2.1000 0.8400 0.8200
v -2.1000 0.6700 0.8200
v -2.1000 0.6700 0.4200
v -2.1000 0.8400 0.8200
v -2.1400 0.8400 0.8200
v -2.1400 0.6700 0.8200
v -2.1000 0.6700 0.8200
v -2.1400 0.8400 0.8200
v -2.1400 0.8400 0.4200
v -2.1400 0.6700 0.4200
v -2.1400 0.6700 0.8200
usemtl glass
f 241 242 243
f 241 243 244
f 269 270 271
f 269 271 272
f 297 298 299
f 297 299 300
f 301 302 303
f 301 303 304
usemtl lamp
f 577 578 579
f 577 579 580
f 581 582 583
f 581 583 584
f 585 586 587
f 585 587 588
f 589 590 591
f 589 591 592
f 593 594 595
f 593 595 596
f 597 598 599
f 597 599 600
f 625 626 627
f 625 627 628
f 629 630 631
f 629 631 632
f 633 634 635
f 633 635 636
f 637 638 639
f 637 639 640
f 641 642 643
f 641 643 644
f 645 646 647
f 645 647 648
usemtl metal
f 73 74 75
f 73 75 76
f 77 78 79
f 77 79 80
f 81 82 83
f 81 83 84
f 85 86 87
f 85 87 88
f 89 90 91
f 89 91 92
f 93 94 95
f 93 95 96
f 97 98 99
f 97 99 100
f 101 102 103
f 101 103 104
f 105 106 107
f 105 107 108
f 109 110 111
f 109 111 112
f 113 114 115
f 113 115 116
f 117 118 119
f 117 119 120
f 193 194 195
f 193 195 196
f 197 198 199
f 197 199 200
f 201 202 203
f 201 203 204
f 205 206 207
f 205 207 208
f 209 210 211
f 209 211 212
f 213 214 215
f 213 215 216
f 217 218 219
f 217 219 220
f 221 222 223
f 221 223 224
f 225 226 227
f 225 227 228
f 229 230 231
f 229 231 232
f 233 234 235
f 233 235 236
f 237 238 239
f 237 239 240
f 245 246 247
f 245 247 248
f 249 250 251
f 249 251 252
f 253 254 255
f 253 255 256
f 257 258 259
f 257 259 260
f 261 262 263
f 261 263 264
f 265 266 267
f 265 267 268
f 273 274 275
f 273 275 276
f 277 278 279
f 277 279 280
f 281 282 283
f 281 283 284
f 285 286 287
f 285 287 288
f 289 290 291
f 289 291 292
f 293 294 295
f 293 295 296
f 309 310 311
f 316 317 318
f 323 324 325
f 330 331 332
f 337 338 339
f 344 345 346
f 351 352 353
f 358 359 360
f 365 366 367
f 372 373 374
f 379 380 381
f 386 387 388
f 393 394 395
f 400 401 402
f 407 408 409
f 414 415 416
f 421 422 423
f 428 429 430
f 435 436 437
f 442 443 444
f 449 450 451
f 456 457 458
f 463 464 465
f 470 471 472
f 477 478 479
f 484 485 486
f 491 492 493
f 498 499 500
f 505 506 507
f 512 513 514
f 519 520 521
f 526 527 528
f 529 530 531
f 529 531 532
f 533 534 535
f 533 535 536
f 537 538 539
f 537 539 540
f 541 542 543
f 541 543 544
f 545 546 547
f 545 547 548
f 549 550 551
f 549 551 552
f 553 554 555
f 553 555 556
f 557 558 559
f 557 559 560
f 561 562 563
f 561 563 564
f 565 566 567
f 565 567 568
f 569 570 571
f 569 571 572
f 573 574 575
f 573 575 576
usemtl rubber
f 305 306 307
f 305 307 308
f 312 313 314
f 312 314 315
f 319 320 321
f 319 321 322
f 326 327 328
f 326 328 329
f 333 334 335
f 333 335 336
f 340 341 342
f 340 342 343
f 347 348 349
f 347 349 350
f 354 355 356
f 354 356 357
f 361 362 363
f 361 363 364
f 368 369 370
f 368 370 371
f 375 376 377
f 375 377 378
f 382 383 384
f 382 384 385
f 389 390 391
f 389 391 392
f 396 397 398
f 396 398 399
f 403 404 405
f 403 405 406
f 410 411 412
f 410 412 413
f 417 418 419
f 417 419 420
f 424 425 426
f 424 426 427
f 431 432 433
f 431 433 434
f 438 439 440
f 438 440 441
f 445 446 447
f 445 447 448
f 452 453 454
f 452 454 455
f 459 460 461
f 459 461 462
f 466 467 468
f 466 468 469
f 473 474 475
f 473 475 476
f 480 481 482
f 480 482 483
f 487 488 489
f 487 489 490
f 494 495 496
f 494 496 497
f 501 502 503
f 501 503 504
f 508 509 510
f 508 510 511
f 515 516 517
f 515 517 518
f 522 523 524
f 522 524 525
usemtl seam
f 1 2 3
f 1 3 4
f 5 6 7
f 5 7 8
f 9 10 11
f 9 11 12
f 13 14 15
f 13 15 16
f 17 18 19
f 17 19 20
f 21 22 23
f 21 23 24
f 25 26 27
f 25 27 28
f 29 30 31
f 29 31 32
f 33 34 35
f 33 35 36
f 37 38 39
f 37 39 40
f 41 42 43
f 41 43 44
f 45 46 47
f 45 47 48
f 49 50 51
f 49 51 52
f 53 54 55
f 53 55 56
f 57 58 59
f 57 59 60
f 61 62 63
f 61 63 64
f 65 66 67
f 65 67 68
f 69 70 71
f 69 71 72
f 121 122 123
f 121 123 124
f 125 126 127
f 125 127 128
f 129 130 131
f 129 131 132
f 133 134 135
f 133 135 136
f 137 138 139
f 137 139 140
f 141 142 143
f 141 143 144
f 145 146 147
f 145 147 148
f 149 150 151
f 149 151 152
f 153 154 155
f 153 155 156
f 157 158 159
f 157 159 160
f 161 162 163
f 161 163 164
f 165 166 167
f 165 167 168
f 169 170 171
f 169 171 172
f 173 174 175
f 173 175 176
f 177 178 179
f 177 179 180
f 181 182 183
f 181 183 184
f 185 186 187
f 185 187 188
f 189 190 191
f 189 191 192
usemtl tail
f 601 602 603
f 601 603 604
f 605 606 607
f 605 607 608
f 609 610 611
f 609 611 612
f 613 614 615
f 613 615 616
f 617 618 619
f 617 619 620
f 621 622 623
f 621 623 624
f 649 650 651
f 649 651 652
f 653 654 655
f 653 655 656
f 657 658 659
f 657 659 660
f 661 662 663
f 661 663 664
f 665 666 667
f 665 667 668
f 669 670 671
f 669 671 672
