mtllib furniture.mtl
usemtl painted
v -1.400000 0.120000 0.400000
v 1.400000 0.120000 -0.400000
v 1.400000 0.120000 0.400000
v -1.400000 0.120000 -0.400000
v -1.400000 0.000000 0.400000
v 1.400000 0.000000 -0.400000
v 1.400000 0.000000 0.400000
v -1.400000 0.000000 -0.400000
v 1.400000 0.120000 0.400000
v -1.400000 0.120000 -0.400000
v 1.400000 0.120000 -0.400000
v -1.400000 0.120000 0.400000
v 1.400000 0.000000 0.400000
v -1.400000 0.000000 -0.400000
v 1.400000 0.000000 -0.400000
v -1.400000 0.000000 0.400000
v 1.400000 0.120000 0.400000
v -1.400000 0.000000 0.400000
v -1.400000 0.120000 0.400000
v 1.400000 0.000000 0.400000
v 1.400000 0.120000 -0.400000
v -1.400000 0.000000 -0.400000
v -1.400000 0.120000 -0.400000
v 1.400000 0.000000 -0.400000
v -1.360000 0.460000 0.360000
v 1.360000 0.460000 -0.360000
v 1.360000 0.460000 0.360000
v -1.360000 0.460000 -0.360000
v -1.360000 0.120000 0.360000
v 1.360000 0.120000 -0.360000
v 1.360000 0.120000 0.360000
v -1.360000 0.120000 -0.360000
v 1.360000 0.460000 0.360000
v -1.360000 0.460000 -0.360000
v 1.360000 0.460000 -0.360000
v -1.360000 0.460000 0.360000
v 1.360000 0.120000 0.360000
v -1.360000 0.120000 -0.360000
v 1.360000 0.120000 -0.360000
v -1.360000 0.120000 0.360000
v 1.360000 0.460000 0.360000
v -1.360000 0.120000 0.360000
v -1.360000 0.460000 0.360000
v 1.360000 0.120000 0.360000
v 1.360000 0.460000 -0.360000
v -1.360000 0.120000 -0.360000
v -1.360000 0.460000 -0.360000
v 1.360000 0.120000 -0.360000
v -1.360000 0.500000 0.360000
v 1.360000 0.500000 -0.360000
v 1.360000 0.500000 0.360000
v -1.360000 0.500000 -0.360000
v -1.360000 0.460000 0.360000
v 1.360000 0.460000 -0.360000
v 1.360000 0.460000 0.360000
v -1.360000 0.460000 -0.360000
v 1.360000 0.500000 0.360000
v -1.360000 0.500000 -0.360000
v 1.360000 0.500000 -0.360000
v -1.360000 0.500000 0.360000
v 1.360000 0.460000 0.360000
v -1.360000 0.460000 -0.360000
v 1.360000 0.460000 -0.360000
v -1.360000 0.460000 0.360000
v 1.360000 0.500000 0.360000
v -1.360000 0.460000 0.360000
v -1.360000 0.500000 0.360000
v 1.360000 0.460000 0.360000
v 1.360000 0.500000 -0.360000
v -1.360000 0.460000 -0.360000
v -1.360000 0.500000 -0.360000
v 1.360000 0.460000 -0.360000
v -1.400000 1.130000 -0.340000
v -1.340000 1.130000 -0.400000
v -1.340000 1.130000 -0.340000
v -1.400000 1.130000 -0.400000
v -1.400000 0.500000 -0.340000
v -1.340000 0.500000 -0.400000
v -1.340000 0.500000 -0.340000
v -1.400000 0.500000 -0.400000
v -1.340000 1.130000 -0.340000
v -1.400000 1.130000 -0.400000
v -1.340000 1.130000 -0.400000
v -1.400000 1.130000 -0.340000
v -1.340000 0.500000 -0.340000
v -1.400000 0.500000 -0.400000
v -1.340000 0.500000 -0.400000
v -1.400000 0.500000 -0.340000
v -1.340000 1.130000 -0.340000
v -1.400000 0.500000 -0.340000
v -1.400000 1.130000 -0.340000
v -1.340000 0.500000 -0.340000
v -1.340000 1.130000 -0.400000
v -1.400000 0.500000 -0.400000
v -1.400000 1.130000 -0.400000
v -1.340000 0.500000 -0.400000
v -1.400000 1.130000 0.400000
v -1.340000 1.130000 0.340000
v -1.340000 1.130000 0.400000
v -1.400000 1.130000 0.340000
v -1.400000 0.500000 0.400000
v -1.340000 0.500000 0.340000
v -1.340000 0.500000 0.400000
v -1.400000 0.500000 0.340000
v -1.340000 1.130000 0.400000
v -1.400000 1.130000 0.340000
v -1.340000 1.130000 0.340000
v -1.400000 1.130000 0.400000
v -1.340000 0.500000 0.400000
v -1.400000 0.500000 0.340000
v -1.340000 0.500000 0.340000
v -1.400000 0.500000 0.400000
v -1.340000 1.130000 0.400000
v -1.400000 0.500000 0.400000
v -1.400000 1.130000 0.400000
v -1.340000 0.500000 0.400000
v -1.340000 1.130000 0.340000
v -1.400000 0.500000 0.340000
v -1.400000 1.130000 0.340000
v -1.340000 0.500000 0.340000
v 1.340000 1.130000 -0.340000
v 1.400000 1.130000 -0.400000
v 1.400000 1.130000 -0.340000
v 1.340000 1.130000 -0.400000
v 1.340000 0.500000 -0.340000
v 1.400000 0.500000 -0.400000
v 1.400000 0.500000 -0.340000
v 1.340000 0.500000 -0.400000
v 1.400000 1.130000 -0.340000
v 1.340000 1.130000 -0.400000
v 1.400000 1.130000 -0.400000
v 1.340000 1.130000 -0.340000
v 1.400000 0.500000 -0.340000
v 1.340000 0.500000 -0.400000
v 1.400000 0.500000 -0.400000
v 1.340000 0.500000 -0.340000
v 1.400000 1.130000 -0.340000
v 1.340000 0.500000 -0.340000
v 1.340000 1.130000 -0.340000
v 1.400000 0.500000 -0.340000
v 1.400000 1.130000 -0.400000
v 1.340000 0.500000 -0.400000
v 1.340000 1.130000 -0.400000
v 1.400000 0.500000 -0.400000
v 1.340000 1.130000 0.400000
v 1.400000 1.130000 0.340000
v 1.400000 1.130000 0.400000
v 1.340000 1.130000 0.340000
v 1.340000 0.500000 0.400000
v 1.400000 0.500000 0.340000
v 1.400000 0.500000 0.400000
v 1.340000 0.500000 0.340000
v 1.400000 1.130000 0.400000
v 1.340000 1.130000 0.340000
v 1.400000 1.130000 0.340000
v 1.340000 1.130000 0.400000
v 1.400000 0.500000 0.400000
v 1.340000 0.500000 0.340000
v 1.400000 0.500000 0.340000
v 1.340000 0.500000 0.400000
v 1.400000 1.130000 0.400000
v 1.340000 0.500000 0.400000
v 1.340000 1.130000 0.400000
v 1.400000 0.500000 0.400000
v 1.400000 1.130000 0.340000
v 1.340000 0.500000 0.340000
v 1.340000 1.130000 0.340000
v 1.400000 0.500000 0.340000
v -1.340000 1.150000 -0.340000
v 1.340000 1.150000 -0.400000
v 1.340000 1.150000 -0.340000
v -1.340000 1.150000 -0.400000
v -1.340000 1.090000 -0.340000
v 1.340000 1.090000 -0.400000
v 1.340000 1.090000 -0.340000
v -1.340000 1.090000 -0.400000
v 1.340000 1.150000 -0.340000
v -1.340000 1.150000 -0.400000
v 1.340000 1.150000 -0.400000
v -1.340000 1.150000 -0.340000
v 1.340000 1.090000 -0.340000
v -1.340000 1.090000 -0.400000
v 1.340000 1.090000 -0.400000
v -1.340000 1.090000 -0.340000
v 1.340000 1.150000 -0.340000
v -1.340000 1.090000 -0.340000
v -1.340000 1.150000 -0.340000
v 1.340000 1.090000 -0.340000
v 1.340000 1.150000 -0.400000
v -1.340000 1.090000 -0.400000
v -1.340000 1.150000 -0.400000
v 1.340000 1.090000 -0.400000
v -1.340000 1.150000 0.400000
v 1.340000 1.150000 0.340000
v 1.340000 1.150000 0.400000
v -1.340000 1.150000 0.340000
v -1.340000 1.090000 0.400000
v 1.340000 1.090000 0.340000
v 1.340000 1.090000 0.400000
v -1.340000 1.090000 0.340000
v 1.340000 1.150000 0.400000
v -1.340000 1.150000 0.340000
v 1.340000 1.150000 0.340000
v -1.340000 1.150000 0.400000
v 1.340000 1.090000 0.400000
v -1.340000 1.090000 0.340000
v 1.340000 1.090000 0.340000
v -1.340000 1.090000 0.400000
v 1.340000 1.150000 0.400000
v -1.340000 1.090000 0.400000
v -1.340000 1.150000 0.400000
v 1.340000 1.090000 0.400000
v 1.340000 1.150000 0.340000
v -1.340000 1.090000 0.340000
v -1.340000 1.150000 0.340000
v 1.340000 1.090000 0.340000
v -1.400000 1.150000 0.340000
v -1.340000 1.150000 -0.340000
v -1.340000 1.150000 0.340000
v -1.400000 1.150000 -0.340000
v -1.400000 1.090000 0.340000
v -1.340000 1.090000 -0.340000
v -1.340000 1.090000 0.340000
v -1.400000 1.090000 -0.340000
v -1.340000 1.150000 0.340000
v -1.400000 1.150000 -0.340000
v -1.340000 1.150000 -0.340000
v -1.400000 1.150000 0.340000
v -1.340000 1.090000 0.340000
v -1.400000 1.090000 -0.340000
v -1.340000 1.090000 -0.340000
v -1.400000 1.090000 0.340000
v -1.340000 1.150000 0.340000
v -1.400000 1.090000 0.340000
v -1.400000 1.150000 0.340000
v -1.340000 1.090000 0.340000
v -1.340000 1.150000 -0.340000
v -1.400000 1.090000 -0.340000
v -1.400000 1.150000 -0.340000
v -1.340000 1.090000 -0.340000
v 1.340000 1.150000 0.340000
v 1.400000 1.150000 -0.340000
v 1.400000 1.150000 0.340000
v 1.340000 1.150000 -0.340000
v 1.340000 1.090000 0.340000
v 1.400000 1.090000 -0.340000
v 1.400000 1.090000 0.340000
v 1.340000 1.090000 -0.340000
v 1.400000 1.150000 0.340000
v 1.340000 1.150000 -0.340000
v 1.400000 1.150000 -0.340000
v 1.340000 1.150000 0.340000
v 1.400000 1.090000 0.340000
v 1.340000 1.090000 -0.340000
v 1.400000 1.090000 -0.340000
v 1.340000 1.090000 0.340000
v 1.400000 1.150000 0.340000
v 1.340000 1.090000 0.340000
v 1.340000 1.150000 0.340000
v 1.400000 1.090000 0.340000
v 1.400000 1.150000 -0.340000
v 1.340000 1.090000 -0.340000
v 1.340000 1.150000 -0.340000
v 1.400000 1.090000 -0.340000
vt 0.039062 0.960938
vt 0.460938 0.960938
vt 0.460938 0.960938
vt 0.039062 0.960938
vt 0.039062 0.539062
vt 0.460938 0.539062
vt 0.460938 0.539062
vt 0.039062 0.539062
vt 0.460938 0.960938
vt 0.039062 0.960938
vt 0.039062 0.960938
vt 0.460938 0.960938
vt 0.460938 0.539062
vt 0.039062 0.539062
vt 0.039062 0.539062
vt 0.460938 0.539062
vt 0.460938 0.539062
vt 0.039062 0.539062
vt 0.039062 0.539062
vt 0.460938 0.539062
vt 0.460938 0.960938
vt 0.039062 0.960938
vt 0.039062 0.960938
vt 0.460938 0.960938
vt 0.039062 0.960938
vt 0.460938 0.960938
vt 0.460938 0.960938
vt 0.039062 0.960938
vt 0.039062 0.539062
vt 0.460938 0.539062
vt 0.460938 0.539062
vt 0.039062 0.539062
vt 0.460938 0.960938
vt 0.039062 0.960938
vt 0.039062 0.960938
vt 0.460938 0.960938
vt 0.460938 0.539062
vt 0.039062 0.539062
vt 0.039062 0.539062
vt 0.460938 0.539062
vt 0.460938 0.539062
vt 0.039062 0.539062
vt 0.039062 0.539062
vt 0.460938 0.539062
vt 0.460938 0.960938
vt 0.039062 0.960938
vt 0.039062 0.960938
vt 0.460938 0.960938
vt 0.039062 0.460938
vt 0.460938 0.460938
vt 0.460938 0.460938
vt 0.039062 0.460938
vt 0.039062 0.039062
vt 0.460938 0.039062
vt 0.460938 0.039062
vt 0.039062 0.039062
vt 0.460938 0.460938
vt 0.039062 0.460938
vt 0.039062 0.460938
vt 0.460938 0.460938
vt 0.460938 0.039062
vt 0.039062 0.039062
vt 0.039062 0.039062
vt 0.460938 0.039062
vt 0.460938 0.039062
vt 0.039062 0.039062
vt 0.039062 0.039062
vt 0.460938 0.039062
vt 0.460938 0.460938
vt 0.039062 0.460938
vt 0.039062 0.460938
vt 0.460938 0.460938
vt 0.539062 0.460938
vt 0.960938 0.460938
vt 0.960938 0.460938
vt 0.539062 0.460938
vt 0.539062 0.039062
vt 0.960938 0.039062
vt 0.960938 0.039062
vt 0.539062 0.039062
vt 0.960938 0.460938
vt 0.539062 0.460938
vt 0.539062 0.460938
vt 0.960938 0.460938
vt 0.960938 0.039062
vt 0.539062 0.039062
vt 0.539062 0.039062
vt 0.960938 0.039062
vt 0.960938 0.039062
vt 0.539062 0.039062
vt 0.539062 0.039062
vt 0.960938 0.039062
vt 0.960938 0.460938
vt 0.539062 0.460938
vt 0.539062 0.460938
vt 0.960938 0.460938
vt 0.539062 0.460938
vt 0.960938 0.460938
vt 0.960938 0.460938
vt 0.539062 0.460938
vt 0.539062 0.039062
vt 0.960938 0.039062
vt 0.960938 0.039062
vt 0.539062 0.039062
vt 0.960938 0.460938
vt 0.539062 0.460938
vt 0.539062 0.460938
vt 0.960938 0.460938
vt 0.960938 0.039062
vt 0.539062 0.039062
vt 0.539062 0.039062
vt 0.960938 0.039062
vt 0.960938 0.039062
vt 0.539062 0.039062
vt 0.539062 0.039062
vt 0.960938 0.039062
vt 0.960938 0.460938
vt 0.539062 0.460938
vt 0.539062 0.460938
vt 0.960938 0.460938
vt 0.539062 0.460938
vt 0.960938 0.460938
vt 0.960938 0.460938
vt 0.539062 0.460938
vt 0.539062 0.039062
vt 0.960938 0.039062
vt 0.960938 0.039062
vt 0.539062 0.039062
vt 0.960938 0.460938
vt 0.539062 0.460938
vt 0.539062 0.460938
vt 0.960938 0.460938
vt 0.960938 0.039062
vt 0.539062 0.039062
vt 0.539062 0.039062
vt 0.960938 0.039062
vt 0.960938 0.039062
vt 0.539062 0.039062
vt 0.539062 0.039062
vt 0.960938 0.039062
vt 0.960938 0.460938
vt 0.539062 0.460938
vt 0.539062 0.460938
vt 0.960938 0.460938
vt 0.539062 0.460938
vt 0.960938 0.460938
vt 0.960938 0.460938
vt 0.539062 0.460938
vt 0.539062 0.039062
vt 0.960938 0.039062
vt 0.960938 0.039062
vt 0.539062 0.039062
vt 0.960938 0.460938
vt 0.539062 0.460938
vt 0.539062 0.460938
vt 0.960938 0.460938
vt 0.960938 0.039062
vt 0.539062 0.039062
vt 0.539062 0.039062
vt 0.960938 0.039062
vt 0.960938 0.039062
vt 0.539062 0.039062
vt 0.539062 0.039062
vt 0.960938 0.039062
vt 0.960938 0.460938
vt 0.539062 0.460938
vt 0.539062 0.460938
vt 0.960938 0.460938
vt 0.539062 0.460938
vt 0.960938 0.460938
vt 0.960938 0.460938
vt 0.539062 0.460938
vt 0.539062 0.039062
vt 0.960938 0.039062
vt 0.960938 0.039062
vt 0.539062 0.039062
vt 0.960938 0.460938
vt 0.539062 0.460938
vt 0.539062 0.460938
vt 0.960938 0.460938
vt 0.960938 0.039062
vt 0.539062 0.039062
vt 0.539062 0.039062
vt 0.960938 0.039062
vt 0.960938 0.039062
vt 0.539062 0.039062
vt 0.539062 0.039062
vt 0.960938 0.039062
vt 0.960938 0.460938
vt 0.539062 0.460938
vt 0.539062 0.460938
vt 0.960938 0.460938
vt 0.539062 0.460938
vt 0.960938 0.460938
vt 0.960938 0.460938
vt 0.539062 0.460938
vt 0.539062 0.039062
vt 0.960938 0.039062
vt 0.960938 0.039062
vt 0.539062 0.039062
vt 0.960938 0.460938
vt 0.539062 0.460938
vt 0.539062 0.460938
vt 0.960938 0.460938
vt 0.960938 0.039062
vt 0.539062 0.039062
vt 0.539062 0.039062
vt 0.960938 0.039062
vt 0.960938 0.039062
vt 0.539062 0.039062
vt 0.539062 0.039062
vt 0.960938 0.039062
vt 0.960938 0.460938
vt 0.539062 0.460938
vt 0.539062 0.460938
vt 0.960938 0.460938
vt 0.539062 0.460938
vt 0.960938 0.460938
vt 0.960938 0.460938
vt 0.539062 0.460938
vt 0.539062 0.039062
vt 0.960938 0.039062
vt 0.960938 0.039062
vt 0.539062 0.039062
vt 0.960938 0.460938
vt 0.539062 0.460938
vt 0.539062 0.460938
vt 0.960938 0.460938
vt 0.960938 0.039062
vt 0.539062 0.039062
vt 0.539062 0.039062
vt 0.960938 0.039062
vt 0.960938 0.039062
vt 0.539062 0.039062
vt 0.539062 0.039062
vt 0.960938 0.039062
vt 0.960938 0.460938
vt 0.539062 0.460938
vt 0.539062 0.460938
vt 0.960938 0.460938
vt 0.539062 0.460938
vt 0.960938 0.460938
vt 0.960938 0.460938
vt 0.539062 0.460938
vt 0.539062 0.039062
vt 0.960938 0.039062
vt 0.960938 0.039062
vt 0.539062 0.039062
vt 0.960938 0.460938
vt 0.539062 0.460938
vt 0.539062 0.460938
vt 0.960938 0.460938
vt 0.960938 0.039062
vt 0.539062 0.039062
vt 0.539062 0.039062
vt 0.960938 0.039062
vt 0.960938 0.039062
vt 0.539062 0.039062
vt 0.539062 0.039062
vt 0.960938 0.039062
vt 0.960938 0.460938
vt 0.539062 0.460938
vt 0.539062 0.460938
vt 0.960938 0.460938
vn -0.000015 -0.000015 1.000000
vn 0.000000 0.000000 -1.000000
vn -0.000015 -0.000015 1.000000
vn 0.000000 0.000000 -1.000000
vn -0.000015 -0.000015 1.000000
vn 0.000000 0.000000 -1.000000
vn -0.000015 -0.000015 1.000000
vn 0.000000 0.000000 -1.000000
vn 1.000000 0.000000 -0.000015
vn -1.000000 0.000000 -0.000015
vn 1.000000 0.000000 -0.000015
vn -1.000000 0.000000 -0.000015
vn 1.000000 0.000000 -0.000015
vn -1.000000 0.000000 -0.000015
vn 1.000000 0.000000 -0.000015
vn -1.000000 0.000000 -0.000015
vn 0.000000 1.000000 -0.000015
vn 0.000000 -1.000000 -0.000015
vn 0.000000 1.000000 -0.000015
vn 0.000000 -1.000000 -0.000015
vn 0.000000 1.000000 -0.000015
vn 0.000000 -1.000000 -0.000015
vn 0.000000 1.000000 -0.000015
vn 0.000000 -1.000000 -0.000015
vn -0.000015 -0.000015 1.000000
vn 0.000000 0.000000 -1.000000
vn -0.000015 -0.000015 1.000000
vn 0.000000 0.000000 -1.000000
vn -0.000015 -0.000015 1.000000
vn 0.000000 0.000000 -1.000000
vn -0.000015 -0.000015 1.000000
vn 0.000000 0.000000 -1.000000
vn 1.000000 0.000000 -0.000015
vn -1.000000 0.000000 -0.000015
vn 1.000000 0.000000 -0.000015
vn -1.000000 0.000000 -0.000015
vn 1.000000 0.000000 -0.000015
vn -1.000000 0.000000 -0.000015
vn 1.000000 0.000000 -0.000015
vn -1.000000 0.000000 -0.000015
vn 0.000000 1.000000 -0.000015
vn 0.000000 -1.000000 -0.000015
vn 0.000000 1.000000 -0.000015
vn 0.000000 -1.000000 -0.000015
vn 0.000000 1.000000 -0.000015
vn 0.000000 -1.000000 -0.000015
vn 0.000000 1.000000 -0.000015
vn 0.000000 -1.000000 -0.000015
vn -0.000015 -0.000015 1.000000
vn 0.000000 0.000000 -1.000000
vn -0.000015 -0.000015 1.000000
vn 0.000000 0.000000 -1.000000
vn -0.000015 -0.000015 1.000000
vn 0.000000 0.000000 -1.000000
vn -0.000015 -0.000015 1.000000
vn 0.000000 0.000000 -1.000000
vn 1.000000 0.000000 -0.000015
vn -1.000000 0.000000 -0.000015
vn 1.000000 0.000000 -0.000015
vn -1.000000 0.000000 -0.000015
vn 1.000000 0.000000 -0.000015
vn -1.000000 0.000000 -0.000015
vn 1.000000 0.000000 -0.000015
vn -1.000000 0.000000 -0.000015
vn 0.000000 1.000000 -0.000015
vn 0.000000 -1.000000 -0.000015
vn 0.000000 1.000000 -0.000015
vn 0.000000 -1.000000 -0.000015
vn 0.000000 1.000000 -0.000015
vn 0.000000 -1.000000 -0.000015
vn 0.000000 1.000000 -0.000015
vn 0.000000 -1.000000 -0.000015
vn -0.000015 -0.000015 1.000000
vn 0.000000 0.000000 -1.000000
vn -0.000015 -0.000015 1.000000
vn 0.000000 0.000000 -1.000000
vn -0.000015 -0.000015 1.000000
vn 0.000000 0.000000 -1.000000
vn -0.000015 -0.000015 1.000000
vn 0.000000 0.000000 -1.000000
vn 1.000000 0.000000 -0.000015
vn -1.000000 0.000000 -0.000015
vn 1.000000 0.000000 -0.000015
vn -1.000000 0.000000 -0.000015
vn 1.000000 0.000000 -0.000015
vn -1.000000 0.000000 -0.000015
vn 1.000000 0.000000 -0.000015
vn -1.000000 0.000000 -0.000015
vn 0.000000 1.000000 -0.000015
vn 0.000000 -1.000000 -0.000015
vn 0.000000 1.000000 -0.000015
vn 0.000000 -1.000000 -0.000015
vn 0.000000 1.000000 -0.000015
vn 0.000000 -1.000000 -0.000015
vn 0.000000 1.000000 -0.000015
vn 0.000000 -1.000000 -0.000015
vn -0.000015 -0.000015 1.000000
vn 0.000000 0.000000 -1.000000
vn -0.000015 -0.000015 1.000000
vn 0.000000 0.000000 -1.000000
vn -0.000015 -0.000015 1.000000
vn 0.000000 0.000000 -1.000000
vn -0.000015 -0.000015 1.000000
vn 0.000000 0.000000 -1.000000
vn 1.000000 0.000000 -0.000015
vn -1.000000 0.000000 -0.000015
vn 1.000000 0.000000 -0.000015
vn -1.000000 0.000000 -0.000015
vn 1.000000 0.000000 -0.000015
vn -1.000000 0.000000 -0.000015
vn 1.000000 0.000000 -0.000015
vn -1.000000 0.000000 -0.000015
vn 0.000000 1.000000 -0.000015
vn 0.000000 -1.000000 -0.000015
vn 0.000000 1.000000 -0.000015
vn 0.000000 -1.000000 -0.000015
vn 0.000000 1.000000 -0.000015
vn 0.000000 -1.000000 -0.000015
vn 0.000000 1.000000 -0.000015
vn 0.000000 -1.000000 -0.000015
vn -0.000015 -0.000015 1.000000
vn 0.000000 0.000000 -1.000000
vn -0.000015 -0.000015 1.000000
vn 0.000000 0.000000 -1.000000
vn -0.000015 -0.000015 1.000000
vn 0.000000 0.000000 -1.000000
vn -0.000015 -0.000015 1.000000
vn 0.000000 0.000000 -1.000000
vn 1.000000 0.000000 -0.000015
vn -1.000000 0.000000 -0.000015
vn 1.000000 0.000000 -0.000015
vn -1.000000 0.000000 -0.000015
vn 1.000000 0.000000 -0.000015
vn -1.000000 0.000000 -0.000015
vn 1.000000 0.000000 -0.000015
vn -1.000000 0.000000 -0.000015
vn 0.000000 1.000000 -0.000015
vn 0.000000 -1.000000 -0.000015
vn 0.000000 1.000000 -0.000015
vn 0.000000 -1.000000 -0.000015
vn 0.000000 1.000000 -0.000015
vn 0.000000 -1.000000 -0.000015
vn 0.000000 1.000000 -0.000015
vn 0.000000 -1.000000 -0.000015
vn -0.000015 -0.000015 1.000000
vn 0.000000 0.000000 -1.000000
vn -0.000015 -0.000015 1.000000
vn 0.000000 0.000000 -1.000000
vn -0.000015 -0.000015 1.000000
vn 0.000000 0.000000 -1.000000
vn -0.000015 -0.000015 1.000000
vn 0.000000 0.000000 -1.000000
vn 1.000000 0.000000 -0.000015
vn -1.000000 0.000000 -0.000015
vn 1.000000 0.000000 -0.000015
vn -1.000000 0.000000 -0.000015
vn 1.000000 0.000000 -0.000015
vn -1.000000 0.000000 -0.000015
vn 1.000000 0.000000 -0.000015
vn -1.000000 0.000000 -0.000015
vn 0.000000 1.000000 -0.000015
vn 0.000000 -1.000000 -0.000015
vn 0.000000 1.000000 -0.000015
vn 0.000000 -1.000000 -0.000015
vn 0.000000 1.000000 -0.000015
vn 0.000000 -1.000000 -0.000015
vn 0.000000 1.000000 -0.000015
vn 0.000000 -1.000000 -0.000015
vn -0.000015 -0.000015 1.000000
vn 0.000000 0.000000 -1.000000
vn -0.000015 -0.000015 1.000000
vn 0.000000 0.000000 -1.000000
vn -0.000015 -0.000015 1.000000
vn 0.000000 0.000000 -1.000000
vn -0.000015 -0.000015 1.000000
vn 0.000000 0.000000 -1.000000
vn 1.000000 0.000000 -0.000015
vn -1.000000 0.000000 -0.000015
vn 1.000000 0.000000 -0.000015
vn -1.000000 0.000000 -0.000015
vn 1.000000 0.000000 -0.000015
vn -1.000000 0.000000 -0.000015
vn 1.000000 0.000000 -0.000015
vn -1.000000 0.000000 -0.000015
vn 0.000000 1.000000 -0.000015
vn 0.000000 -1.000000 -0.000015
vn 0.000000 1.000000 -0.000015
vn 0.000000 -1.000000 -0.000015
vn 0.000000 1.000000 -0.000015
vn 0.000000 -1.000000 -0.000015
vn 0.000000 1.000000 -0.000015
vn 0.000000 -1.000000 -0.000015
vn -0.000015 -0.000015 1.000000
vn 0.000000 0.000000 -1.000000
vn -0.000015 -0.000015 1.000000
vn 0.000000 0.000000 -1.000000
vn -0.000015 -0.000015 1.000000
vn 0.000000 0.000000 -1.000000
vn -0.000015 -0.000015 1.000000
vn 0.000000 0.000000 -1.000000
vn 1.000000 0.000000 -0.000015
vn -1.000000 0.000000 -0.000015
vn 1.000000 0.000000 -0.000015
vn -1.000000 0.000000 -0.000015
vn 1.000000 0.000000 -0.000015
vn -1.000000 0.000000 -0.000015
vn 1.000000 0.000000 -0.000015
vn -1.000000 0.000000 -0.000015
vn 0.000000 1.000000 -0.000015
vn 0.000000 -1.000000 -0.000015
vn 0.000000 1.000000 -0.000015
vn 0.000000 -1.000000 -0.000015
vn 0.000000 1.000000 -0.000015
vn 0.000000 -1.000000 -0.000015
vn 0.000000 1.000000 -0.000015
vn 0.000000 -1.000000 -0.000015
vn -0.000015 -0.000015 1.000000
vn 0.000000 0.000000 -1.000000
vn -0.000015 -0.000015 1.000000
vn 0.000000 0.000000 -1.000000
vn -0.000015 -0.000015 1.000000
vn 0.000000 0.000000 -1.000000
vn -0.000015 -0.000015 1.000000
vn 0.000000 0.000000 -1.000000
vn 1.000000 0.000000 -0.000015
vn -1.000000 0.000000 -0.000015
vn 1.000000 0.000000 -0.000015
vn -1.000000 0.000000 -0.000015
vn 1.000000 0.000000 -0.000015
vn -1.000000 0.000000 -0.000015
vn 1.000000 0.000000 -0.000015
vn -1.000000 0.000000 -0.000015
vn 0.000000 1.000000 -0.000015
vn 0.000000 -1.000000 -0.000015
vn 0.000000 1.000000 -0.000015
vn 0.000000 -1.000000 -0.000015
vn 0.000000 1.000000 -0.000015
vn 0.000000 -1.000000 -0.000015
vn 0.000000 1.000000 -0.000015
vn 0.000000 -1.000000 -0.000015
vn -0.000015 -0.000015 1.000000
vn 0.000000 0.000000 -1.000000
vn -0.000015 -0.000015 1.000000
vn 0.000000 0.000000 -1.000000
vn -0.000015 -0.000015 1.000000
vn 0.000000 0.000000 -1.000000
vn -0.000015 -0.000015 1.000000
vn 0.000000 0.000000 -1.000000
vn 1.000000 0.000000 -0.000015
vn -1.000000 0.000000 -0.000015
vn 1.000000 0.000000 -0.000015
vn -1.000000 0.000000 -0.000015
vn 1.000000 0.000000 -0.000015
vn -1.000000 0.000000 -0.000015
vn 1.000000 0.000000 -0.000015
vn -1.000000 0.000000 -0.000015
vn 0.000000 1.000000 -0.000015
vn 0.000000 -1.000000 -0.000015
vn 0.000000 1.000000 -0.000015
vn 0.000000 -1.000000 -0.000015
vn 0.000000 1.000000 -0.000015
vn 0.000000 -1.000000 -0.000015
vn 0.000000 1.000000 -0.000015
vn 0.000000 -1.000000 -0.000015
f 1/1/1 5/5/5 3/3/3
f 3/3/3 5/5/5 7/7/7
f 2/2/2 6/6/6 4/4/4
f 4/4/4 6/6/6 8/8/8
f 9/9/9 13/13/13 11/11/11
f 11/11/11 13/13/13 15/15/15
f 10/10/10 14/14/14 12/12/12
f 12/12/12 14/14/14 16/16/16
f 17/17/17 21/21/21 19/19/19
f 19/19/19 21/21/21 23/23/23
f 18/18/18 22/22/22 20/20/20
f 20/20/20 22/22/22 24/24/24
f 25/25/25 29/29/29 27/27/27
f 27/27/27 29/29/29 31/31/31
f 26/26/26 30/30/30 28/28/28
f 28/28/28 30/30/30 32/32/32
f 33/33/33 37/37/37 35/35/35
f 35/35/35 37/37/37 39/39/39
f 34/34/34 38/38/38 36/36/36
f 36/36/36 38/38/38 40/40/40
f 41/41/41 45/45/45 43/43/43
f 43/43/43 45/45/45 47/47/47
f 42/42/42 46/46/46 44/44/44
f 44/44/44 46/46/46 48/48/48
f 49/49/49 53/53/53 51/51/51
f 51/51/51 53/53/53 55/55/55
f 50/50/50 54/54/54 52/52/52
f 52/52/52 54/54/54 56/56/56
f 57/57/57 61/61/61 59/59/59
f 59/59/59 61/61/61 63/63/63
f 58/58/58 62/62/62 60/60/60
f 60/60/60 62/62/62 64/64/64
f 65/65/65 69/69/69 67/67/67
f 67/67/67 69/69/69 71/71/71
f 66/66/66 70/70/70 68/68/68
f 68/68/68 70/70/70 72/72/72
f 73/73/73 77/77/77 75/75/75
f 75/75/75 77/77/77 79/79/79
f 74/74/74 78/78/78 76/76/76
f 76/76/76 78/78/78 80/80/80
f 81/81/81 85/85/85 83/83/83
f 83/83/83 85/85/85 87/87/87
f 82/82/82 86/86/86 84/84/84
f 84/84/84 86/86/86 88/88/88
f 89/89/89 93/93/93 91/91/91
f 91/91/91 93/93/93 95/95/95
f 90/90/90 94/94/94 92/92/92
f 92/92/92 94/94/94 96/96/96
f 97/97/97 101/101/101 99/99/99
f 99/99/99 101/101/101 103/103/103
f 98/98/98 102/102/102 100/100/100
f 100/100/100 102/102/102 104/104/104
f 105/105/105 109/109/109 107/107/107
f 107/107/107 109/109/109 111/111/111
f 106/106/106 110/110/110 108/108/108
f 108/108/108 110/110/110 112/112/112
f 113/113/113 117/117/117 115/115/115
f 115/115/115 117/117/117 119/119/119
f 114/114/114 118/118/118 116/116/116
f 116/116/116 118/118/118 120/120/120
f 121/121/121 125/125/125 123/123/123
f 123/123/123 125/125/125 127/127/127
f 122/122/122 126/126/126 124/124/124
f 124/124/124 126/126/126 128/128/128
f 129/129/129 133/133/133 131/131/131
f 131/131/131 133/133/133 135/135/135
f 130/130/130 134/134/134 132/132/132
f 132/132/132 134/134/134 136/136/136
f 137/137/137 141/141/141 139/139/139
f 139/139/139 141/141/141 143/143/143
f 138/138/138 142/142/142 140/140/140
f 140/140/140 142/142/142 144/144/144
f 145/145/145 149/149/149 147/147/147
f 147/147/147 149/149/149 151/151/151
f 146/146/146 150/150/150 148/148/148
f 148/148/148 150/150/150 152/152/152
f 153/153/153 157/157/157 155/155/155
f 155/155/155 157/157/157 159/159/159
f 154/154/154 158/158/158 156/156/156
f 156/156/156 158/158/158 160/160/160
f 161/161/161 165/165/165 163/163/163
f 163/163/163 165/165/165 167/167/167
f 162/162/162 166/166/166 164/164/164
f 164/164/164 166/166/166 168/168/168
f 169/169/169 173/173/173 171/171/171
f 171/171/171 173/173/173 175/175/175
f 170/170/170 174/174/174 172/172/172
f 172/172/172 174/174/174 176/176/176
f 177/177/177 181/181/181 179/179/179
f 179/179/179 181/181/181 183/183/183
f 178/178/178 182/182/182 180/180/180
f 180/180/180 182/182/182 184/184/184
f 185/185/185 189/189/189 187/187/187
f 187/187/187 189/189/189 191/191/191
f 186/186/186 190/190/190 188/188/188
f 188/188/188 190/190/190 192/192/192
f 193/193/193 197/197/197 195/195/195
f 195/195/195 197/197/197 199/199/199
f 194/194/194 198/198/198 196/196/196
f 196/196/196 198/198/198 200/200/200
f 201/201/201 205/205/205 203/203/203
f 203/203/203 205/205/205 207/207/207
f 202/202/202 206/206/206 204/204/204
f 204/204/204 206/206/206 208/208/208
f 209/209/209 213/213/213 211/211/211
f 211/211/211 213/213/213 215/215/215
f 210/210/210 214/214/214 212/212/212
f 212/212/212 214/214/214 216/216/216
f 217/217/217 221/221/221 219/219/219
f 219/219/219 221/221/221 223/223/223
f 218/218/218 222/222/222 220/220/220
f 220/220/220 222/222/222 224/224/224
f 225/225/225 229/229/229 227/227/227
f 227/227/227 229/229/229 231/231/231
f 226/226/226 230/230/230 228/228/228
f 228/228/228 230/230/230 232/232/232
f 233/233/233 237/237/237 235/235/235
f 235/235/235 237/237/237 239/239/239
f 234/234/234 238/238/238 236/236/236
f 236/236/236 238/238/238 240/240/240
f 241/241/241 245/245/245 243/243/243
f 243/243/243 245/245/245 247/247/247
f 242/242/242 246/246/246 244/244/244
f 244/244/244 246/246/246 248/248/248
f 249/249/249 253/253/253 251/251/251
f 251/251/251 253/253/253 255/255/255
f 250/250/250 254/254/254 252/252/252
f 252/252/252 254/254/254 256/256/256
f 257/257/257 261/261/261 259/259/259
f 259/259/259 261/261/261 263/263/263
f 258/258/258 262/262/262 260/260/260
f 260/260/260 262/262/262 264/264/264
usemtl glass
v -1.340000 1.090000 0.340000
v 1.340000 1.090000 -0.340000
v 1.340000 1.090000 0.340000
v -1.340000 1.090000 -0.340000
v -1.340000 0.500000 0.340000
v 1.340000 0.500000 -0.340000
v 1.340000 0.500000 0.340000
v -1.340000 0.500000 -0.340000
v 1.340000 1.090000 0.340000
v -1.340000 1.090000 -0.340000
v 1.340000 1.090000 -0.340000
v -1.340000 1.090000 0.340000
v 1.340000 0.500000 0.340000
v -1.340000 0.500000 -0.340000
v 1.340000 0.500000 -0.340000
v -1.340000 0.500000 0.340000
v 1.340000 1.090000 0.340000
v -1.340000 0.500000 0.340000
v -1.340000 1.090000 0.340000
v 1.340000 0.500000 0.340000
v 1.340000 1.090000 -0.340000
v -1.340000 0.500000 -0.340000
v -1.340000 1.090000 -0.340000
v 1.340000 0.500000 -0.340000
vt 0.000000 1.000000
vt 0.666667 1.000000
vt 0.333333 1.000000
vt 1.000000 1.000000
vt 0.000000 0.500000
vt 0.666667 0.500000
vt 0.333333 0.500000
vt 1.000000 0.500000
vt 0.333333 1.000000
vt 0.000000 0.500000
vt 0.666667 1.000000
vt 0.333333 0.500000
vt 0.333333 0.500000
vt 0.000000 0.000000
vt 0.666667 0.500000
vt 0.333333 0.000000
vt 0.333333 0.500000
vt 0.666667 0.500000
vt 0.666667 0.500000
vt 1.000000 0.500000
vt 0.333333 0.000000
vt 0.666667 0.000000
vt 0.666667 0.000000
vt 1.000000 0.000000
vn -0.000015 -0.000015 1.000000
vn 0.000000 0.000000 -1.000000
vn -0.000015 -0.000015 1.000000
vn 0.000000 0.000000 -1.000000
vn -0.000015 -0.000015 1.000000
vn 0.000000 0.000000 -1.000000
vn -0.000015 -0.000015 1.000000
vn 0.000000 0.000000 -1.000000
vn 1.000000 0.000000 -0.000015
vn -1.000000 0.000000 -0.000015
vn 1.000000 0.000000 -0.000015
vn -1.000000 0.000000 -0.000015
vn 1.000000 0.000000 -0.000015
vn -1.000000 0.000000 -0.000015
vn 1.000000 0.000000 -0.000015
vn -1.000000 0.000000 -0.000015
vn 0.000000 1.000000 -0.000015
vn 0.000000 -1.000000 -0.000015
vn 0.000000 1.000000 -0.000015
vn 0.000000 -1.000000 -0.000015
vn 0.000000 1.000000 -0.000015
vn 0.000000 -1.000000 -0.000015
vn 0.000000 1.000000 -0.000015
vn 0.000000 -1.000000 -0.000015
f 265/265/265 269/269/269 267/267/267
f 267/267/267 269/269/269 271/271/271
f 266/266/266 270/270/270 268/268/268
f 268/268/268 270/270/270 272/272/272
f 273/273/273 277/277/277 275/275/275
f 275/275/275 277/277/277 279/279/279
f 274/274/274 278/278/278 276/276/276
f 276/276/276 278/278/278 280/280/280
f 281/281/281 285/285/285 283/283/283
f 283/283/283 285/285/285 287/287/287
f 282/282/282 286/286/286 284/284/284
f 284/284/284 286/286/286 288/288/288
