{"asset":{"version":"2.0","generator":"Blockbench 5.2.1 glTF exporter"},"scenes":[{"nodes":[0,1],"name":"blockbench_export"}],"scene":0,"nodes":[{"name":"BrassRailSpan","mesh":0},{"name":"BrassRailPost","mesh":1}],"bufferViews":[{"buffer":0,"byteOffset":0,"byteLength":1344,"target":34962,"byteStride":12},{"buffer":0,"byteOffset":1344,"byteLength":1344,"target":34962,"byteStride":12},{"buffer":0,"byteOffset":2688,"byteLength":896,"target":34962,"byteStride":8},{"buffer":0,"byteOffset":3584,"byteLength":336,"target":34963},{"buffer":0,"byteOffset":3920,"byteLength":2592,"target":34962,"byteStride":12},{"buffer":0,"byteOffset":6512,"byteLength":2592,"target":34962,"byteStride":12},{"buffer":0,"byteOffset":9104,"byteLength":1728,"target":34962,"byteStride":8},{"buffer":0,"byteOffset":10832,"byteLength":624,"target":34963}],"buffers":[{"byteLength":11456,"uri":"data:application/octet-stream;base64,"}],"accessors":[{"bufferView":0,"componentType":5126,"count":112,"max":[2,1.0601074695587158,0.03510742262005806],"min":[0,0.2237507700920105,-0.03510742262005806],"type":"VEC3"},{"bufferView":1,"componentType":5126,"count":112,"max":[1,1,1],"min":[-1,-1,-1],"type":"VEC3"},{"bufferView":2,"componentType":5126,"count":112,"max":[0.7956749796867371,0.7224999666213989],"min":[0.25,0.13749998807907104],"type":"VEC2"},{"bufferView":3,"componentType":5123,"count":168,"max":[111],"min":[0],"type":"SCALAR"},{"bufferView":4,"componentType":5126,"count":216,"max":[0.07391036301851273,1.1050000190734863,0.07391036301851273],"min":[-0.07391036301851273,0,-0.07391036301851273],"type":"VEC3"},{"bufferView":5,"componentType":5126,"count":216,"max":[1,1,1],"min":[-1,-0.4848221242427826,-1],"type":"VEC3"},{"bufferView":6,"componentType":5126,"count":216,"max":[0.8165271878242493,0.8350499868392944],"min":[0.25,0.17124998569488525],"type":"VEC2"},{"bufferView":7,"componentType":5123,"count":312,"max":[215],"min":[0],"type":"SCALAR"}],"materials":[{"pbrMetallicRoughness":{"metallicFactor":0,"roughnessFactor":1,"baseColorTexture":{"index":0}},"alphaMode":"MASK","alphaCutoff":0.05,"doubleSided":true}],"textures":[{"sampler":0,"source":0,"name":"aged_brass_palette.png"}],"samplers":[{"magFilter":9728,"minFilter":9984,"wrapS":33071,"wrapT":33071}],"images":[{"mimeType":"image/png","uri":"aged_brass_palette.png"}],"meshes":[{"primitives":[{"mode":4,"attributes":{"POSITION":0,"NORMAL":1,"TEXCOORD_0":2},"indices":3,"material":0}]},{"primitives":[{"mode":4,"attributes":{"POSITION":4,"NORMAL":5,"TEXCOORD_0":6},"indices":7,"material":0}]}]}