{"asset":{"version":"2.0","generator":"Blockbench 5.2.1 glTF exporter"},"scenes":[{"nodes":[0,1],"name":"blockbench_export"}],"scene":0,"nodes":[{"name":"TinCeilingTile","mesh":0},{"translation":[1.25,0,0],"name":"BasicCeilingTile","mesh":1}],"bufferViews":[{"buffer":0,"byteOffset":0,"byteLength":816,"target":34962,"byteStride":12},{"buffer":0,"byteOffset":816,"byteLength":816,"target":34962,"byteStride":12},{"buffer":0,"byteOffset":1632,"byteLength":544,"target":34962,"byteStride":8},{"buffer":0,"byteOffset":2176,"byteLength":204,"target":34963},{"buffer":0,"byteOffset":2380,"byteLength":48,"target":34962,"byteStride":12},{"buffer":0,"byteOffset":2428,"byteLength":48,"target":34962,"byteStride":12},{"buffer":0,"byteOffset":2476,"byteLength":32,"target":34962,"byteStride":8},{"buffer":0,"byteOffset":2508,"byteLength":12,"target":34963}],"buffers":[{"byteLength":2520,"uri":"data:application/octet-stream;base64,"}],"accessors":[{"bufferView":0,"componentType":5126,"count":68,"max":[0.5,0,0.5],"min":[-0.5,-0.012000000104308128,-0.5],"type":"VEC3"},{"bufferView":1,"componentType":5126,"count":68,"max":[0.5144957304000854,-0.8574929237365723,0.5144957304000854],"min":[-0.5144957304000854,-1,-0.5144957304000854],"type":"VEC3"},{"bufferView":2,"componentType":5126,"count":68,"max":[0.484375,0.96875],"min":[0.015625,0.03125],"type":"VEC2"},{"bufferView":3,"componentType":5123,"count":102,"max":[67],"min":[0],"type":"SCALAR"},{"bufferView":4,"componentType":5126,"count":4,"max":[0.5,0,0.5],"min":[-0.5,0,-0.5],"type":"VEC3"},{"bufferView":5,"componentType":5126,"count":4,"max":[0,-1,0],"min":[0,-1,0],"type":"VEC3"},{"bufferView":6,"componentType":5126,"count":4,"max":[0.984375,0.96875],"min":[0.515625,0.03125],"type":"VEC2"},{"bufferView":7,"componentType":5123,"count":6,"max":[3],"min":[0],"type":"SCALAR"}],"materials":[{"pbrMetallicRoughness":{"metallicFactor":0,"roughnessFactor":0.72,"baseColorTexture":{"index":0}},"alphaMode":"MASK","alphaCutoff":0.05,"doubleSided":false}],"textures":[{"sampler":0,"source":0,"name":"ceiling_tiles_albedo.png"}],"samplers":[{"magFilter":9728,"minFilter":9984,"wrapS":33071,"wrapT":33071}],"images":[{"mimeType":"image/png","uri":"ceiling_tiles_albedo.png"}],"meshes":[{"primitives":[{"mode":4,"attributes":{"POSITION":0,"NORMAL":1,"TEXCOORD_0":2},"indices":3,"material":0}]},{"primitives":[{"mode":4,"attributes":{"POSITION":4,"NORMAL":5,"TEXCOORD_0":6},"indices":7,"material":0}]}]}