# Triangulated UV-mapped casino prop; meters; Z-up
mtllib roulette_wheel.mtl
o roulette_wheel
v 0.2800000 0.0000000 0.0000000
v 0.2704592 0.0724693 0.0000000
v 0.2424871 0.1400000 0.0000000
v 0.1979899 0.1979899 0.0000000
v 0.1400000 0.2424871 0.0000000
v 0.0724693 0.2704592 0.0000000
v 0.0000000 0.2800000 0.0000000
v -0.0724693 0.2704592 0.0000000
v -0.1400000 0.2424871 0.0000000
v -0.1979899 0.1979899 0.0000000
v -0.2424871 0.1400000 0.0000000
v -0.2704592 0.0724693 0.0000000
v -0.2800000 0.0000000 0.0000000
v -0.2704592 -0.0724693 0.0000000
v -0.2424871 -0.1400000 0.0000000
v -0.1979899 -0.1979899 0.0000000
v -0.1400000 -0.2424871 0.0000000
v -0.0724693 -0.2704592 0.0000000
v -0.0000000 -0.2800000 0.0000000
v 0.0724693 -0.2704592 0.0000000
v 0.1400000 -0.2424871 0.0000000
v 0.1979899 -0.1979899 0.0000000
v 0.2424871 -0.1400000 0.0000000
v 0.2704592 -0.0724693 0.0000000
v 0.3600000 0.0000000 0.0550000
v 0.3477333 0.0931749 0.0550000
v 0.3117692 0.1800000 0.0550000
v 0.2545584 0.2545584 0.0550000
v 0.1800000 0.3117692 0.0550000
v 0.0931749 0.3477333 0.0550000
v 0.0000000 0.3600000 0.0550000
v -0.0931749 0.3477333 0.0550000
v -0.1800000 0.3117692 0.0550000
v -0.2545584 0.2545584 0.0550000
v -0.3117692 0.1800000 0.0550000
v -0.3477333 0.0931749 0.0550000
v -0.3600000 0.0000000 0.0550000
v -0.3477333 -0.0931749 0.0550000
v -0.3117692 -0.1800000 0.0550000
v -0.2545584 -0.2545584 0.0550000
v -0.1800000 -0.3117692 0.0550000
v -0.0931749 -0.3477333 0.0550000
v -0.0000000 -0.3600000 0.0550000
v 0.0931749 -0.3477333 0.0550000
v 0.1800000 -0.3117692 0.0550000
v 0.2545584 -0.2545584 0.0550000
v 0.3117692 -0.1800000 0.0550000
v 0.3477333 -0.0931749 0.0550000
v 0.3800000 0.0000000 0.1000000
v 0.3670518 0.0983512 0.1000000
v 0.3290896 0.1900000 0.1000000
v 0.2687006 0.2687006 0.1000000
v 0.1900000 0.3290896 0.1000000
v 0.0983512 0.3670518 0.1000000
v 0.0000000 0.3800000 0.1000000
v -0.0983512 0.3670518 0.1000000
v -0.1900000 0.3290896 0.1000000
v -0.2687006 0.2687006 0.1000000
v -0.3290896 0.1900000 0.1000000
v -0.3670518 0.0983512 0.1000000
v -0.3800000 0.0000000 0.1000000
v -0.3670518 -0.0983512 0.1000000
v -0.3290896 -0.1900000 0.1000000
v -0.2687006 -0.2687006 0.1000000
v -0.1900000 -0.3290896 0.1000000
v -0.0983512 -0.3670518 0.1000000
v -0.0000000 -0.3800000 0.1000000
v 0.0983512 -0.3670518 0.1000000
v 0.1900000 -0.3290896 0.1000000
v 0.2687006 -0.2687006 0.1000000
v 0.3290896 -0.1900000 0.1000000
v 0.3670518 -0.0983512 0.1000000
v 0.3800000 0.0000000 0.1250000
v 0.3670518 0.0983512 0.1250000
v 0.3290896 0.1900000 0.1250000
v 0.2687006 0.2687006 0.1250000
v 0.1900000 0.3290896 0.1250000
v 0.0983512 0.3670518 0.1250000
v 0.0000000 0.3800000 0.1250000
v -0.0983512 0.3670518 0.1250000
v -0.1900000 0.3290896 0.1250000
v -0.2687006 0.2687006 0.1250000
v -0.3290896 0.1900000 0.1250000
v -0.3670518 0.0983512 0.1250000
v -0.3800000 0.0000000 0.1250000
v -0.3670518 -0.0983512 0.1250000
v -0.3290896 -0.1900000 0.1250000
v -0.2687006 -0.2687006 0.1250000
v -0.1900000 -0.3290896 0.1250000
v -0.0983512 -0.3670518 0.1250000
v -0.0000000 -0.3800000 0.1250000
v 0.0983512 -0.3670518 0.1250000
v 0.1900000 -0.3290896 0.1250000
v 0.2687006 -0.2687006 0.1250000
v 0.3290896 -0.1900000 0.1250000
v 0.3670518 -0.0983512 0.1250000
v 0.3300000 0.0000000 0.1250000
v 0.3187555 0.0854103 0.1250000
v 0.2857884 0.1650000 0.1250000
v 0.2333452 0.2333452 0.1250000
v 0.1650000 0.2857884 0.1250000
v 0.0854103 0.3187555 0.1250000
v 0.0000000 0.3300000 0.1250000
v -0.0854103 0.3187555 0.1250000
v -0.1650000 0.2857884 0.1250000
v -0.2333452 0.2333452 0.1250000
v -0.2857884 0.1650000 0.1250000
v -0.3187555 0.0854103 0.1250000
v -0.3300000 0.0000000 0.1250000
v -0.3187555 -0.0854103 0.1250000
v -0.2857884 -0.1650000 0.1250000
v -0.2333452 -0.2333452 0.1250000
v -0.1650000 -0.2857884 0.1250000
v -0.0854103 -0.3187555 0.1250000
v -0.0000000 -0.3300000 0.1250000
v 0.0854103 -0.3187555 0.1250000
v 0.1650000 -0.2857884 0.1250000
v 0.2333452 -0.2333452 0.1250000
v 0.2857884 -0.1650000 0.1250000
v 0.3187555 -0.0854103 0.1250000
v 0.2700000 0.0000000 0.0550000
v 0.2608000 0.0698811 0.0550000
v 0.2338269 0.1350000 0.0550000
v 0.1909188 0.1909188 0.0550000
v 0.1350000 0.2338269 0.0550000
v 0.0698811 0.2608000 0.0550000
v 0.0000000 0.2700000 0.0550000
v -0.0698811 0.2608000 0.0550000
v -0.1350000 0.2338269 0.0550000
v -0.1909188 0.1909188 0.0550000
v -0.2338269 0.1350000 0.0550000
v -0.2608000 0.0698811 0.0550000
v -0.2700000 0.0000000 0.0550000
v -0.2608000 -0.0698811 0.0550000
v -0.2338269 -0.1350000 0.0550000
v -0.1909188 -0.1909188 0.0550000
v -0.1350000 -0.2338269 0.0550000
v -0.0698811 -0.2608000 0.0550000
v -0.0000000 -0.2700000 0.0550000
v 0.0698811 -0.2608000 0.0550000
v 0.1350000 -0.2338269 0.0550000
v 0.1909188 -0.1909188 0.0550000
v 0.2338269 -0.1350000 0.0550000
v 0.2608000 -0.0698811 0.0550000
v 0.0000000 0.3300000 0.0805000
v 0.0000000 0.3300000 0.0875000
v 0.0854103 0.3187555 0.0805000
v 0.0854103 0.3187555 0.0875000
v 0.1650000 0.2857884 0.0805000
v 0.1650000 0.2857884 0.0875000
v 0.2333452 0.2333452 0.0805000
v 0.2333452 0.2333452 0.0875000
v 0.2857884 0.1650000 0.0805000
v 0.2857884 0.1650000 0.0875000
v 0.3187555 0.0854103 0.0805000
v 0.3187555 0.0854103 0.0875000
v 0.3300000 0.0000000 0.0805000
v 0.3300000 0.0000000 0.0875000
v 0.3187555 -0.0854103 0.0805000
v 0.3187555 -0.0854103 0.0875000
v 0.2857884 -0.1650000 0.0805000
v 0.2857884 -0.1650000 0.0875000
v 0.2333452 -0.2333452 0.0805000
v 0.2333452 -0.2333452 0.0875000
v 0.1650000 -0.2857884 0.0805000
v 0.1650000 -0.2857884 0.0875000
v 0.0854103 -0.3187555 0.0805000
v 0.0854103 -0.3187555 0.0875000
v 0.0000000 -0.3300000 0.0805000
v 0.0000000 -0.3300000 0.0875000
v -0.0854103 -0.3187555 0.0805000
v -0.0854103 -0.3187555 0.0875000
v -0.1650000 -0.2857884 0.0805000
v -0.1650000 -0.2857884 0.0875000
v -0.2333452 -0.2333452 0.0805000
v -0.2333452 -0.2333452 0.0875000
v -0.2857884 -0.1650000 0.0805000
v -0.2857884 -0.1650000 0.0875000
v -0.3187555 -0.0854103 0.0805000
v -0.3187555 -0.0854103 0.0875000
v -0.3300000 0.0000000 0.0805000
v -0.3300000 0.0000000 0.0875000
v -0.3187555 0.0854103 0.0805000
v -0.3187555 0.0854103 0.0875000
v -0.2857884 0.1650000 0.0805000
v -0.2857884 0.1650000 0.0875000
v -0.2333452 0.2333452 0.0805000
v -0.2333452 0.2333452 0.0875000
v -0.1650000 0.2857884 0.0805000
v -0.1650000 0.2857884 0.0875000
v -0.0854103 0.3187555 0.0805000
v -0.0854103 0.3187555 0.0875000
v 0.3830000 0.0000000 0.1185000
v 0.3699496 0.0991277 0.1185000
v 0.3316877 0.1915000 0.1185000
v 0.2708219 0.2708219 0.1185000
v 0.1915000 0.3316877 0.1185000
v 0.0991277 0.3699496 0.1185000
v 0.0000000 0.3830000 0.1185000
v -0.0991277 0.3699496 0.1185000
v -0.1915000 0.3316877 0.1185000
v -0.2708219 0.2708219 0.1185000
v -0.3316877 0.1915000 0.1185000
v -0.3699496 0.0991277 0.1185000
v -0.3830000 0.0000000 0.1185000
v -0.3699496 -0.0991277 0.1185000
v -0.3316877 -0.1915000 0.1185000
v -0.2708219 -0.2708219 0.1185000
v -0.1915000 -0.3316877 0.1185000
v -0.0991277 -0.3699496 0.1185000
v -0.0000000 -0.3830000 0.1185000
v 0.0991277 -0.3699496 0.1185000
v 0.1915000 -0.3316877 0.1185000
v 0.2708219 -0.2708219 0.1185000
v 0.3316877 -0.1915000 0.1185000
v 0.3699496 -0.0991277 0.1185000
v 0.3630000 0.0000000 0.1185000
v 0.3506311 0.0939513 0.1185000
v 0.3143672 0.1815000 0.1185000
v 0.2566798 0.2566798 0.1185000
v 0.1815000 0.3143672 0.1185000
v 0.0939513 0.3506311 0.1185000
v 0.0000000 0.3630000 0.1185000
v -0.0939513 0.3506311 0.1185000
v -0.1815000 0.3143672 0.1185000
v -0.2566798 0.2566798 0.1185000
v -0.3143672 0.1815000 0.1185000
v -0.3506311 0.0939513 0.1185000
v -0.3630000 0.0000000 0.1185000
v -0.3506311 -0.0939513 0.1185000
v -0.3143672 -0.1815000 0.1185000
v -0.2566798 -0.2566798 0.1185000
v -0.1815000 -0.3143672 0.1185000
v -0.0939513 -0.3506311 0.1185000
v -0.0000000 -0.3630000 0.1185000
v 0.0939513 -0.3506311 0.1185000
v 0.1815000 -0.3143672 0.1185000
v 0.2566798 -0.2566798 0.1185000
v 0.3143672 -0.1815000 0.1185000
v 0.3506311 -0.0939513 0.1185000
v 0.3830000 0.0000000 0.1415000
v 0.3699496 0.0991277 0.1415000
v 0.3316877 0.1915000 0.1415000
v 0.2708219 0.2708219 0.1415000
v 0.1915000 0.3316877 0.1415000
v 0.0991277 0.3699496 0.1415000
v 0.0000000 0.3830000 0.1415000
v -0.0991277 0.3699496 0.1415000
v -0.1915000 0.3316877 0.1415000
v -0.2708219 0.2708219 0.1415000
v -0.3316877 0.1915000 0.1415000
v -0.3699496 0.0991277 0.1415000
v -0.3830000 0.0000000 0.1415000
v -0.3699496 -0.0991277 0.1415000
v -0.3316877 -0.1915000 0.1415000
v -0.2708219 -0.2708219 0.1415000
v -0.1915000 -0.3316877 0.1415000
v -0.0991277 -0.3699496 0.1415000
v -0.0000000 -0.3830000 0.1415000
v 0.0991277 -0.3699496 0.1415000
v 0.1915000 -0.3316877 0.1415000
v 0.2708219 -0.2708219 0.1415000
v 0.3316877 -0.1915000 0.1415000
v 0.3699496 -0.0991277 0.1415000
v 0.3630000 0.0000000 0.1415000
v 0.3506311 0.0939513 0.1415000
v 0.3143672 0.1815000 0.1415000
v 0.2566798 0.2566798 0.1415000
v 0.1815000 0.3143672 0.1415000
v 0.0939513 0.3506311 0.1415000
v 0.0000000 0.3630000 0.1415000
v -0.0939513 0.3506311 0.1415000
v -0.1815000 0.3143672 0.1415000
v -0.2566798 0.2566798 0.1415000
v -0.3143672 0.1815000 0.1415000
v -0.3506311 0.0939513 0.1415000
v -0.3630000 0.0000000 0.1415000
v -0.3506311 -0.0939513 0.1415000
v -0.3143672 -0.1815000 0.1415000
v -0.2566798 -0.2566798 0.1415000
v -0.1815000 -0.3143672 0.1415000
v -0.0939513 -0.3506311 0.1415000
v -0.0000000 -0.3630000 0.1415000
v 0.0939513 -0.3506311 0.1415000
v 0.1815000 -0.3143672 0.1415000
v 0.2566798 -0.2566798 0.1415000
v 0.3143672 -0.1815000 0.1415000
v 0.3506311 -0.0939513 0.1415000
v 0.0000000 0.0250000 0.0875000
v 0.0000000 0.0250000 0.2325000
v 0.0176777 0.0176777 0.0875000
v 0.0176777 0.0176777 0.2325000
v 0.0250000 0.0000000 0.0875000
v 0.0250000 0.0000000 0.2325000
v 0.0176777 -0.0176777 0.0875000
v 0.0176777 -0.0176777 0.2325000
v 0.0000000 -0.0250000 0.0875000
v 0.0000000 -0.0250000 0.2325000
v -0.0176777 -0.0176777 0.0875000
v -0.0176777 -0.0176777 0.2325000
v -0.0250000 0.0000000 0.0875000
v -0.0250000 0.0000000 0.2325000
v -0.0176777 0.0176777 0.0875000
v -0.0176777 0.0176777 0.2325000
v -0.1400000 -0.0000000 0.2230000
v 0.1400000 0.0000000 0.2230000
v -0.1400000 0.0069282 0.2190000
v 0.1400000 0.0069282 0.2190000
v -0.1400000 0.0069282 0.2110000
v 0.1400000 0.0069282 0.2110000
v -0.1400000 -0.0000000 0.2070000
v 0.1400000 0.0000000 0.2070000
v -0.1400000 -0.0069282 0.2110000
v 0.1400000 -0.0069282 0.2110000
v -0.1400000 -0.0069282 0.2190000
v 0.1400000 -0.0069282 0.2190000
v 0.0000000 -0.1400000 0.2230000
v 0.0000000 0.1400000 0.2230000
v -0.0069282 -0.1400000 0.2190000
v -0.0069282 0.1400000 0.2190000
v -0.0069282 -0.1400000 0.2110000
v -0.0069282 0.1400000 0.2110000
v -0.0000000 -0.1400000 0.2070000
v -0.0000000 0.1400000 0.2070000
v 0.0069282 -0.1400000 0.2110000
v 0.0069282 0.1400000 0.2110000
v 0.0069282 -0.1400000 0.2190000
v 0.0069282 0.1400000 0.2190000
v 0.0000000 0.0240000 0.2360000
v 0.0060000 0.0103923 0.2567846
v 0.0103923 0.0180000 0.2480000
v 0.0120000 0.0207846 0.2360000
v 0.0103923 0.0180000 0.2240000
v 0.0060000 0.0103923 0.2152154
v 0.0103923 0.0060000 0.2567846
v 0.0180000 0.0103923 0.2480000
v 0.0207846 0.0120000 0.2360000
v 0.0180000 0.0103923 0.2240000
v 0.0103923 0.0060000 0.2152154
v 0.0120000 -0.0000000 0.2567846
v 0.0207846 0.0000000 0.2480000
v 0.0240000 -0.0000000 0.2360000
v 0.0207846 0.0000000 0.2240000
v 0.0120000 -0.0000000 0.2152154
v 0.0103923 -0.0060000 0.2567846
v 0.0180000 -0.0103923 0.2480000
v 0.0207846 -0.0120000 0.2360000
v 0.0180000 -0.0103923 0.2240000
v 0.0103923 -0.0060000 0.2152154
v 0.0060000 -0.0103923 0.2567846
v 0.0103923 -0.0180000 0.2480000
v 0.0120000 -0.0207846 0.2360000
v 0.0103923 -0.0180000 0.2240000
v 0.0060000 -0.0103923 0.2152154
v -0.0000000 -0.0120000 0.2567846
v 0.0000000 -0.0207846 0.2480000
v -0.0000000 -0.0240000 0.2360000
v 0.0000000 -0.0207846 0.2240000
v -0.0000000 -0.0120000 0.2152154
v -0.0060000 -0.0103923 0.2567846
v -0.0103923 -0.0180000 0.2480000
v -0.0120000 -0.0207846 0.2360000
v -0.0103923 -0.0180000 0.2240000
v -0.0060000 -0.0103923 0.2152154
v 0.0000000 0.0000000 0.2120000
v 0.0000000 0.0000000 0.2600000
v -0.0103923 -0.0060000 0.2567846
v -0.0180000 -0.0103923 0.2480000
v -0.0207846 -0.0120000 0.2360000
v -0.0180000 -0.0103923 0.2240000
v -0.0103923 -0.0060000 0.2152154
v -0.0120000 0.0000000 0.2567846
v -0.0207846 0.0000000 0.2480000
v -0.0240000 0.0000000 0.2360000
v -0.0207846 0.0000000 0.2240000
v -0.0120000 0.0000000 0.2152154
v -0.0103923 0.0060000 0.2567846
v -0.0180000 0.0103923 0.2480000
v -0.0207846 0.0120000 0.2360000
v -0.0180000 0.0103923 0.2240000
v -0.0103923 0.0060000 0.2152154
v -0.0060000 0.0103923 0.2567846
v -0.0103923 0.0180000 0.2480000
v -0.0120000 0.0207846 0.2360000
v -0.0103923 0.0180000 0.2240000
v -0.0060000 0.0103923 0.2152154
v 0.0000000 0.0120000 0.2567846
v 0.0000000 0.0207846 0.2480000
v 0.0000000 0.0207846 0.2240000
v 0.0000000 0.0120000 0.2152154
vt 0.9284539 0.7500000
vt 0.9223733 0.7961873
vt 0.9716228 0.8093836
vt 0.9794408 0.7500000
vt 0.9223733 0.7961873
vt 0.9045457 0.8392270
vt 0.9487016 0.8647204
vt 0.9716228 0.8093836
vt 0.9045457 0.8392270
vt 0.8761860 0.8761860
vt 0.9122391 0.9122391
vt 0.9487016 0.8647204
vt 0.8761860 0.8761860
vt 0.8392270 0.9045457
vt 0.8647204 0.9487016
vt 0.9122391 0.9122391
vt 0.8392270 0.9045457
vt 0.7961873 0.9223733
vt 0.8093836 0.9716228
vt 0.8647204 0.9487016
vt 0.7961873 0.9223733
vt 0.7500000 0.9284539
vt 0.7500000 0.9794408
vt 0.8093836 0.9716228
vt 0.7500000 0.9284539
vt 0.7038127 0.9223733
vt 0.6906164 0.9716228
vt 0.7500000 0.9794408
vt 0.7038127 0.9223733
vt 0.6607730 0.9045457
vt 0.6352796 0.9487016
vt 0.6906164 0.9716228
vt 0.6607730 0.9045457
vt 0.6238140 0.8761860
vt 0.5877609 0.9122391
vt 0.6352796 0.9487016
vt 0.6238140 0.8761860
vt 0.5954543 0.8392270
vt 0.5512984 0.8647204
vt 0.5877609 0.9122391
vt 0.5954543 0.8392270
vt 0.5776267 0.7961873
vt 0.5283772 0.8093836
vt 0.5512984 0.8647204
vt 0.5776267 0.7961873
vt 0.5715461 0.7500000
vt 0.5205592 0.7500000
vt 0.5283772 0.8093836
vt 0.5715461 0.7500000
vt 0.5776267 0.7038127
vt 0.5283772 0.6906164
vt 0.5205592 0.7500000
vt 0.5776267 0.7038127
vt 0.5954543 0.6607730
vt 0.5512984 0.6352796
vt 0.5283772 0.6906164
vt 0.5954543 0.6607730
vt 0.6238140 0.6238140
vt 0.5877609 0.5877609
vt 0.5512984 0.6352796
vt 0.6238140 0.6238140
vt 0.6607730 0.5954543
vt 0.6352796 0.5512984
vt 0.5877609 0.5877609
vt 0.6607730 0.5954543
vt 0.7038127 0.5776267
vt 0.6906164 0.5283772
vt 0.6352796 0.5512984
vt 0.7038127 0.5776267
vt 0.7500000 0.5715461
vt 0.7500000 0.5205592
vt 0.6906164 0.5283772
vt 0.7500000 0.5715461
vt 0.7961873 0.5776267
vt 0.8093836 0.5283772
vt 0.7500000 0.5205592
vt 0.7961873 0.5776267
vt 0.8392270 0.5954543
vt 0.8647204 0.5512984
vt 0.8093836 0.5283772
vt 0.8392270 0.5954543
vt 0.8761860 0.6238140
vt 0.9122391 0.5877609
vt 0.8647204 0.5512984
vt 0.8761860 0.6238140
vt 0.9045457 0.6607730
vt 0.9487016 0.6352796
vt 0.9122391 0.5877609
vt 0.9045457 0.6607730
vt 0.9223733 0.7038127
vt 0.9716228 0.6906164
vt 0.9487016 0.6352796
vt 0.9223733 0.7038127
vt 0.9284539 0.7500000
vt 0.9794408 0.7500000
vt 0.9716228 0.6906164
vt 0.5078125 0.7209375
vt 0.5279948 0.7209375
vt 0.5279948 0.8953125
vt 0.5078125 0.8953125
vt 0.5279948 0.7209375
vt 0.5481771 0.7209375
vt 0.5481771 0.8953125
vt 0.5279948 0.8953125
vt 0.5481771 0.7209375
vt 0.5683594 0.7209375
vt 0.5683594 0.8953125
vt 0.5481771 0.8953125
vt 0.5683594 0.7209375
vt 0.5885417 0.7209375
vt 0.5885417 0.8953125
vt 0.5683594 0.8953125
vt 0.5885417 0.7209375
vt 0.6087239 0.7209375
vt 0.6087239 0.8953125
vt 0.5885417 0.8953125
vt 0.6087239 0.7209375
vt 0.6289062 0.7209375
vt 0.6289062 0.8953125
vt 0.6087239 0.8953125
vt 0.6289062 0.7209375
vt 0.6490886 0.7209375
vt 0.6490886 0.8953125
vt 0.6289062 0.8953125
vt 0.6490886 0.7209375
vt 0.6692708 0.7209375
vt 0.6692708 0.8953125
vt 0.6490886 0.8953125
vt 0.6692708 0.7209375
vt 0.6894531 0.7209375
vt 0.6894531 0.8953125
vt 0.6692708 0.8953125
vt 0.6894531 0.7209375
vt 0.7096354 0.7209375
vt 0.7096354 0.8953125
vt 0.6894531 0.8953125
vt 0.7096354 0.7209375
vt 0.7298177 0.7209375
vt 0.7298177 0.8953125
vt 0.7096354 0.8953125
vt 0.7298177 0.7209375
vt 0.7500000 0.7209375
vt 0.7500000 0.8953125
vt 0.7298177 0.8953125
vt 0.7500000 0.7209375
vt 0.7701823 0.7209375
vt 0.7701823 0.8953125
vt 0.7500000 0.8953125
vt 0.7701823 0.7209375
vt 0.7903646 0.7209375
vt 0.7903646 0.8953125
vt 0.7701823 0.8953125
vt 0.7903646 0.7209375
vt 0.8105469 0.7209375
vt 0.8105469 0.8953125
vt 0.7903646 0.8953125
vt 0.8105469 0.7209375
vt 0.8307292 0.7209375
vt 0.8307292 0.8953125
vt 0.8105469 0.8953125
vt 0.8307292 0.7209375
vt 0.8509114 0.7209375
vt 0.8509114 0.8953125
vt 0.8307292 0.8953125
vt 0.8509114 0.7209375
vt 0.8710938 0.7209375
vt 0.8710938 0.8953125
vt 0.8509114 0.8953125
vt 0.8710938 0.7209375
vt 0.8912761 0.7209375
vt 0.8912761 0.8953125
vt 0.8710938 0.8953125
vt 0.8912761 0.7209375
vt 0.9114583 0.7209375
vt 0.9114583 0.8953125
vt 0.8912761 0.8953125
vt 0.9114583 0.7209375
vt 0.9316406 0.7209375
vt 0.9316406 0.8953125
vt 0.9114583 0.8953125
vt 0.9316406 0.7209375
vt 0.9518229 0.7209375
vt 0.9518229 0.8953125
vt 0.9316406 0.8953125
vt 0.9518229 0.7209375
vt 0.9720052 0.7209375
vt 0.9720052 0.8953125
vt 0.9518229 0.8953125
vt 0.9720052 0.7209375
vt 0.9921875 0.7209375
vt 0.9921875 0.8953125
vt 0.9720052 0.8953125
vt 0.5078125 0.8953125
vt 0.5279948 0.8953125
vt 0.5279948 0.9921875
vt 0.5078125 0.9921875
vt 0.5279948 0.8953125
vt 0.5481771 0.8953125
vt 0.5481771 0.9921875
vt 0.5279948 0.9921875
vt 0.5481771 0.8953125
vt 0.5683594 0.8953125
vt 0.5683594 0.9921875
vt 0.5481771 0.9921875
vt 0.5683594 0.8953125
vt 0.5885417 0.8953125
vt 0.5885417 0.9921875
vt 0.5683594 0.9921875
vt 0.5885417 0.8953125
vt 0.6087239 0.8953125
vt 0.6087239 0.9921875
vt 0.5885417 0.9921875
vt 0.6087239 0.8953125
vt 0.6289062 0.8953125
vt 0.6289062 0.9921875
vt 0.6087239 0.9921875
vt 0.6289062 0.8953125
vt 0.6490886 0.8953125
vt 0.6490886 0.9921875
vt 0.6289062 0.9921875
vt 0.6490886 0.8953125
vt 0.6692708 0.8953125
vt 0.6692708 0.9921875
vt 0.6490886 0.9921875
vt 0.6692708 0.8953125
vt 0.6894531 0.8953125
vt 0.6894531 0.9921875
vt 0.6692708 0.9921875
vt 0.6894531 0.8953125
vt 0.7096354 0.8953125
vt 0.7096354 0.9921875
vt 0.6894531 0.9921875
vt 0.7096354 0.8953125
vt 0.7298177 0.8953125
vt 0.7298177 0.9921875
vt 0.7096354 0.9921875
vt 0.7298177 0.8953125
vt 0.7500000 0.8953125
vt 0.7500000 0.9921875
vt 0.7298177 0.9921875
vt 0.7500000 0.8953125
vt 0.7701823 0.8953125
vt 0.7701823 0.9921875
vt 0.7500000 0.9921875
vt 0.7701823 0.8953125
vt 0.7903646 0.8953125
vt 0.7903646 0.9921875
vt 0.7701823 0.9921875
vt 0.7903646 0.8953125
vt 0.8105469 0.8953125
vt 0.8105469 0.9921875
vt 0.7903646 0.9921875
vt 0.8105469 0.8953125
vt 0.8307292 0.8953125
vt 0.8307292 0.9921875
vt 0.8105469 0.9921875
vt 0.8307292 0.8953125
vt 0.8509114 0.8953125
vt 0.8509114 0.9921875
vt 0.8307292 0.9921875
vt 0.8509114 0.8953125
vt 0.8710938 0.8953125
vt 0.8710938 0.9921875
vt 0.8509114 0.9921875
vt 0.8710938 0.8953125
vt 0.8912761 0.8953125
vt 0.8912761 0.9921875
vt 0.8710938 0.9921875
vt 0.8912761 0.8953125
vt 0.9114583 0.8953125
vt 0.9114583 0.9921875
vt 0.8912761 0.9921875
vt 0.9114583 0.8953125
vt 0.9316406 0.8953125
vt 0.9316406 0.9921875
vt 0.9114583 0.9921875
vt 0.9316406 0.8953125
vt 0.9518229 0.8953125
vt 0.9518229 0.9921875
vt 0.9316406 0.9921875
vt 0.9518229 0.8953125
vt 0.9720052 0.8953125
vt 0.9720052 0.9921875
vt 0.9518229 0.9921875
vt 0.9720052 0.8953125
vt 0.9921875 0.8953125
vt 0.9921875 0.9921875
vt 0.9720052 0.9921875
vt 0.9921875 0.7500000
vt 0.9839352 0.8126827
vt 0.9531542 0.8044350
vt 0.9603207 0.7500000
vt 0.9839352 0.8126827
vt 0.9597405 0.8710938
vt 0.9321431 0.8551604
vt 0.9531542 0.8044350
vt 0.9597405 0.8710938
vt 0.9212524 0.9212524
vt 0.8987192 0.8987192
vt 0.9321431 0.8551604
vt 0.9212524 0.9212524
vt 0.8710938 0.9597405
vt 0.8551604 0.9321431
vt 0.8987192 0.8987192
vt 0.8710938 0.9597405
vt 0.8126827 0.9839352
vt 0.8044350 0.9531542
vt 0.8551604 0.9321431
vt 0.8126827 0.9839352
vt 0.7500000 0.9921875
vt 0.7500000 0.9603207
vt 0.8044350 0.9531542
vt 0.7500000 0.9921875
vt 0.6873173 0.9839352
vt 0.6955650 0.9531542
vt 0.7500000 0.9603207
vt 0.6873173 0.9839352
vt 0.6289062 0.9597405
vt 0.6448396 0.9321431
vt 0.6955650 0.9531542
vt 0.6289062 0.9597405
vt 0.5787476 0.9212524
vt 0.6012808 0.8987192
vt 0.6448396 0.9321431
vt 0.5787476 0.9212524
vt 0.5402595 0.8710938
vt 0.5678569 0.8551604
vt 0.6012808 0.8987192
vt 0.5402595 0.8710938
vt 0.5160648 0.8126827
vt 0.5468458 0.8044350
vt 0.5678569 0.8551604
vt 0.5160648 0.8126827
vt 0.5078125 0.7500000
vt 0.5396793 0.7500000
vt 0.5468458 0.8044350
vt 0.5078125 0.7500000
vt 0.5160648 0.6873173
vt 0.5468458 0.6955650
vt 0.5396793 0.7500000
vt 0.5160648 0.6873173
vt 0.5402595 0.6289062
vt 0.5678569 0.6448396
vt 0.5468458 0.6955650
vt 0.5402595 0.6289062
vt 0.5787476 0.5787476
vt 0.6012808 0.6012808
vt 0.5678569 0.6448396
vt 0.5787476 0.5787476
vt 0.6289062 0.5402595
vt 0.6448396 0.5678569
vt 0.6012808 0.6012808
vt 0.6289062 0.5402595
vt 0.6873173 0.5160648
vt 0.6955650 0.5468458
vt 0.6448396 0.5678569
vt 0.6873173 0.5160648
vt 0.7500000 0.5078125
vt 0.7500000 0.5396793
vt 0.6955650 0.5468458
vt 0.7500000 0.5078125
vt 0.8126827 0.5160648
vt 0.8044350 0.5468458
vt 0.7500000 0.5396793
vt 0.8126827 0.5160648
vt 0.8710938 0.5402595
vt 0.8551604 0.5678569
vt 0.8044350 0.5468458
vt 0.8710938 0.5402595
vt 0.9212524 0.5787476
vt 0.8987192 0.6012808
vt 0.8551604 0.5678569
vt 0.9212524 0.5787476
vt 0.9597405 0.6289062
vt 0.9321431 0.6448396
vt 0.8987192 0.6012808
vt 0.9597405 0.6289062
vt 0.9839352 0.6873173
vt 0.9531542 0.6955650
vt 0.9321431 0.6448396
vt 0.9839352 0.6873173
vt 0.9921875 0.7500000
vt 0.9603207 0.7500000
vt 0.9531542 0.6955650
vt 0.5078125 0.9921875
vt 0.5279948 0.9921875
vt 0.5279948 0.7209375
vt 0.5078125 0.7209375
vt 0.5279948 0.9921875
vt 0.5481771 0.9921875
vt 0.5481771 0.7209375
vt 0.5279948 0.7209375
vt 0.5481771 0.9921875
vt 0.5683594 0.9921875
vt 0.5683594 0.7209375
vt 0.5481771 0.7209375
vt 0.5683594 0.9921875
vt 0.5885417 0.9921875
vt 0.5885417 0.7209375
vt 0.5683594 0.7209375
vt 0.5885417 0.9921875
vt 0.6087239 0.9921875
vt 0.6087239 0.7209375
vt 0.5885417 0.7209375
vt 0.6087239 0.9921875
vt 0.6289062 0.9921875
vt 0.6289062 0.7209375
vt 0.6087239 0.7209375
vt 0.6289062 0.9921875
vt 0.6490886 0.9921875
vt 0.6490886 0.7209375
vt 0.6289062 0.7209375
vt 0.6490886 0.9921875
vt 0.6692708 0.9921875
vt 0.6692708 0.7209375
vt 0.6490886 0.7209375
vt 0.6692708 0.9921875
vt 0.6894531 0.9921875
vt 0.6894531 0.7209375
vt 0.6692708 0.7209375
vt 0.6894531 0.9921875
vt 0.7096354 0.9921875
vt 0.7096354 0.7209375
vt 0.6894531 0.7209375
vt 0.7096354 0.9921875
vt 0.7298177 0.9921875
vt 0.7298177 0.7209375
vt 0.7096354 0.7209375
vt 0.7298177 0.9921875
vt 0.7500000 0.9921875
vt 0.7500000 0.7209375
vt 0.7298177 0.7209375
vt 0.7500000 0.9921875
vt 0.7701823 0.9921875
vt 0.7701823 0.7209375
vt 0.7500000 0.7209375
vt 0.7701823 0.9921875
vt 0.7903646 0.9921875
vt 0.7903646 0.7209375
vt 0.7701823 0.7209375
vt 0.7903646 0.9921875
vt 0.8105469 0.9921875
vt 0.8105469 0.7209375
vt 0.7903646 0.7209375
vt 0.8105469 0.9921875
vt 0.8307292 0.9921875
vt 0.8307292 0.7209375
vt 0.8105469 0.7209375
vt 0.8307292 0.9921875
vt 0.8509114 0.9921875
vt 0.8509114 0.7209375
vt 0.8307292 0.7209375
vt 0.8509114 0.9921875
vt 0.8710938 0.9921875
vt 0.8710938 0.7209375
vt 0.8509114 0.7209375
vt 0.8710938 0.9921875
vt 0.8912761 0.9921875
vt 0.8912761 0.7209375
vt 0.8710938 0.7209375
vt 0.8912761 0.9921875
vt 0.9114583 0.9921875
vt 0.9114583 0.7209375
vt 0.8912761 0.7209375
vt 0.9114583 0.9921875
vt 0.9316406 0.9921875
vt 0.9316406 0.7209375
vt 0.9114583 0.7209375
vt 0.9316406 0.9921875
vt 0.9518229 0.9921875
vt 0.9518229 0.7209375
vt 0.9316406 0.7209375
vt 0.9518229 0.9921875
vt 0.9720052 0.9921875
vt 0.9720052 0.7209375
vt 0.9518229 0.7209375
vt 0.9720052 0.9921875
vt 0.9921875 0.9921875
vt 0.9921875 0.7209375
vt 0.9720052 0.7209375
vt 0.9223733 0.7038127
vt 0.9045457 0.6607730
vt 0.8761860 0.6238140
vt 0.8392270 0.5954543
vt 0.7961873 0.5776267
vt 0.7500000 0.5715461
vt 0.7038127 0.5776267
vt 0.6607730 0.5954543
vt 0.6238140 0.6238140
vt 0.5954543 0.6607730
vt 0.5776267 0.7038127
vt 0.5715461 0.7500000
vt 0.5776267 0.7961873
vt 0.5954543 0.8392270
vt 0.6238140 0.8761860
vt 0.6607730 0.9045457
vt 0.7038127 0.9223733
vt 0.7500000 0.9284539
vt 0.7961873 0.9223733
vt 0.8392270 0.9045457
vt 0.8761860 0.8761860
vt 0.9045457 0.8392270
vt 0.9223733 0.7961873
vt 0.9284539 0.7500000
vt 0.9220806 0.7500000
vt 0.9162171 0.7945377
vt 0.8990262 0.8360403
vt 0.8716794 0.8716794
vt 0.8360403 0.8990262
vt 0.7945377 0.9162171
vt 0.7500000 0.9220806
vt 0.7054623 0.9162171
vt 0.6639597 0.8990262
vt 0.6283206 0.8716794
vt 0.6009738 0.8360403
vt 0.5837829 0.7945377
vt 0.5779194 0.7500000
vt 0.5837829 0.7054623
vt 0.6009738 0.6639597
vt 0.6283206 0.6283206
vt 0.6639597 0.6009738
vt 0.7054623 0.5837829
vt 0.7500000 0.5779194
vt 0.7945377 0.5837829
vt 0.8360403 0.6009738
vt 0.8716794 0.6283206
vt 0.8990262 0.6639597
vt 0.9162171 0.7054623
vt 0.4921875 0.5078125
vt 0.4921875 0.9921875
vt 0.4720052 0.9921875
vt 0.4720052 0.5078125
vt 0.4720052 0.5078125
vt 0.4720052 0.9921875
vt 0.4518229 0.9921875
vt 0.4518229 0.5078125
vt 0.4518229 0.5078125
vt 0.4518229 0.9921875
vt 0.4316406 0.9921875
vt 0.4316406 0.5078125
vt 0.4316406 0.5078125
vt 0.4316406 0.9921875
vt 0.4114583 0.9921875
vt 0.4114583 0.5078125
vt 0.4114583 0.5078125
vt 0.4114583 0.9921875
vt 0.3912760 0.9921875
vt 0.3912760 0.5078125
vt 0.3912760 0.5078125
vt 0.3912760 0.9921875
vt 0.3710938 0.9921875
vt 0.3710938 0.5078125
vt 0.3710938 0.5078125
vt 0.3710938 0.9921875
vt 0.3509115 0.9921875
vt 0.3509115 0.5078125
vt 0.3509115 0.5078125
vt 0.3509115 0.9921875
vt 0.3307292 0.9921875
vt 0.3307292 0.5078125
vt 0.3307292 0.5078125
vt 0.3307292 0.9921875
vt 0.3105469 0.9921875
vt 0.3105469 0.5078125
vt 0.3105469 0.5078125
vt 0.3105469 0.9921875
vt 0.2903646 0.9921875
vt 0.2903646 0.5078125
vt 0.2903646 0.5078125
vt 0.2903646 0.9921875
vt 0.2701823 0.9921875
vt 0.2701823 0.5078125
vt 0.2701823 0.5078125
vt 0.2701823 0.9921875
vt 0.2500000 0.9921875
vt 0.2500000 0.5078125
vt 0.2500000 0.5078125
vt 0.2500000 0.9921875
vt 0.2298177 0.9921875
vt 0.2298177 0.5078125
vt 0.2298177 0.5078125
vt 0.2298177 0.9921875
vt 0.2096354 0.9921875
vt 0.2096354 0.5078125
vt 0.2096354 0.5078125
vt 0.2096354 0.9921875
vt 0.1894531 0.9921875
vt 0.1894531 0.5078125
vt 0.1894531 0.5078125
vt 0.1894531 0.9921875
vt 0.1692708 0.9921875
vt 0.1692708 0.5078125
vt 0.1692708 0.5078125
vt 0.1692708 0.9921875
vt 0.1490885 0.9921875
vt 0.1490885 0.5078125
vt 0.1490885 0.5078125
vt 0.1490885 0.9921875
vt 0.1289062 0.9921875
vt 0.1289062 0.5078125
vt 0.1289062 0.5078125
vt 0.1289062 0.9921875
vt 0.1087240 0.9921875
vt 0.1087240 0.5078125
vt 0.1087240 0.5078125
vt 0.1087240 0.9921875
vt 0.0885417 0.9921875
vt 0.0885417 0.5078125
vt 0.0885417 0.5078125
vt 0.0885417 0.9921875
vt 0.0683594 0.9921875
vt 0.0683594 0.5078125
vt 0.0683594 0.5078125
vt 0.0683594 0.9921875
vt 0.0481771 0.9921875
vt 0.0481771 0.5078125
vt 0.3126827 0.9839352
vt 0.2500000 0.9921875
vt 0.1873173 0.9839352
vt 0.1289062 0.9597405
vt 0.0787476 0.9212524
vt 0.0402595 0.8710938
vt 0.0160648 0.8126827
vt 0.0078125 0.7500000
vt 0.0160648 0.6873173
vt 0.0402595 0.6289062
vt 0.0787476 0.5787476
vt 0.1289062 0.5402595
vt 0.1873173 0.5160648
vt 0.2500000 0.5078125
vt 0.3126827 0.5160648
vt 0.3710938 0.5402595
vt 0.4212524 0.5787476
vt 0.4597405 0.6289062
vt 0.4839352 0.6873173
vt 0.4921875 0.7500000
vt 0.4839352 0.8126827
vt 0.4597405 0.8710938
vt 0.4212524 0.9212524
vt 0.3710938 0.9597405
vt 0.0481771 0.5078125
vt 0.0481771 0.9921875
vt 0.0279948 0.9921875
vt 0.0279948 0.5078125
vt 0.0279948 0.5078125
vt 0.0279948 0.9921875
vt 0.0078125 0.9921875
vt 0.0078125 0.5078125
vt 0.2500000 0.9921875
vt 0.3126827 0.9839352
vt 0.3710938 0.9597405
vt 0.4212524 0.9212524
vt 0.4597405 0.8710938
vt 0.4839352 0.8126827
vt 0.4921875 0.7500000
vt 0.4839352 0.6873173
vt 0.4597405 0.6289062
vt 0.4212524 0.5787476
vt 0.3710938 0.5402595
vt 0.3126827 0.5160648
vt 0.2500000 0.5078125
vt 0.1873173 0.5160648
vt 0.1289062 0.5402595
vt 0.0787476 0.5787476
vt 0.0402595 0.6289062
vt 0.0160648 0.6873173
vt 0.0078125 0.7500000
vt 0.0160648 0.8126827
vt 0.0402595 0.8710938
vt 0.0787476 0.9212524
vt 0.1289062 0.9597405
vt 0.1873173 0.9839352
vt 0.0078125 0.0078125
vt 0.0279948 0.0078125
vt 0.0279948 0.4921875
vt 0.0078125 0.4921875
vt 0.0279948 0.0078125
vt 0.0078125 0.0078125
vt 0.0078125 0.4921875
vt 0.0279948 0.4921875
vt 0.4921875 0.2500000
vt 0.4839351 0.3126827
vt 0.4717192 0.3094095
vt 0.4795406 0.2500000
vt 0.4839351 0.3126827
vt 0.4921875 0.2500000
vt 0.4795406 0.2500000
vt 0.4717192 0.3094095
vt 0.0279948 0.0078125
vt 0.0481771 0.0078125
vt 0.0481771 0.4921875
vt 0.0279948 0.4921875
vt 0.0481771 0.0078125
vt 0.0279948 0.0078125
vt 0.0279948 0.4921875
vt 0.0481771 0.4921875
vt 0.4839351 0.3126827
vt 0.4597405 0.3710938
vt 0.4487880 0.3647703
vt 0.4717192 0.3094095
vt 0.4597405 0.3710938
vt 0.4839351 0.3126827
vt 0.4717192 0.3094095
vt 0.4487880 0.3647703
vt 0.0481771 0.0078125
vt 0.0683594 0.0078125
vt 0.0683594 0.4921875
vt 0.0481771 0.4921875
vt 0.0683594 0.0078125
vt 0.0481771 0.0078125
vt 0.0481771 0.4921875
vt 0.0683594 0.4921875
vt 0.4597405 0.3710938
vt 0.4212524 0.4212524
vt 0.4123098 0.4123098
vt 0.4487880 0.3647703
vt 0.4212524 0.4212524
vt 0.4597405 0.3710938
vt 0.4487880 0.3647703
vt 0.4123098 0.4123098
vt 0.0683594 0.0078125
vt 0.0885417 0.0078125
vt 0.0885417 0.4921875
vt 0.0683594 0.4921875
vt 0.0885417 0.0078125
vt 0.0683594 0.0078125
vt 0.0683594 0.4921875
vt 0.0885417 0.4921875
vt 0.4212524 0.4212524
vt 0.3710938 0.4597405
vt 0.3647703 0.4487880
vt 0.4123098 0.4123098
vt 0.3710938 0.4597405
vt 0.4212524 0.4212524
vt 0.4123098 0.4123098
vt 0.3647703 0.4487880
vt 0.0885417 0.0078125
vt 0.1087240 0.0078125
vt 0.1087240 0.4921875
vt 0.0885417 0.4921875
vt 0.1087240 0.0078125
vt 0.0885417 0.0078125
vt 0.0885417 0.4921875
vt 0.1087240 0.4921875
vt 0.3710938 0.4597405
vt 0.3126827 0.4839351
vt 0.3094095 0.4717192
vt 0.3647703 0.4487880
vt 0.3126827 0.4839351
vt 0.3710938 0.4597405
vt 0.3647703 0.4487880
vt 0.3094095 0.4717192
vt 0.1087240 0.0078125
vt 0.1289062 0.0078125
vt 0.1289062 0.4921875
vt 0.1087240 0.4921875
vt 0.1289062 0.0078125
vt 0.1087240 0.0078125
vt 0.1087240 0.4921875
vt 0.1289062 0.4921875
vt 0.3126827 0.4839351
vt 0.2500000 0.4921875
vt 0.2500000 0.4795406
vt 0.3094095 0.4717192
vt 0.2500000 0.4921875
vt 0.3126827 0.4839351
vt 0.3094095 0.4717192
vt 0.2500000 0.4795406
vt 0.1289062 0.0078125
vt 0.1490885 0.0078125
vt 0.1490885 0.4921875
vt 0.1289062 0.4921875
vt 0.1490885 0.0078125
vt 0.1289062 0.0078125
vt 0.1289062 0.4921875
vt 0.1490885 0.4921875
vt 0.2500000 0.4921875
vt 0.1873173 0.4839351
vt 0.1905905 0.4717192
vt 0.2500000 0.4795406
vt 0.1873173 0.4839351
vt 0.2500000 0.4921875
vt 0.2500000 0.4795406
vt 0.1905905 0.4717192
vt 0.1490885 0.0078125
vt 0.1692708 0.0078125
vt 0.1692708 0.4921875
vt 0.1490885 0.4921875
vt 0.1692708 0.0078125
vt 0.1490885 0.0078125
vt 0.1490885 0.4921875
vt 0.1692708 0.4921875
vt 0.1873173 0.4839351
vt 0.1289062 0.4597405
vt 0.1352297 0.4487880
vt 0.1905905 0.4717192
vt 0.1289062 0.4597405
vt 0.1873173 0.4839351
vt 0.1905905 0.4717192
vt 0.1352297 0.4487880
vt 0.1692708 0.0078125
vt 0.1894531 0.0078125
vt 0.1894531 0.4921875
vt 0.1692708 0.4921875
vt 0.1894531 0.0078125
vt 0.1692708 0.0078125
vt 0.1692708 0.4921875
vt 0.1894531 0.4921875
vt 0.1289062 0.4597405
vt 0.0787476 0.4212524
vt 0.0876902 0.4123098
vt 0.1352297 0.4487880
vt 0.0787476 0.4212524
vt 0.1289062 0.4597405
vt 0.1352297 0.4487880
vt 0.0876902 0.4123098
vt 0.1894531 0.0078125
vt 0.2096354 0.0078125
vt 0.2096354 0.4921875
vt 0.1894531 0.4921875
vt 0.2096354 0.0078125
vt 0.1894531 0.0078125
vt 0.1894531 0.4921875
vt 0.2096354 0.4921875
vt 0.0787476 0.4212524
vt 0.0402595 0.3710938
vt 0.0512120 0.3647703
vt 0.0876902 0.4123098
vt 0.0402595 0.3710938
vt 0.0787476 0.4212524
vt 0.0876902 0.4123098
vt 0.0512120 0.3647703
vt 0.2096354 0.0078125
vt 0.2298177 0.0078125
vt 0.2298177 0.4921875
vt 0.2096354 0.4921875
vt 0.2298177 0.0078125
vt 0.2096354 0.0078125
vt 0.2096354 0.4921875
vt 0.2298177 0.4921875
vt 0.0402595 0.3710938
vt 0.0160648 0.3126827
vt 0.0282808 0.3094095
vt 0.0512120 0.3647703
vt 0.0160648 0.3126827
vt 0.0402595 0.3710938
vt 0.0512120 0.3647703
vt 0.0282808 0.3094095
vt 0.2298177 0.0078125
vt 0.2500000 0.0078125
vt 0.2500000 0.4921875
vt 0.2298177 0.4921875
vt 0.2500000 0.0078125
vt 0.2298177 0.0078125
vt 0.2298177 0.4921875
vt 0.2500000 0.4921875
vt 0.0160648 0.3126827
vt 0.0078125 0.2500000
vt 0.0204594 0.2500000
vt 0.0282808 0.3094095
vt 0.0078125 0.2500000
vt 0.0160648 0.3126827
vt 0.0282808 0.3094095
vt 0.0204594 0.2500000
vt 0.2500000 0.0078125
vt 0.2701823 0.0078125
vt 0.2701823 0.4921875
vt 0.2500000 0.4921875
vt 0.2701823 0.0078125
vt 0.2500000 0.0078125
vt 0.2500000 0.4921875
vt 0.2701823 0.4921875
vt 0.0078125 0.2500000
vt 0.0160648 0.1873173
vt 0.0282808 0.1905905
vt 0.0204594 0.2500000
vt 0.0160648 0.1873173
vt 0.0078125 0.2500000
vt 0.0204594 0.2500000
vt 0.0282808 0.1905905
vt 0.2701823 0.0078125
vt 0.2903646 0.0078125
vt 0.2903646 0.4921875
vt 0.2701823 0.4921875
vt 0.2903646 0.0078125
vt 0.2701823 0.0078125
vt 0.2701823 0.4921875
vt 0.2903646 0.4921875
vt 0.0160648 0.1873173
vt 0.0402595 0.1289062
vt 0.0512120 0.1352297
vt 0.0282808 0.1905905
vt 0.0402595 0.1289062
vt 0.0160648 0.1873173
vt 0.0282808 0.1905905
vt 0.0512120 0.1352297
vt 0.2903646 0.0078125
vt 0.3105469 0.0078125
vt 0.3105469 0.4921875
vt 0.2903646 0.4921875
vt 0.3105469 0.0078125
vt 0.2903646 0.0078125
vt 0.2903646 0.4921875
vt 0.3105469 0.4921875
vt 0.0402595 0.1289062
vt 0.0787476 0.0787476
vt 0.0876902 0.0876902
vt 0.0512120 0.1352297
vt 0.0787476 0.0787476
vt 0.0402595 0.1289062
vt 0.0512120 0.1352297
vt 0.0876902 0.0876902
vt 0.3105469 0.0078125
vt 0.3307292 0.0078125
vt 0.3307292 0.4921875
vt 0.3105469 0.4921875
vt 0.3307292 0.0078125
vt 0.3105469 0.0078125
vt 0.3105469 0.4921875
vt 0.3307292 0.4921875
vt 0.0787476 0.0787476
vt 0.1289062 0.0402595
vt 0.1352297 0.0512120
vt 0.0876902 0.0876902
vt 0.1289062 0.0402595
vt 0.0787476 0.0787476
vt 0.0876902 0.0876902
vt 0.1352297 0.0512120
vt 0.3307292 0.0078125
vt 0.3509115 0.0078125
vt 0.3509115 0.4921875
vt 0.3307292 0.4921875
vt 0.3509115 0.0078125
vt 0.3307292 0.0078125
vt 0.3307292 0.4921875
vt 0.3509115 0.4921875
vt 0.1289062 0.0402595
vt 0.1873173 0.0160648
vt 0.1905905 0.0282808
vt 0.1352297 0.0512120
vt 0.1873173 0.0160648
vt 0.1289062 0.0402595
vt 0.1352297 0.0512120
vt 0.1905905 0.0282808
vt 0.3509115 0.0078125
vt 0.3710938 0.0078125
vt 0.3710938 0.4921875
vt 0.3509115 0.4921875
vt 0.3710938 0.0078125
vt 0.3509115 0.0078125
vt 0.3509115 0.4921875
vt 0.3710938 0.4921875
vt 0.1873173 0.0160648
vt 0.2500000 0.0078125
vt 0.2500000 0.0204594
vt 0.1905905 0.0282808
vt 0.2500000 0.0078125
vt 0.1873173 0.0160648
vt 0.1905905 0.0282808
vt 0.2500000 0.0204594
vt 0.3710938 0.0078125
vt 0.3912760 0.0078125
vt 0.3912760 0.4921875
vt 0.3710938 0.4921875
vt 0.3912760 0.0078125
vt 0.3710938 0.0078125
vt 0.3710938 0.4921875
vt 0.3912760 0.4921875
vt 0.2500000 0.0078125
vt 0.3126827 0.0160648
vt 0.3094095 0.0282808
vt 0.2500000 0.0204594
vt 0.3126827 0.0160648
vt 0.2500000 0.0078125
vt 0.2500000 0.0204594
vt 0.3094095 0.0282808
vt 0.3912760 0.0078125
vt 0.4114583 0.0078125
vt 0.4114583 0.4921875
vt 0.3912760 0.4921875
vt 0.4114583 0.0078125
vt 0.3912760 0.0078125
vt 0.3912760 0.4921875
vt 0.4114583 0.4921875
vt 0.3126827 0.0160648
vt 0.3710938 0.0402595
vt 0.3647703 0.0512120
vt 0.3094095 0.0282808
vt 0.3710938 0.0402595
vt 0.3126827 0.0160648
vt 0.3094095 0.0282808
vt 0.3647703 0.0512120
vt 0.4114583 0.0078125
vt 0.4316406 0.0078125
vt 0.4316406 0.4921875
vt 0.4114583 0.4921875
vt 0.4316406 0.0078125
vt 0.4114583 0.0078125
vt 0.4114583 0.4921875
vt 0.4316406 0.4921875
vt 0.3710938 0.0402595
vt 0.4212524 0.0787476
vt 0.4123098 0.0876902
vt 0.3647703 0.0512120
vt 0.4212524 0.0787476
vt 0.3710938 0.0402595
vt 0.3647703 0.0512120
vt 0.4123098 0.0876902
vt 0.4316406 0.0078125
vt 0.4518229 0.0078125
vt 0.4518229 0.4921875
vt 0.4316406 0.4921875
vt 0.4518229 0.0078125
vt 0.4316406 0.0078125
vt 0.4316406 0.4921875
vt 0.4518229 0.4921875
vt 0.4212524 0.0787476
vt 0.4597405 0.1289062
vt 0.4487880 0.1352297
vt 0.4123098 0.0876902
vt 0.4597405 0.1289062
vt 0.4212524 0.0787476
vt 0.4123098 0.0876902
vt 0.4487880 0.1352297
vt 0.4518229 0.0078125
vt 0.4720052 0.0078125
vt 0.4720052 0.4921875
vt 0.4518229 0.4921875
vt 0.4720052 0.0078125
vt 0.4518229 0.0078125
vt 0.4518229 0.4921875
vt 0.4720052 0.4921875
vt 0.4597405 0.1289062
vt 0.4839351 0.1873173
vt 0.4717192 0.1905905
vt 0.4487880 0.1352297
vt 0.4839351 0.1873173
vt 0.4597405 0.1289062
vt 0.4487880 0.1352297
vt 0.4717192 0.1905905
vt 0.4720052 0.0078125
vt 0.4921875 0.0078125
vt 0.4921875 0.4921875
vt 0.4720052 0.4921875
vt 0.4921875 0.0078125
vt 0.4720052 0.0078125
vt 0.4720052 0.4921875
vt 0.4921875 0.4921875
vt 0.4839351 0.1873173
vt 0.4921875 0.2500000
vt 0.4795406 0.2500000
vt 0.4717192 0.1905905
vt 0.4921875 0.2500000
vt 0.4839351 0.1873173
vt 0.4717192 0.1905905
vt 0.4795406 0.2500000
vt 0.4921875 0.0078125
vt 0.4921875 0.4921875
vt 0.4316406 0.4921875
vt 0.4316406 0.0078125
vt 0.4316406 0.0078125
vt 0.4316406 0.4921875
vt 0.3710938 0.4921875
vt 0.3710938 0.0078125
vt 0.3710938 0.0078125
vt 0.3710938 0.4921875
vt 0.3105469 0.4921875
vt 0.3105469 0.0078125
vt 0.3105469 0.0078125
vt 0.3105469 0.4921875
vt 0.2500000 0.4921875
vt 0.2500000 0.0078125
vt 0.2500000 0.0078125
vt 0.2500000 0.4921875
vt 0.1894531 0.4921875
vt 0.1894531 0.0078125
vt 0.1894531 0.0078125
vt 0.1894531 0.4921875
vt 0.1289062 0.4921875
vt 0.1289062 0.0078125
vt 0.4212524 0.4212524
vt 0.2500000 0.4921875
vt 0.0787476 0.4212524
vt 0.0078125 0.2500000
vt 0.0787476 0.0787476
vt 0.2500000 0.0078125
vt 0.4212524 0.0787476
vt 0.4921875 0.2500000
vt 0.1289062 0.0078125
vt 0.1289062 0.4921875
vt 0.0683594 0.4921875
vt 0.0683594 0.0078125
vt 0.0683594 0.0078125
vt 0.0683594 0.4921875
vt 0.0078125 0.4921875
vt 0.0078125 0.0078125
vt 0.2500000 0.4921875
vt 0.4212524 0.4212524
vt 0.4921875 0.2500000
vt 0.4212524 0.0787476
vt 0.2500000 0.0078125
vt 0.0787476 0.0787476
vt 0.0078125 0.2500000
vt 0.0787476 0.4212524
vt 0.4921875 0.0078125
vt 0.4921875 0.4921875
vt 0.4114583 0.4921875
vt 0.4114583 0.0078125
vt 0.4114583 0.0078125
vt 0.4114583 0.4921875
vt 0.3307292 0.4921875
vt 0.3307292 0.0078125
vt 0.3307292 0.0078125
vt 0.3307292 0.4921875
vt 0.2500000 0.4921875
vt 0.2500000 0.0078125
vt 0.2500000 0.0078125
vt 0.2500000 0.4921875
vt 0.1692708 0.4921875
vt 0.1692708 0.0078125
vt 0.4921875 0.3710938
vt 0.2500000 0.4921875
vt 0.0078125 0.3710938
vt 0.0078125 0.1289062
vt 0.2500000 0.0078125
vt 0.4921875 0.1289062
vt 0.1692708 0.0078125
vt 0.1692708 0.4921875
vt 0.0885417 0.4921875
vt 0.0885417 0.0078125
vt 0.0885417 0.0078125
vt 0.0885417 0.4921875
vt 0.0078125 0.4921875
vt 0.0078125 0.0078125
vt 0.2500000 0.4921875
vt 0.4921875 0.3710938
vt 0.4921875 0.1289062
vt 0.2500000 0.0078125
vt 0.0078125 0.1289062
vt 0.0078125 0.3710938
vt 0.4921875 0.0078125
vt 0.4921875 0.4921875
vt 0.4114583 0.4921875
vt 0.4114583 0.0078125
vt 0.4114583 0.0078125
vt 0.4114583 0.4921875
vt 0.3307292 0.4921875
vt 0.3307292 0.0078125
vt 0.3307292 0.0078125
vt 0.3307292 0.4921875
vt 0.2500000 0.4921875
vt 0.2500000 0.0078125
vt 0.2500000 0.0078125
vt 0.2500000 0.4921875
vt 0.1692708 0.4921875
vt 0.1692708 0.0078125
vt 0.4921875 0.3710938
vt 0.2500000 0.4921875
vt 0.0078125 0.3710938
vt 0.0078125 0.1289062
vt 0.2500000 0.0078125
vt 0.4921875 0.1289062
vt 0.1692708 0.0078125
vt 0.1692708 0.4921875
vt 0.0885417 0.4921875
vt 0.0885417 0.0078125
vt 0.0885417 0.0078125
vt 0.0885417 0.4921875
vt 0.0078125 0.4921875
vt 0.0078125 0.0078125
vt 0.2500000 0.4921875
vt 0.4921875 0.3710938
vt 0.4921875 0.1289062
vt 0.2500000 0.0078125
vt 0.0078125 0.1289062
vt 0.0078125 0.3710938
vt 0.4921875 0.0402595
vt 0.4921875 0.1289062
vt 0.4518229 0.1289062
vt 0.4518229 0.0402595
vt 0.4921875 0.2500000
vt 0.4921875 0.3710938
vt 0.4518229 0.3710938
vt 0.4518229 0.2500000
vt 0.2500000 0.3710937
vt 0.2500000 0.2500000
vt 0.3105469 0.3548703
vt 0.2500000 0.2500000
vt 0.2500000 0.3710937
vt 0.3105469 0.3548703
vt 0.4921875 0.1289062
vt 0.4921875 0.2500000
vt 0.4518229 0.2500000
vt 0.4518229 0.1289062
vt 0.4921875 0.3710938
vt 0.4921875 0.4597405
vt 0.4518229 0.4597405
vt 0.4518229 0.3710938
vt 0.2500000 0.2500000
vt 0.3105469 0.3548703
vt 0.3548703 0.3105469
vt 0.4518229 0.1289062
vt 0.4518229 0.2500000
vt 0.4114583 0.2500000
vt 0.4114583 0.1289062
vt 0.4518229 0.3710938
vt 0.4518229 0.4597405
vt 0.4114583 0.4597405
vt 0.4114583 0.3710938
vt 0.4518229 0.0402595
vt 0.4518229 0.1289062
vt 0.4114583 0.1289062
vt 0.4114583 0.0402595
vt 0.4518229 0.2500000
vt 0.4518229 0.3710938
vt 0.4114583 0.3710938
vt 0.4114583 0.2500000
vt 0.3105469 0.3548703
vt 0.2500000 0.2500000
vt 0.3548703 0.3105469
vt 0.2500000 0.2500000
vt 0.3548703 0.3105469
vt 0.3710938 0.2500000
vt 0.4114583 0.1289062
vt 0.4114583 0.2500000
vt 0.3710938 0.2500000
vt 0.3710938 0.1289062
vt 0.4114583 0.3710938
vt 0.4114583 0.4597405
vt 0.3710938 0.4597405
vt 0.3710938 0.3710938
vt 0.4114583 0.0402595
vt 0.4114583 0.1289062
vt 0.3710938 0.1289062
vt 0.3710938 0.0402595
vt 0.4114583 0.2500000
vt 0.4114583 0.3710938
vt 0.3710938 0.3710938
vt 0.3710938 0.2500000
vt 0.3548703 0.3105469
vt 0.2500000 0.2500000
vt 0.3710938 0.2500000
vt 0.2500000 0.2500000
vt 0.3710938 0.2500000
vt 0.3548703 0.1894531
vt 0.3710938 0.1289062
vt 0.3710938 0.2500000
vt 0.3307292 0.2500000
vt 0.3307292 0.1289062
vt 0.3710938 0.3710938
vt 0.3710938 0.4597405
vt 0.3307292 0.4597405
vt 0.3307292 0.3710938
vt 0.3710938 0.0402595
vt 0.3710938 0.1289062
vt 0.3307292 0.1289062
vt 0.3307292 0.0402595
vt 0.3710938 0.2500000
vt 0.3710938 0.3710938
vt 0.3307292 0.3710938
vt 0.3307292 0.2500000
vt 0.3710938 0.2500000
vt 0.2500000 0.2500000
vt 0.3548703 0.1894531
vt 0.3307292 0.1289062
vt 0.3307292 0.2500000
vt 0.2903646 0.2500000
vt 0.2903646 0.1289062
vt 0.3307292 0.3710938
vt 0.3307292 0.4597405
vt 0.2903646 0.4597405
vt 0.2903646 0.3710938
vt 0.3307292 0.0402595
vt 0.3307292 0.1289062
vt 0.2903646 0.1289062
vt 0.2903646 0.0402595
vt 0.3307292 0.2500000
vt 0.3307292 0.3710938
vt 0.2903646 0.3710938
vt 0.2903646 0.2500000
vt 0.3548703 0.1894531
vt 0.2500000 0.2500000
vt 0.3105468 0.1451297
vt 0.2500000 0.2500000
vt 0.3548703 0.1894531
vt 0.3105468 0.1451297
vt 0.2903646 0.3710938
vt 0.2903646 0.4597405
vt 0.2500000 0.4597405
vt 0.2500000 0.3710938
vt 0.2903646 0.0402595
vt 0.2903646 0.1289062
vt 0.2500000 0.1289062
vt 0.2500000 0.0402595
vt 0.2903646 0.2500000
vt 0.2903646 0.3710938
vt 0.2500000 0.3710938
vt 0.2500000 0.2500000
vt 0.3105468 0.1451297
vt 0.2500000 0.2500000
vt 0.2500000 0.1289062
vt 0.2500000 0.2500000
vt 0.3105468 0.1451297
vt 0.2500000 0.1289062
vt 0.2903646 0.1289062
vt 0.2903646 0.2500000
vt 0.2500000 0.2500000
vt 0.2500000 0.1289062
vt 0.2500000 0.0402595
vt 0.2500000 0.1289062
vt 0.2096354 0.1289062
vt 0.2096354 0.0402595
vt 0.2500000 0.2500000
vt 0.2500000 0.3710938
vt 0.2096354 0.3710938
vt 0.2096354 0.2500000
vt 0.2500000 0.1289062
vt 0.2500000 0.2500000
vt 0.1894531 0.1451297
vt 0.2500000 0.2500000
vt 0.2500000 0.1289062
vt 0.1894531 0.1451297
vt 0.2500000 0.1289062
vt 0.2500000 0.2500000
vt 0.2096354 0.2500000
vt 0.2096354 0.1289062
vt 0.2500000 0.3710938
vt 0.2500000 0.4597405
vt 0.2096354 0.4597405
vt 0.2096354 0.3710938
vt 0.2096354 0.0402595
vt 0.2096354 0.1289062
vt 0.1692708 0.1289062
vt 0.1692708 0.0402595
vt 0.2096354 0.2500000
vt 0.2096354 0.3710938
vt 0.1692708 0.3710938
vt 0.1692708 0.2500000
vt 0.1894531 0.1451297
vt 0.2500000 0.2500000
vt 0.1451297 0.1894531
vt 0.2500000 0.2500000
vt 0.1894531 0.1451297
vt 0.1451297 0.1894531
vt 0.2096354 0.1289062
vt 0.2096354 0.2500000
vt 0.1692708 0.2500000
vt 0.1692708 0.1289062
vt 0.2096354 0.3710938
vt 0.2096354 0.4597405
vt 0.1692708 0.4597405
vt 0.1692708 0.3710938
vt 0.1692708 0.0402595
vt 0.1692708 0.1289062
vt 0.1289062 0.1289062
vt 0.1289062 0.0402595
vt 0.1692708 0.2500000
vt 0.1692708 0.3710938
vt 0.1289062 0.3710938
vt 0.1289062 0.2500000
vt 0.1451297 0.1894531
vt 0.2500000 0.2500000
vt 0.1289062 0.2500000
vt 0.2500000 0.2500000
vt 0.1451297 0.1894531
vt 0.1289062 0.2500000
vt 0.1692708 0.1289062
vt 0.1692708 0.2500000
vt 0.1289062 0.2500000
vt 0.1289062 0.1289062
vt 0.1692708 0.3710938
vt 0.1692708 0.4597405
vt 0.1289062 0.4597405
vt 0.1289062 0.3710938
vt 0.1289062 0.0402595
vt 0.1289062 0.1289062
vt 0.0885417 0.1289062
vt 0.0885417 0.0402595
vt 0.1289062 0.2500000
vt 0.1289062 0.3710938
vt 0.0885417 0.3710938
vt 0.0885417 0.2500000
vt 0.1289062 0.2500000
vt 0.2500000 0.2500000
vt 0.1451297 0.3105469
vt 0.2500000 0.2500000
vt 0.1289062 0.2500000
vt 0.1451297 0.3105469
vt 0.1289062 0.1289062
vt 0.1289062 0.2500000
vt 0.0885417 0.2500000
vt 0.0885417 0.1289062
vt 0.1289062 0.3710938
vt 0.1289062 0.4597405
vt 0.0885417 0.4597405
vt 0.0885417 0.3710938
vt 0.0885417 0.2500000
vt 0.0885417 0.3710938
vt 0.0481771 0.3710938
vt 0.0481771 0.2500000
vt 0.1451297 0.3105469
vt 0.2500000 0.2500000
vt 0.1894531 0.3548703
vt 0.2500000 0.2500000
vt 0.1451297 0.3105469
vt 0.1894531 0.3548703
vt 0.0885417 0.1289062
vt 0.0885417 0.2500000
vt 0.0481771 0.2500000
vt 0.0481771 0.1289062
vt 0.0885417 0.3710938
vt 0.0885417 0.4597405
vt 0.0481771 0.4597405
vt 0.0481771 0.3710938
vt 0.0885417 0.0402595
vt 0.0885417 0.1289062
vt 0.0481771 0.1289062
vt 0.0481771 0.0402595
vt 0.1894531 0.3548703
vt 0.2500000 0.2500000
vt 0.2500000 0.3710937
vt 0.2500000 0.2500000
vt 0.1894531 0.3548703
vt 0.2500000 0.3710937
vt 0.0481771 0.1289062
vt 0.0481771 0.2500000
vt 0.0078125 0.2500000
vt 0.0078125 0.1289062
vt 0.0481771 0.3710938
vt 0.0481771 0.4597405
vt 0.0078125 0.4597405
vt 0.0078125 0.3710938
vt 0.0481771 0.0402595
vt 0.0481771 0.1289062
vt 0.0078125 0.1289062
vt 0.0078125 0.0402595
vt 0.0481771 0.2500000
vt 0.0481771 0.3710938
vt 0.0078125 0.3710938
vt 0.0078125 0.2500000
usemtl roulette_wheel
f 1/1 2/2 26/3
f 1/1 26/3 25/4
f 2/5 3/6 27/7
f 2/5 27/7 26/8
f 3/9 4/10 28/11
f 3/9 28/11 27/12
f 4/13 5/14 29/15
f 4/13 29/15 28/16
f 5/17 6/18 30/19
f 5/17 30/19 29/20
f 6/21 7/22 31/23
f 6/21 31/23 30/24
f 7/25 8/26 32/27
f 7/25 32/27 31/28
f 8/29 9/30 33/31
f 8/29 33/31 32/32
f 9/33 10/34 34/35
f 9/33 34/35 33/36
f 10/37 11/38 35/39
f 10/37 35/39 34/40
f 11/41 12/42 36/43
f 11/41 36/43 35/44
f 12/45 13/46 37/47
f 12/45 37/47 36/48
f 13/49 14/50 38/51
f 13/49 38/51 37/52
f 14/53 15/54 39/55
f 14/53 39/55 38/56
f 15/57 16/58 40/59
f 15/57 40/59 39/60
f 16/61 17/62 41/63
f 16/61 41/63 40/64
f 17/65 18/66 42/67
f 17/65 42/67 41/68
f 18/69 19/70 43/71
f 18/69 43/71 42/72
f 19/73 20/74 44/75
f 19/73 44/75 43/76
f 20/77 21/78 45/79
f 20/77 45/79 44/80
f 21/81 22/82 46/83
f 21/81 46/83 45/84
f 22/85 23/86 47/87
f 22/85 47/87 46/88
f 23/89 24/90 48/91
f 23/89 48/91 47/92
f 24/93 1/94 25/95
f 24/93 25/95 48/96
f 25/97 26/98 50/99
f 25/97 50/99 49/100
f 26/101 27/102 51/103
f 26/101 51/103 50/104
f 27/105 28/106 52/107
f 27/105 52/107 51/108
f 28/109 29/110 53/111
f 28/109 53/111 52/112
f 29/113 30/114 54/115
f 29/113 54/115 53/116
f 30/117 31/118 55/119
f 30/117 55/119 54/120
f 31/121 32/122 56/123
f 31/121 56/123 55/124
f 32/125 33/126 57/127
f 32/125 57/127 56/128
f 33/129 34/130 58/131
f 33/129 58/131 57/132
f 34/133 35/134 59/135
f 34/133 59/135 58/136
f 35/137 36/138 60/139
f 35/137 60/139 59/140
f 36/141 37/142 61/143
f 36/141 61/143 60/144
f 37/145 38/146 62/147
f 37/145 62/147 61/148
f 38/149 39/150 63/151
f 38/149 63/151 62/152
f 39/153 40/154 64/155
f 39/153 64/155 63/156
f 40/157 41/158 65/159
f 40/157 65/159 64/160
f 41/161 42/162 66/163
f 41/161 66/163 65/164
f 42/165 43/166 67/167
f 42/165 67/167 66/168
f 43/169 44/170 68/171
f 43/169 68/171 67/172
f 44/173 45/174 69/175
f 44/173 69/175 68/176
f 45/177 46/178 70/179
f 45/177 70/179 69/180
f 46/181 47/182 71/183
f 46/181 71/183 70/184
f 47/185 48/186 72/187
f 47/185 72/187 71/188
f 48/189 25/190 49/191
f 48/189 49/191 72/192
f 49/193 50/194 74/195
f 49/193 74/195 73/196
f 50/197 51/198 75/199
f 50/197 75/199 74/200
f 51/201 52/202 76/203
f 51/201 76/203 75/204
f 52/205 53/206 77/207
f 52/205 77/207 76/208
f 53/209 54/210 78/211
f 53/209 78/211 77/212
f 54/213 55/214 79/215
f 54/213 79/215 78/216
f 55/217 56/218 80/219
f 55/217 80/219 79/220
f 56/221 57/222 81/223
f 56/221 81/223 80/224
f 57/225 58/226 82/227
f 57/225 82/227 81/228
f 58/229 59/230 83/231
f 58/229 83/231 82/232
f 59/233 60/234 84/235
f 59/233 84/235 83/236
f 60/237 61/238 85/239
f 60/237 85/239 84/240
f 61/241 62/242 86/243
f 61/241 86/243 85/244
f 62/245 63/246 87/247
f 62/245 87/247 86/248
f 63/249 64/250 88/251
f 63/249 88/251 87/252
f 64/253 65/254 89/255
f 64/253 89/255 88/256
f 65/257 66/258 90/259
f 65/257 90/259 89/260
f 66/261 67/262 91/263
f 66/261 91/263 90/264
f 67/265 68/266 92/267
f 67/265 92/267 91/268
f 68/269 69/270 93/271
f 68/269 93/271 92/272
f 69/273 70/274 94/275
f 69/273 94/275 93/276
f 70/277 71/278 95/279
f 70/277 95/279 94/280
f 71/281 72/282 96/283
f 71/281 96/283 95/284
f 72/285 49/286 73/287
f 72/285 73/287 96/288
f 73/289 74/290 98/291
f 73/289 98/291 97/292
f 74/293 75/294 99/295
f 74/293 99/295 98/296
f 75/297 76/298 100/299
f 75/297 100/299 99/300
f 76/301 77/302 101/303
f 76/301 101/303 100/304
f 77/305 78/306 102/307
f 77/305 102/307 101/308
f 78/309 79/310 103/311
f 78/309 103/311 102/312
f 79/313 80/314 104/315
f 79/313 104/315 103/316
f 80/317 81/318 105/319
f 80/317 105/319 104/320
f 81/321 82/322 106/323
f 81/321 106/323 105/324
f 82/325 83/326 107/327
f 82/325 107/327 106/328
f 83/329 84/330 108/331
f 83/329 108/331 107/332
f 84/333 85/334 109/335
f 84/333 109/335 108/336
f 85/337 86/338 110/339
f 85/337 110/339 109/340
f 86/341 87/342 111/343
f 86/341 111/343 110/344
f 87/345 88/346 112/347
f 87/345 112/347 111/348
f 88/349 89/350 113/351
f 88/349 113/351 112/352
f 89/353 90/354 114/355
f 89/353 114/355 113/356
f 90/357 91/358 115/359
f 90/357 115/359 114/360
f 91/361 92/362 116/363
f 91/361 116/363 115/364
f 92/365 93/366 117/367
f 92/365 117/367 116/368
f 93/369 94/370 118/371
f 93/369 118/371 117/372
f 94/373 95/374 119/375
f 94/373 119/375 118/376
f 95/377 96/378 120/379
f 95/377 120/379 119/380
f 96/381 73/382 97/383
f 96/381 97/383 120/384
f 97/385 98/386 122/387
f 97/385 122/387 121/388
f 98/389 99/390 123/391
f 98/389 123/391 122/392
f 99/393 100/394 124/395
f 99/393 124/395 123/396
f 100/397 101/398 125/399
f 100/397 125/399 124/400
f 101/401 102/402 126/403
f 101/401 126/403 125/404
f 102/405 103/406 127/407
f 102/405 127/407 126/408
f 103/409 104/410 128/411
f 103/409 128/411 127/412
f 104/413 105/414 129/415
f 104/413 129/415 128/416
f 105/417 106/418 130/419
f 105/417 130/419 129/420
f 106/421 107/422 131/423
f 106/421 131/423 130/424
f 107/425 108/426 132/427
f 107/425 132/427 131/428
f 108/429 109/430 133/431
f 108/429 133/431 132/432
f 109/433 110/434 134/435
f 109/433 134/435 133/436
f 110/437 111/438 135/439
f 110/437 135/439 134/440
f 111/441 112/442 136/443
f 111/441 136/443 135/444
f 112/445 113/446 137/447
f 112/445 137/447 136/448
f 113/449 114/450 138/451
f 113/449 138/451 137/452
f 114/453 115/454 139/455
f 114/453 139/455 138/456
f 115/457 116/458 140/459
f 115/457 140/459 139/460
f 116/461 117/462 141/463
f 116/461 141/463 140/464
f 117/465 118/466 142/467
f 117/465 142/467 141/468
f 118/469 119/470 143/471
f 118/469 143/471 142/472
f 119/473 120/474 144/475
f 119/473 144/475 143/476
f 120/477 97/478 121/479
f 120/477 121/479 144/480
f 1/504 24/481 23/482
f 23/482 22/483 21/484
f 21/484 20/485 19/486
f 19/486 18/487 17/488
f 17/488 16/489 15/490
f 15/490 14/491 13/492
f 13/492 12/493 11/494
f 11/494 10/495 9/496
f 9/496 8/497 7/498
f 7/498 6/499 5/500
f 5/500 4/501 3/502
f 3/502 2/503 1/504
f 1/504 23/482 21/484
f 21/484 19/486 17/488
f 17/488 15/490 13/492
f 13/492 11/494 9/496
f 9/496 7/498 5/500
f 5/500 3/502 1/504
f 1/504 21/484 17/488
f 17/488 13/492 9/496
f 9/496 5/500 1/504
f 17/488 9/496 1/504
f 144/528 121/505 122/506
f 122/506 123/507 124/508
f 124/508 125/509 126/510
f 126/510 127/511 128/512
f 128/512 129/513 130/514
f 130/514 131/515 132/516
f 132/516 133/517 134/518
f 134/518 135/519 136/520
f 136/520 137/521 138/522
f 138/522 139/523 140/524
f 140/524 141/525 142/526
f 142/526 143/527 144/528
f 144/528 122/506 124/508
f 124/508 126/510 128/512
f 128/512 130/514 132/516
f 132/516 134/518 136/520
f 136/520 138/522 140/524
f 140/524 142/526 144/528
f 144/528 124/508 128/512
f 128/512 132/516 136/520
f 136/520 140/524 144/528
f 128/512 136/520 144/528
f 145/529 146/530 148/531
f 145/529 148/531 147/532
f 147/533 148/534 150/535
f 147/533 150/535 149/536
f 149/537 150/538 152/539
f 149/537 152/539 151/540
f 151/541 152/542 154/543
f 151/541 154/543 153/544
f 153/545 154/546 156/547
f 153/545 156/547 155/548
f 155/549 156/550 158/551
f 155/549 158/551 157/552
f 157/553 158/554 160/555
f 157/553 160/555 159/556
f 159/557 160/558 162/559
f 159/557 162/559 161/560
f 161/561 162/562 164/563
f 161/561 164/563 163/564
f 163/565 164/566 166/567
f 163/565 166/567 165/568
f 165/569 166/570 168/571
f 165/569 168/571 167/572
f 167/573 168/574 170/575
f 167/573 170/575 169/576
f 169/577 170/578 172/579
f 169/577 172/579 171/580
f 171/581 172/582 174/583
f 171/581 174/583 173/584
f 173/585 174/586 176/587
f 173/585 176/587 175/588
f 175/589 176/590 178/591
f 175/589 178/591 177/592
f 177/593 178/594 180/595
f 177/593 180/595 179/596
f 179/597 180/598 182/599
f 179/597 182/599 181/600
f 181/601 182/602 184/603
f 181/601 184/603 183/604
f 183/605 184/606 186/607
f 183/605 186/607 185/608
f 185/609 186/610 188/611
f 185/609 188/611 187/612
f 187/613 188/614 190/615
f 187/613 190/615 189/616
f 150/640 148/617 146/618
f 146/618 192/619 190/620
f 190/620 188/621 186/622
f 186/622 184/623 182/624
f 182/624 180/625 178/626
f 178/626 176/627 174/628
f 174/628 172/629 170/630
f 170/630 168/631 166/632
f 166/632 164/633 162/634
f 162/634 160/635 158/636
f 158/636 156/637 154/638
f 154/638 152/639 150/640
f 150/640 146/618 190/620
f 190/620 186/622 182/624
f 182/624 178/626 174/628
f 174/628 170/630 166/632
f 166/632 162/634 158/636
f 158/636 154/638 150/640
f 150/640 190/620 182/624
f 182/624 174/628 166/632
f 166/632 158/636 150/640
f 182/624 166/632 150/640
f 189/641 190/642 192/643
f 189/641 192/643 191/644
f 191/645 192/646 146/647
f 191/645 146/647 145/648
f 191/672 145/649 147/650
f 147/650 149/651 151/652
f 151/652 153/653 155/654
f 155/654 157/655 159/656
f 159/656 161/657 163/658
f 163/658 165/659 167/660
f 167/660 169/661 171/662
f 171/662 173/663 175/664
f 175/664 177/665 179/666
f 179/666 181/667 183/668
f 183/668 185/669 187/670
f 187/670 189/671 191/672
f 191/672 147/650 151/652
f 151/652 155/654 159/656
f 159/656 163/658 167/660
f 167/660 171/662 175/664
f 175/664 179/666 183/668
f 183/668 187/670 191/672
f 191/672 151/652 159/656
f 159/656 167/660 175/664
f 175/664 183/668 191/672
f 159/656 175/664 191/672
f 193/673 194/674 242/675
f 193/673 242/675 241/676
f 218/677 217/678 265/679
f 218/677 265/679 266/680
f 241/681 242/682 266/683
f 241/681 266/683 265/684
f 194/685 193/686 217/687
f 194/685 217/687 218/688
f 194/689 195/690 243/691
f 194/689 243/691 242/692
f 219/693 218/694 266/695
f 219/693 266/695 267/696
f 242/697 243/698 267/699
f 242/697 267/699 266/700
f 195/701 194/702 218/703
f 195/701 218/703 219/704
f 195/705 196/706 244/707
f 195/705 244/707 243/708
f 220/709 219/710 267/711
f 220/709 267/711 268/712
f 243/713 244/714 268/715
f 243/713 268/715 267/716
f 196/717 195/718 219/719
f 196/717 219/719 220/720
f 196/721 197/722 245/723
f 196/721 245/723 244/724
f 221/725 220/726 268/727
f 221/725 268/727 269/728
f 244/729 245/730 269/731
f 244/729 269/731 268/732
f 197/733 196/734 220/735
f 197/733 220/735 221/736
f 197/737 198/738 246/739
f 197/737 246/739 245/740
f 222/741 221/742 269/743
f 222/741 269/743 270/744
f 245/745 246/746 270/747
f 245/745 270/747 269/748
f 198/749 197/750 221/751
f 198/749 221/751 222/752
f 198/753 199/754 247/755
f 198/753 247/755 246/756
f 223/757 222/758 270/759
f 223/757 270/759 271/760
f 246/761 247/762 271/763
f 246/761 271/763 270/764
f 199/765 198/766 222/767
f 199/765 222/767 223/768
f 199/769 200/770 248/771
f 199/769 248/771 247/772
f 224/773 223/774 271/775
f 224/773 271/775 272/776
f 247/777 248/778 272/779
f 247/777 272/779 271/780
f 200/781 199/782 223/783
f 200/781 223/783 224/784
f 200/785 201/786 249/787
f 200/785 249/787 248/788
f 225/789 224/790 272/791
f 225/789 272/791 273/792
f 248/793 249/794 273/795
f 248/793 273/795 272/796
f 201/797 200/798 224/799
f 201/797 224/799 225/800
f 201/801 202/802 250/803
f 201/801 250/803 249/804
f 226/805 225/806 273/807
f 226/805 273/807 274/808
f 249/809 250/810 274/811
f 249/809 274/811 273/812
f 202/813 201/814 225/815
f 202/813 225/815 226/816
f 202/817 203/818 251/819
f 202/817 251/819 250/820
f 227/821 226/822 274/823
f 227/821 274/823 275/824
f 250/825 251/826 275/827
f 250/825 275/827 274/828
f 203/829 202/830 226/831
f 203/829 226/831 227/832
f 203/833 204/834 252/835
f 203/833 252/835 251/836
f 228/837 227/838 275/839
f 228/837 275/839 276/840
f 251/841 252/842 276/843
f 251/841 276/843 275/844
f 204/845 203/846 227/847
f 204/845 227/847 228/848
f 204/849 205/850 253/851
f 204/849 253/851 252/852
f 229/853 228/854 276/855
f 229/853 276/855 277/856
f 252/857 253/858 277/859
f 252/857 277/859 276/860
f 205/861 204/862 228/863
f 205/861 228/863 229/864
f 205/865 206/866 254/867
f 205/865 254/867 253/868
f 230/869 229/870 277/871
f 230/869 277/871 278/872
f 253/873 254/874 278/875
f 253/873 278/875 277/876
f 206/877 205/878 229/879
f 206/877 229/879 230/880
f 206/881 207/882 255/883
f 206/881 255/883 254/884
f 231/885 230/886 278/887
f 231/885 278/887 279/888
f 254/889 255/890 279/891
f 254/889 279/891 278/892
f 207/893 206/894 230/895
f 207/893 230/895 231/896
f 207/897 208/898 256/899
f 207/897 256/899 255/900
f 232/901 231/902 279/903
f 232/901 279/903 280/904
f 255/905 256/906 280/907
f 255/905 280/907 279/908
f 208/909 207/910 231/911
f 208/909 231/911 232/912
f 208/913 209/914 257/915
f 208/913 257/915 256/916
f 233/917 232/918 280/919
f 233/917 280/919 281/920
f 256/921 257/922 281/923
f 256/921 281/923 280/924
f 209/925 208/926 232/927
f 209/925 232/927 233/928
f 209/929 210/930 258/931
f 209/929 258/931 257/932
f 234/933 233/934 281/935
f 234/933 281/935 282/936
f 257/937 258/938 282/939
f 257/937 282/939 281/940
f 210/941 209/942 233/943
f 210/941 233/943 234/944
f 210/945 211/946 259/947
f 210/945 259/947 258/948
f 235/949 234/950 282/951
f 235/949 282/951 283/952
f 258/953 259/954 283/955
f 258/953 283/955 282/956
f 211/957 210/958 234/959
f 211/957 234/959 235/960
f 211/961 212/962 260/963
f 211/961 260/963 259/964
f 236/965 235/966 283/967
f 236/965 283/967 284/968
f 259/969 260/970 284/971
f 259/969 284/971 283/972
f 212/973 211/974 235/975
f 212/973 235/975 236/976
f 212/977 213/978 261/979
f 212/977 261/979 260/980
f 237/981 236/982 284/983
f 237/981 284/983 285/984
f 260/985 261/986 285/987
f 260/985 285/987 284/988
f 213/989 212/990 236/991
f 213/989 236/991 237/992
f 213/993 214/994 262/995
f 213/993 262/995 261/996
f 238/997 237/998 285/999
f 238/997 285/999 286/1000
f 261/1001 262/1002 286/1003
f 261/1001 286/1003 285/1004
f 214/1005 213/1006 237/1007
f 214/1005 237/1007 238/1008
f 214/1009 215/1010 263/1011
f 214/1009 263/1011 262/1012
f 239/1013 238/1014 286/1015
f 239/1013 286/1015 287/1016
f 262/1017 263/1018 287/1019
f 262/1017 287/1019 286/1020
f 215/1021 214/1022 238/1023
f 215/1021 238/1023 239/1024
f 215/1025 216/1026 264/1027
f 215/1025 264/1027 263/1028
f 240/1029 239/1030 287/1031
f 240/1029 287/1031 288/1032
f 263/1033 264/1034 288/1035
f 263/1033 288/1035 287/1036
f 216/1037 215/1038 239/1039
f 216/1037 239/1039 240/1040
f 216/1041 193/1042 241/1043
f 216/1041 241/1043 264/1044
f 217/1045 240/1046 288/1047
f 217/1045 288/1047 265/1048
f 264/1049 241/1050 265/1051
f 264/1049 265/1051 288/1052
f 193/1053 216/1054 240/1055
f 193/1053 240/1055 217/1056
f 289/1057 290/1058 292/1059
f 289/1057 292/1059 291/1060
f 291/1061 292/1062 294/1063
f 291/1061 294/1063 293/1064
f 293/1065 294/1066 296/1067
f 293/1065 296/1067 295/1068
f 295/1069 296/1070 298/1071
f 295/1069 298/1071 297/1072
f 297/1073 298/1074 300/1075
f 297/1073 300/1075 299/1076
f 299/1077 300/1078 302/1079
f 299/1077 302/1079 301/1080
f 294/1088 292/1081 290/1082
f 290/1082 304/1083 302/1084
f 302/1084 300/1085 298/1086
f 298/1086 296/1087 294/1088
f 294/1088 290/1082 302/1084
f 302/1084 298/1086 294/1088
f 301/1089 302/1090 304/1091
f 301/1089 304/1091 303/1092
f 303/1093 304/1094 290/1095
f 303/1093 290/1095 289/1096
f 303/1104 289/1097 291/1098
f 291/1098 293/1099 295/1100
f 295/1100 297/1101 299/1102
f 299/1102 301/1103 303/1104
f 303/1104 291/1098 295/1100
f 295/1100 299/1102 303/1104
f 305/1105 306/1106 308/1107
f 305/1105 308/1107 307/1108
f 307/1109 308/1110 310/1111
f 307/1109 310/1111 309/1112
f 309/1113 310/1114 312/1115
f 309/1113 312/1115 311/1116
f 311/1117 312/1118 314/1119
f 311/1117 314/1119 313/1120
f 310/1126 308/1121 306/1122
f 306/1122 316/1123 314/1124
f 314/1124 312/1125 310/1126
f 306/1122 314/1124 310/1126
f 313/1127 314/1128 316/1129
f 313/1127 316/1129 315/1130
f 315/1131 316/1132 306/1133
f 315/1131 306/1133 305/1134
f 315/1140 305/1135 307/1136
f 307/1136 309/1137 311/1138
f 311/1138 313/1139 315/1140
f 307/1136 311/1138 315/1140
f 317/1141 318/1142 320/1143
f 317/1141 320/1143 319/1144
f 319/1145 320/1146 322/1147
f 319/1145 322/1147 321/1148
f 321/1149 322/1150 324/1151
f 321/1149 324/1151 323/1152
f 323/1153 324/1154 326/1155
f 323/1153 326/1155 325/1156
f 322/1162 320/1157 318/1158
f 318/1158 328/1159 326/1160
f 326/1160 324/1161 322/1162
f 318/1158 326/1160 322/1162
f 325/1163 326/1164 328/1165
f 325/1163 328/1165 327/1166
f 327/1167 328/1168 318/1169
f 327/1167 318/1169 317/1170
f 327/1176 317/1171 319/1172
f 319/1172 321/1173 323/1174
f 323/1174 325/1175 327/1176
f 319/1172 323/1174 327/1176
f 390/1177 389/1178 333/1179
f 390/1177 333/1179 334/1180
f 329/1181 388/1182 331/1183
f 329/1181 331/1183 332/1184
f 387/1185 366/1186 330/1187
f 365/1188 390/1189 334/1190
f 389/1191 329/1192 332/1193
f 389/1191 332/1193 333/1194
f 388/1195 387/1196 330/1197
f 388/1195 330/1197 331/1198
f 365/1199 334/1200 339/1201
f 333/1202 332/1203 337/1204
f 333/1202 337/1204 338/1205
f 331/1206 330/1207 335/1208
f 331/1206 335/1208 336/1209
f 334/1210 333/1211 338/1212
f 334/1210 338/1212 339/1213
f 332/1214 331/1215 336/1216
f 332/1214 336/1216 337/1217
f 330/1218 366/1219 335/1220
f 365/1221 339/1222 344/1223
f 338/1224 337/1225 342/1226
f 338/1224 342/1226 343/1227
f 336/1228 335/1229 340/1230
f 336/1228 340/1230 341/1231
f 339/1232 338/1233 343/1234
f 339/1232 343/1234 344/1235
f 337/1236 336/1237 341/1238
f 337/1236 341/1238 342/1239
f 335/1240 366/1241 340/1242
f 365/1243 344/1244 349/1245
f 343/1246 342/1247 347/1248
f 343/1246 347/1248 348/1249
f 341/1250 340/1251 345/1252
f 341/1250 345/1252 346/1253
f 344/1254 343/1255 348/1256
f 344/1254 348/1256 349/1257
f 342/1258 341/1259 346/1260
f 342/1258 346/1260 347/1261
f 340/1262 366/1263 345/1264
f 348/1265 347/1266 352/1267
f 348/1265 352/1267 353/1268
f 346/1269 345/1270 350/1271
f 346/1269 350/1271 351/1272
f 349/1273 348/1274 353/1275
f 349/1273 353/1275 354/1276
f 347/1277 346/1278 351/1279
f 347/1277 351/1279 352/1280
f 345/1281 366/1282 350/1283
f 365/1284 349/1285 354/1286
f 351/1287 350/1288 355/1289
f 351/1287 355/1289 356/1290
f 354/1291 353/1292 358/1293
f 354/1291 358/1293 359/1294
f 352/1295 351/1296 356/1297
f 352/1295 356/1297 357/1298
f 350/1299 366/1300 355/1301
f 365/1302 354/1303 359/1304
f 353/1305 352/1306 357/1307
f 353/1305 357/1307 358/1308
f 359/1309 358/1310 363/1311
f 359/1309 363/1311 364/1312
f 357/1313 356/1314 361/1315
f 357/1313 361/1315 362/1316
f 355/1317 366/1318 360/1319
f 365/1320 359/1321 364/1322
f 358/1323 357/1324 362/1325
f 358/1323 362/1325 363/1326
f 356/1327 355/1328 360/1329
f 356/1327 360/1329 361/1330
f 364/1331 363/1332 370/1333
f 364/1331 370/1333 371/1334
f 362/1335 361/1336 368/1337
f 362/1335 368/1337 369/1338
f 360/1339 366/1340 367/1341
f 365/1342 364/1343 371/1344
f 363/1345 362/1346 369/1347
f 363/1345 369/1347 370/1348
f 361/1349 360/1350 367/1351
f 361/1349 367/1351 368/1352
f 371/1353 370/1354 375/1355
f 371/1353 375/1355 376/1356
f 369/1357 368/1358 373/1359
f 369/1357 373/1359 374/1360
f 367/1361 366/1362 372/1363
f 365/1364 371/1365 376/1366
f 370/1367 369/1368 374/1369
f 370/1367 374/1369 375/1370
f 368/1371 367/1372 372/1373
f 368/1371 372/1373 373/1374
f 376/1375 375/1376 380/1377
f 376/1375 380/1377 381/1378
f 374/1379 373/1380 378/1381
f 374/1379 378/1381 379/1382
f 372/1383 366/1384 377/1385
f 365/1386 376/1387 381/1388
f 375/1389 374/1390 379/1391
f 375/1389 379/1391 380/1392
f 373/1393 372/1394 377/1395
f 373/1393 377/1395 378/1396
f 379/1397 378/1398 383/1399
f 379/1397 383/1399 384/1400
f 377/1401 366/1402 382/1403
f 365/1404 381/1405 386/1406
f 380/1407 379/1408 384/1409
f 380/1407 384/1409 385/1410
f 378/1411 377/1412 382/1413
f 378/1411 382/1413 383/1414
f 381/1415 380/1416 385/1417
f 381/1415 385/1417 386/1418
f 382/1419 366/1420 387/1421
f 365/1422 386/1423 390/1424
f 385/1425 384/1426 329/1427
f 385/1425 329/1427 389/1428
f 383/1429 382/1430 387/1431
f 383/1429 387/1431 388/1432
f 386/1433 385/1434 389/1435
f 386/1433 389/1435 390/1436
f 384/1437 383/1438 388/1439
f 384/1437 388/1439 329/1440
