<svg xmlns="http://www.w3.org/2000/svg" viewBox="0 0 512 512"><rect width="512" height="512" fill="#242729"/><polygon points="264.00,248.00 284.00,248.00 284.00,20.00 264.00,20.00" fill="none" stroke="#b4cfb0" stroke-width="0.5"/><polygon points="284.00,248.00 304.00,248.00 304.00,20.00 284.00,20.00" fill="none" stroke="#b4cfb0" stroke-width="0.5"/><polygon points="304.00,248.00 324.00,248.00 324.00,20.00 304.00,20.00" fill="none" stroke="#b4cfb0" stroke-width="0.5"/><polygon points="324.00,248.00 344.00,248.00 344.00,20.00 324.00,20.00" fill="none" stroke="#b4cfb0" stroke-width="0.5"/><polygon points="344.00,248.00 364.00,248.00 364.00,20.00 344.00,20.00" fill="none" stroke="#b4cfb0" stroke-width="0.5"/><polygon points="364.00,248.00 384.00,248.00 384.00,20.00 364.00,20.00" fill="none" stroke="#b4cfb0" stroke-width="0.5"/><polygon points="384.00,248.00 404.00,248.00 404.00,20.00 384.00,20.00" fill="none" stroke="#b4cfb0" stroke-width="0.5"/><polygon points="404.00,248.00 424.00,248.00 424.00,20.00 404.00,20.00" fill="none" stroke="#b4cfb0" stroke-width="0.5"/><polygon points="424.00,248.00 444.00,248.00 444.00,20.00 424.00,20.00" fill="none" stroke="#b4cfb0" stroke-width="0.5"/><polygon points="444.00,248.00 464.00,248.00 464.00,20.00 444.00,20.00" fill="none" stroke="#b4cfb0" stroke-width="0.5"/><polygon points="464.00,248.00 484.00,248.00 484.00,20.00 464.00,20.00" fill="none" stroke="#b4cfb0" stroke-width="0.5"/><polygon points="484.00,248.00 504.00,248.00 504.00,20.00 484.00,20.00" fill="none" stroke="#b4cfb0" stroke-width="0.5"/><polygon points="264.00,20.00 284.00,20.00 284.00,8.00 264.00,8.00" fill="none" stroke="#b4cfb0" stroke-width="0.5"/><polygon points="284.00,20.00 304.00,20.00 304.00,8.00 284.00,8.00" fill="none" stroke="#b4cfb0" stroke-width="0.5"/><polygon points="304.00,20.00 324.00,20.00 324.00,8.00 304.00,8.00" fill="none" stroke="#b4cfb0" stroke-width="0.5"/><polygon points="324.00,20.00 344.00,20.00 344.00,8.00 324.00,8.00" fill="none" stroke="#b4cfb0" stroke-width="0.5"/><polygon points="344.00,20.00 364.00,20.00 364.00,8.00 344.00,8.00" fill="none" stroke="#b4cfb0" stroke-width="0.5"/><polygon points="364.00,20.00 384.00,20.00 384.00,8.00 364.00,8.00" fill="none" stroke="#b4cfb0" stroke-width="0.5"/><polygon points="384.00,20.00 404.00,20.00 404.00,8.00 384.00,8.00" fill="none" stroke="#b4cfb0" stroke-width="0.5"/><polygon points="404.00,20.00 424.00,20.00 424.00,8.00 404.00,8.00" fill="none" stroke="#b4cfb0" stroke-width="0.5"/><polygon points="424.00,20.00 444.00,20.00 444.00,8.00 424.00,8.00" fill="none" stroke="#b4cfb0" stroke-width="0.5"/><polygon points="444.00,20.00 464.00,20.00 464.00,8.00 444.00,8.00" fill="none" stroke="#b4cfb0" stroke-width="0.5"/><polygon points="464.00,20.00 484.00,20.00 484.00,8.00 464.00,8.00" fill="none" stroke="#b4cfb0" stroke-width="0.5"/><polygon points="484.00,20.00 504.00,20.00 504.00,8.00 484.00,8.00" fill="none" stroke="#b4cfb0" stroke-width="0.5"/><polygon points="504.00,128.00 487.92,68.00 473.08,76.57 486.86,128.00" fill="none" stroke="#b4cfb0" stroke-width="0.5"/><polygon points="487.92,68.00 444.00,24.08 435.43,38.92 473.08,76.57" fill="none" stroke="#b4cfb0" stroke-width="0.5"/><polygon points="444.00,24.08 384.00,8.00 384.00,25.14 435.43,38.92" fill="none" stroke="#b4cfb0" stroke-width="0.5"/><polygon points="384.00,8.00 324.00,24.08 332.57,38.92 384.00,25.14" fill="none" stroke="#b4cfb0" stroke-width="0.5"/><polygon points="324.00,24.08 280.08,68.00 294.92,76.57 332.57,38.92" fill="none" stroke="#b4cfb0" stroke-width="0.5"/><polygon points="280.08,68.00 264.00,128.00 281.14,128.00 294.92,76.57" fill="none" stroke="#b4cfb0" stroke-width="0.5"/><polygon points="264.00,128.00 280.08,188.00 294.92,179.43 281.14,128.00" fill="none" stroke="#b4cfb0" stroke-width="0.5"/><polygon points="280.08,188.00 324.00,231.92 332.57,217.08 294.92,179.43" fill="none" stroke="#b4cfb0" stroke-width="0.5"/><polygon points="324.00,231.92 384.00,248.00 384.00,230.86 332.57,217.08" fill="none" stroke="#b4cfb0" stroke-width="0.5"/><polygon points="384.00,248.00 444.00,231.92 435.43,217.08 384.00,230.86" fill="none" stroke="#b4cfb0" stroke-width="0.5"/><polygon points="444.00,231.92 487.92,188.00 473.08,179.43 435.43,217.08" fill="none" stroke="#b4cfb0" stroke-width="0.5"/><polygon points="487.92,188.00 504.00,128.00 486.86,128.00 473.08,179.43" fill="none" stroke="#b4cfb0" stroke-width="0.5"/><polygon points="264.00,8.00 284.00,8.00 284.00,225.20 264.00,225.20" fill="none" stroke="#b4cfb0" stroke-width="0.5"/><polygon points="284.00,8.00 304.00,8.00 304.00,225.20 284.00,225.20" fill="none" stroke="#b4cfb0" stroke-width="0.5"/><polygon points="304.00,8.00 324.00,8.00 324.00,225.20 304.00,225.20" fill="none" stroke="#b4cfb0" stroke-width="0.5"/><polygon points="324.00,8.00 344.00,8.00 344.00,225.20 324.00,225.20" fill="none" stroke="#b4cfb0" stroke-width="0.5"/><polygon points="344.00,8.00 364.00,8.00 364.00,225.20 344.00,225.20" fill="none" stroke="#b4cfb0" stroke-width="0.5"/><polygon points="364.00,8.00 384.00,8.00 384.00,225.20 364.00,225.20" fill="none" stroke="#b4cfb0" stroke-width="0.5"/><polygon points="384.00,8.00 404.00,8.00 404.00,225.20 384.00,225.20" fill="none" stroke="#b4cfb0" stroke-width="0.5"/><polygon points="404.00,8.00 424.00,8.00 424.00,225.20 404.00,225.20" fill="none" stroke="#b4cfb0" stroke-width="0.5"/><polygon points="424.00,8.00 444.00,8.00 444.00,225.20 424.00,225.20" fill="none" stroke="#b4cfb0" stroke-width="0.5"/><polygon points="444.00,8.00 464.00,8.00 464.00,225.20 444.00,225.20" fill="none" stroke="#b4cfb0" stroke-width="0.5"/><polygon points="464.00,8.00 484.00,8.00 484.00,225.20 464.00,225.20" fill="none" stroke="#b4cfb0" stroke-width="0.5"/><polygon points="484.00,8.00 504.00,8.00 504.00,225.20 484.00,225.20" fill="none" stroke="#b4cfb0" stroke-width="0.5"/><polygon points="471.10,178.29 434.29,215.10 384.00,228.57 333.71,215.10 296.90,178.29 283.43,128.00 296.90,77.71 333.71,40.90 384.00,27.43 434.29,40.90 471.10,77.71 484.57,128.00" fill="none" stroke="#b4cfb0" stroke-width="0.5"/><polygon points="469.71,128.00 458.23,85.14 426.86,53.77 384.00,42.29 341.14,53.77 309.77,85.14 298.29,128.00 309.77,170.86 341.14,202.23 384.00,213.71 426.86,202.23 458.23,170.86" fill="none" stroke="#b4cfb0" stroke-width="0.5"/><polygon points="248.00,248.00 248.00,8.00 228.00,8.00 228.00,248.00" fill="none" stroke="#b4cfb0" stroke-width="0.5"/><polygon points="228.00,248.00 228.00,8.00 208.00,8.00 208.00,248.00" fill="none" stroke="#b4cfb0" stroke-width="0.5"/><polygon points="208.00,248.00 208.00,8.00 188.00,8.00 188.00,248.00" fill="none" stroke="#b4cfb0" stroke-width="0.5"/><polygon points="188.00,248.00 188.00,8.00 168.00,8.00 168.00,248.00" fill="none" stroke="#b4cfb0" stroke-width="0.5"/><polygon points="168.00,248.00 168.00,8.00 148.00,8.00 148.00,248.00" fill="none" stroke="#b4cfb0" stroke-width="0.5"/><polygon points="148.00,248.00 148.00,8.00 128.00,8.00 128.00,248.00" fill="none" stroke="#b4cfb0" stroke-width="0.5"/><polygon points="128.00,248.00 128.00,8.00 108.00,8.00 108.00,248.00" fill="none" stroke="#b4cfb0" stroke-width="0.5"/><polygon points="108.00,248.00 108.00,8.00 88.00,8.00 88.00,248.00" fill="none" stroke="#b4cfb0" stroke-width="0.5"/><polygon points="88.00,248.00 88.00,8.00 68.00,8.00 68.00,248.00" fill="none" stroke="#b4cfb0" stroke-width="0.5"/><polygon points="68.00,248.00 68.00,8.00 48.00,8.00 48.00,248.00" fill="none" stroke="#b4cfb0" stroke-width="0.5"/><polygon points="188.00,24.08 128.00,8.00 68.00,24.08 24.08,68.00 8.00,128.00 24.08,188.00 68.00,231.92 128.00,248.00 188.00,231.92 231.92,188.00 248.00,128.00 231.92,68.00" fill="none" stroke="#b4cfb0" stroke-width="0.5"/><polygon points="48.00,248.00 48.00,8.00 28.00,8.00 28.00,248.00" fill="none" stroke="#b4cfb0" stroke-width="0.5"/><polygon points="28.00,248.00 28.00,8.00 8.00,8.00 8.00,248.00" fill="none" stroke="#b4cfb0" stroke-width="0.5"/><polygon points="128.00,8.00 188.00,24.08 231.92,68.00 248.00,128.00 231.92,188.00 188.00,231.92 128.00,248.00 68.00,231.92 24.08,188.00 8.00,128.00 24.08,68.00 68.00,24.08" fill="none" stroke="#b4cfb0" stroke-width="0.5"/><polygon points="248.00,504.00 248.00,264.00 218.00,264.00 218.00,504.00" fill="none" stroke="#b4cfb0" stroke-width="0.5"/><polygon points="218.00,504.00 218.00,264.00 188.00,264.00 188.00,504.00" fill="none" stroke="#b4cfb0" stroke-width="0.5"/><polygon points="188.00,504.00 188.00,264.00 158.00,264.00 158.00,504.00" fill="none" stroke="#b4cfb0" stroke-width="0.5"/><polygon points="158.00,504.00 158.00,264.00 128.00,264.00 128.00,504.00" fill="none" stroke="#b4cfb0" stroke-width="0.5"/><polygon points="128.00,504.00 128.00,264.00 98.00,264.00 98.00,504.00" fill="none" stroke="#b4cfb0" stroke-width="0.5"/><polygon points="98.00,504.00 98.00,264.00 68.00,264.00 68.00,504.00" fill="none" stroke="#b4cfb0" stroke-width="0.5"/><polygon points="212.85,299.15 128.00,264.00 43.15,299.15 8.00,384.00 43.15,468.85 128.00,504.00 212.85,468.85 248.00,384.00" fill="none" stroke="#b4cfb0" stroke-width="0.5"/><polygon points="68.00,504.00 68.00,264.00 38.00,264.00 38.00,504.00" fill="none" stroke="#b4cfb0" stroke-width="0.5"/><polygon points="38.00,504.00 38.00,264.00 8.00,264.00 8.00,504.00" fill="none" stroke="#b4cfb0" stroke-width="0.5"/><polygon points="128.00,264.00 212.85,299.15 248.00,384.00 212.85,468.85 128.00,504.00 43.15,468.85 8.00,384.00 43.15,299.15" fill="none" stroke="#b4cfb0" stroke-width="0.5"/><polygon points="504.00,504.00 504.00,264.00 464.00,264.00 464.00,504.00" fill="none" stroke="#b4cfb0" stroke-width="0.5"/><polygon points="464.00,504.00 464.00,264.00 424.00,264.00 424.00,504.00" fill="none" stroke="#b4cfb0" stroke-width="0.5"/><polygon points="424.00,504.00 424.00,264.00 384.00,264.00 384.00,504.00" fill="none" stroke="#b4cfb0" stroke-width="0.5"/><polygon points="384.00,504.00 384.00,264.00 344.00,264.00 344.00,504.00" fill="none" stroke="#b4cfb0" stroke-width="0.5"/><polygon points="504.00,324.00 384.00,264.00 264.00,324.00 264.00,444.00 384.00,504.00 504.00,444.00" fill="none" stroke="#b4cfb0" stroke-width="0.5"/><polygon points="344.00,504.00 344.00,264.00 304.00,264.00 304.00,504.00" fill="none" stroke="#b4cfb0" stroke-width="0.5"/><polygon points="304.00,504.00 304.00,264.00 264.00,264.00 264.00,504.00" fill="none" stroke="#b4cfb0" stroke-width="0.5"/><polygon points="384.00,264.00 504.00,324.00 504.00,444.00 384.00,504.00 264.00,444.00 264.00,324.00" fill="none" stroke="#b4cfb0" stroke-width="0.5"/><polygon points="504.00,504.00 504.00,264.00 464.00,264.00 464.00,504.00" fill="none" stroke="#b4cfb0" stroke-width="0.5"/><polygon points="464.00,504.00 464.00,264.00 424.00,264.00 424.00,504.00" fill="none" stroke="#b4cfb0" stroke-width="0.5"/><polygon points="424.00,504.00 424.00,264.00 384.00,264.00 384.00,504.00" fill="none" stroke="#b4cfb0" stroke-width="0.5"/><polygon points="384.00,504.00 384.00,264.00 344.00,264.00 344.00,504.00" fill="none" stroke="#b4cfb0" stroke-width="0.5"/><polygon points="504.00,324.00 384.00,264.00 264.00,324.00 264.00,444.00 384.00,504.00 504.00,444.00" fill="none" stroke="#b4cfb0" stroke-width="0.5"/><polygon points="344.00,504.00 344.00,264.00 304.00,264.00 304.00,504.00" fill="none" stroke="#b4cfb0" stroke-width="0.5"/><polygon points="304.00,504.00 304.00,264.00 264.00,264.00 264.00,504.00" fill="none" stroke="#b4cfb0" stroke-width="0.5"/><polygon points="384.00,264.00 504.00,324.00 504.00,444.00 384.00,504.00 264.00,444.00 264.00,324.00" fill="none" stroke="#b4cfb0" stroke-width="0.5"/><polygon points="504.00,504.00 504.00,264.00 464.00,264.00 464.00,504.00" fill="none" stroke="#b4cfb0" stroke-width="0.5"/><polygon points="464.00,504.00 464.00,264.00 424.00,264.00 424.00,504.00" fill="none" stroke="#b4cfb0" stroke-width="0.5"/><polygon points="424.00,504.00 424.00,264.00 384.00,264.00 384.00,504.00" fill="none" stroke="#b4cfb0" stroke-width="0.5"/><polygon points="384.00,504.00 384.00,264.00 344.00,264.00 344.00,504.00" fill="none" stroke="#b4cfb0" stroke-width="0.5"/><polygon points="504.00,324.00 384.00,264.00 264.00,324.00 264.00,444.00 384.00,504.00 504.00,444.00" fill="none" stroke="#b4cfb0" stroke-width="0.5"/><polygon points="344.00,504.00 344.00,264.00 304.00,264.00 304.00,504.00" fill="none" stroke="#b4cfb0" stroke-width="0.5"/><polygon points="304.00,504.00 304.00,264.00 264.00,264.00 264.00,504.00" fill="none" stroke="#b4cfb0" stroke-width="0.5"/><polygon points="384.00,264.00 504.00,324.00 504.00,444.00 384.00,504.00 264.00,444.00 264.00,324.00" fill="none" stroke="#b4cfb0" stroke-width="0.5"/><polygon points="504.00,504.00 504.00,264.00 464.00,264.00 464.00,504.00" fill="none" stroke="#b4cfb0" stroke-width="0.5"/><polygon points="464.00,504.00 464.00,264.00 424.00,264.00 424.00,504.00" fill="none" stroke="#b4cfb0" stroke-width="0.5"/><polygon points="424.00,504.00 424.00,264.00 384.00,264.00 384.00,504.00" fill="none" stroke="#b4cfb0" stroke-width="0.5"/><polygon points="384.00,504.00 384.00,264.00 344.00,264.00 344.00,504.00" fill="none" stroke="#b4cfb0" stroke-width="0.5"/><polygon points="504.00,324.00 384.00,264.00 264.00,324.00 264.00,444.00 384.00,504.00 504.00,444.00" fill="none" stroke="#b4cfb0" stroke-width="0.5"/><polygon points="344.00,504.00 344.00,264.00 304.00,264.00 304.00,504.00" fill="none" stroke="#b4cfb0" stroke-width="0.5"/><polygon points="304.00,504.00 304.00,264.00 264.00,264.00 264.00,504.00" fill="none" stroke="#b4cfb0" stroke-width="0.5"/><polygon points="384.00,264.00 504.00,324.00 504.00,444.00 384.00,504.00 264.00,444.00 264.00,324.00" fill="none" stroke="#b4cfb0" stroke-width="0.5"/><polygon points="504.00,504.00 504.00,264.00 464.00,264.00 464.00,504.00" fill="none" stroke="#b4cfb0" stroke-width="0.5"/><polygon points="464.00,504.00 464.00,264.00 424.00,264.00 424.00,504.00" fill="none" stroke="#b4cfb0" stroke-width="0.5"/><polygon points="424.00,504.00 424.00,264.00 384.00,264.00 384.00,504.00" fill="none" stroke="#b4cfb0" stroke-width="0.5"/><polygon points="384.00,504.00 384.00,264.00 344.00,264.00 344.00,504.00" fill="none" stroke="#b4cfb0" stroke-width="0.5"/><polygon points="504.00,324.00 384.00,264.00 264.00,324.00 264.00,444.00 384.00,504.00 504.00,444.00" fill="none" stroke="#b4cfb0" stroke-width="0.5"/><polygon points="344.00,504.00 344.00,264.00 304.00,264.00 304.00,504.00" fill="none" stroke="#b4cfb0" stroke-width="0.5"/><polygon points="304.00,504.00 304.00,264.00 264.00,264.00 264.00,504.00" fill="none" stroke="#b4cfb0" stroke-width="0.5"/><polygon points="384.00,264.00 504.00,324.00 504.00,444.00 384.00,504.00 264.00,444.00 264.00,324.00" fill="none" stroke="#b4cfb0" stroke-width="0.5"/><polygon points="504.00,504.00 504.00,264.00 464.00,264.00 464.00,504.00" fill="none" stroke="#b4cfb0" stroke-width="0.5"/><polygon points="464.00,504.00 464.00,264.00 424.00,264.00 424.00,504.00" fill="none" stroke="#b4cfb0" stroke-width="0.5"/><polygon points="424.00,504.00 424.00,264.00 384.00,264.00 384.00,504.00" fill="none" stroke="#b4cfb0" stroke-width="0.5"/><polygon points="384.00,504.00 384.00,264.00 344.00,264.00 344.00,504.00" fill="none" stroke="#b4cfb0" stroke-width="0.5"/><polygon points="504.00,324.00 384.00,264.00 264.00,324.00 264.00,444.00 384.00,504.00 504.00,444.00" fill="none" stroke="#b4cfb0" stroke-width="0.5"/><polygon points="344.00,504.00 344.00,264.00 304.00,264.00 304.00,504.00" fill="none" stroke="#b4cfb0" stroke-width="0.5"/><polygon points="304.00,504.00 304.00,264.00 264.00,264.00 264.00,504.00" fill="none" stroke="#b4cfb0" stroke-width="0.5"/><polygon points="384.00,264.00 504.00,324.00 504.00,444.00 384.00,504.00 264.00,444.00 264.00,324.00" fill="none" stroke="#b4cfb0" stroke-width="0.5"/></svg>