{"asset":{"version":"2.0","generator":"Blockbench 5.2.1 glTF exporter"},"scenes":[{"nodes":[0],"name":"blockbench_export"}],"scene":0,"nodes":[{"name":"WoodPanelWall","mesh":0}],"bufferViews":[{"buffer":0,"byteOffset":0,"byteLength":2496,"target":34962,"byteStride":12},{"buffer":0,"byteOffset":2496,"byteLength":2496,"target":34962,"byteStride":12},{"buffer":0,"byteOffset":4992,"byteLength":1664,"target":34962,"byteStride":8},{"buffer":0,"byteOffset":6656,"byteLength":624,"target":34963}],"buffers":[{"byteLength":7280,"uri":"data:application/octet-stream;base64,"}],"accessors":[{"bufferView":0,"componentType":5126,"count":208,"max":[0.5,2.5,0.10000000149011612],"min":[-0.5,0,-0.10000000149011612],"type":"VEC3"},{"bufferView":1,"componentType":5126,"count":208,"max":[1,0.8944271802902222,1],"min":[-1,-0.8944271802902222,0],"type":"VEC3"},{"bufferView":2,"componentType":5126,"count":208,"max":[0.8125,0.96875],"min":[0.0625,0.03125],"type":"VEC2"},{"bufferView":3,"componentType":5123,"count":312,"max":[207],"min":[0],"type":"SCALAR"}],"materials":[{"pbrMetallicRoughness":{"metallicFactor":0,"roughnessFactor":0.78,"baseColorTexture":{"index":0}},"alphaMode":"OPAQUE","alphaCutoff":0.05,"doubleSided":false,"name":"AgedWalnut"}],"textures":[{"sampler":0,"source":0,"name":"wood_panel_wall_albedo.png"}],"samplers":[{"magFilter":9728,"minFilter":9984,"wrapS":33071,"wrapT":33071}],"images":[{"mimeType":"image/png","uri":"wood_panel_wall_albedo.png"}],"meshes":[{"primitives":[{"mode":4,"attributes":{"POSITION":0,"NORMAL":1,"TEXCOORD_0":2},"indices":3,"material":0}]}]}