# Original vertex-authored hollow wreck boot for Casino Royale
mtllib car_palette.mtl
o wreck_cavity
v -2.0100 0.4500 -0.7300
v -1.1600 0.4500 -0.7300
v -1.1600 0.4500 0.7300
v -2.0100 0.4500 0.7300
v -2.0100 0.9350 -0.7300
v -1.1600 0.9350 -0.7300
v -1.1600 0.4500 -0.7300
v -2.0100 0.4500 -0.7300
v -1.1600 0.9350 0.7300
v -2.0100 0.9350 0.7300
v -2.0100 0.4500 0.7300
v -1.1600 0.4500 0.7300
v -2.0100 0.9350 0.7300
v -2.0100 0.9350 -0.7300
v -2.0100 0.4500 -0.7300
v -2.0100 0.4500 0.7300
v -1.1600 0.9350 -0.7300
v -1.1600 0.9350 0.7300
v -1.1600 0.4500 0.7300
v -1.1600 0.4500 -0.7300
usemtl cavity
f 1 3 2
f 1 4 3
f 5 7 6
f 5 8 7
f 9 11 10
f 9 12 11
f 13 15 14
f 13 16 15
f 17 19 18
f 17 20 19
