# Original vertex-authored wreck for Casino Royale
mtllib car_palette.mtl
o wreck_body
v -2.0500 0.3000 -0.8200
v 2.0500 0.3000 -0.8200
v 2.0500 0.3000 0.8200
v -2.0500 0.3000 0.8200
v -2.0500 0.9300 0.8200
v 2.0500 0.9300 0.8200
v 2.0500 0.9300 -0.8200
v -2.0500 0.9300 -0.8200
v -2.0500 0.9300 -0.8200
v 2.0500 0.9300 -0.8200
v 2.0500 0.3000 -0.8200
v -2.0500 0.3000 -0.8200
v 2.0500 0.9300 -0.8200
v 2.0500 0.9300 0.8200
v 2.0500 0.3000 0.8200
v 2.0500 0.3000 -0.8200
v 2.0500 0.9300 0.8200
v -2.0500 0.9300 0.8200
v -2.0500 0.3000 0.8200
v 2.0500 0.3000 0.8200
v -2.0500 0.9300 0.8200
v -2.0500 0.9300 -0.8200
v -2.0500 0.3000 -0.8200
v -2.0500 0.3000 0.8200
v -0.7200 1.6600 -0.6300
v 0.4900 1.6600 -0.6300
v 0.9400 0.8800 -0.7200
v -1.2000 0.8800 -0.7200
v -1.2000 0.8800 0.7200
v 0.9400 0.8800 0.7200
v 0.4900 1.6600 0.6300
v -0.7200 1.6600 0.6300
v 0.9400 0.8800 -0.7200
v 0.9400 0.8800 0.7200
v -1.2000 0.8800 0.7200
v -1.2000 0.8800 -0.7200
v 0.4900 1.6600 -0.6300
v 0.4900 1.6600 0.6300
v 0.9400 0.8800 0.7200
v 0.9400 0.8800 -0.7200
v -0.7200 1.6600 -0.6300
v -0.7200 1.6600 0.6300
v 0.4900 1.6600 0.6300
v 0.4900 1.6600 -0.6300
v -1.2000 0.8800 -0.7200
v -1.2000 0.8800 0.7200
v -0.7200 1.6600 0.6300
v -0.7200 1.6600 -0.6300
usemtl paint
f 1 2 3
f 1 3 4
f 5 6 7
f 5 7 8
f 9 10 11
f 9 11 12
f 13 14 15
f 13 15 16
f 17 18 19
f 17 19 20
f 21 22 23
f 21 23 24
f 25 26 27
f 25 27 28
f 29 30 31
f 29 31 32
f 33 34 35
f 33 35 36
f 37 38 39
f 37 39 40
f 41 42 43
f 41 43 44
f 45 46 47
f 45 47 48
