# Original vertex-authored wreck for Casino Royale
mtllib car_palette.mtl
o wreck_boot
v -0.9900 0.0000 -0.7800
v 0.0100 0.0000 -0.7800
v 0.0100 0.0000 0.7800
v -0.9900 0.0000 0.7800
v -0.9900 0.0900 0.7800
v 0.0100 0.0900 0.7800
v 0.0100 0.0900 -0.7800
v -0.9900 0.0900 -0.7800
v -0.9900 0.0900 -0.7800
v 0.0100 0.0900 -0.7800
v 0.0100 0.0000 -0.7800
v -0.9900 0.0000 -0.7800
v 0.0100 0.0900 -0.7800
v 0.0100 0.0900 0.7800
v 0.0100 0.0000 0.7800
v 0.0100 0.0000 -0.7800
v 0.0100 0.0900 0.7800
v -0.9900 0.0900 0.7800
v -0.9900 0.0000 0.7800
v 0.0100 0.0000 0.7800
v -0.9900 0.0900 0.7800
v -0.9900 0.0900 -0.7800
v -0.9900 0.0000 -0.7800
v -0.9900 0.0000 0.7800
usemtl paint
f 1 2 3
f 1 3 4
f 5 6 7
f 5 7 8
f 9 10 11
f 9 11 12
f 13 14 15
f 13 15 16
f 17 18 19
f 17 19 20
f 21 22 23
f 21 23 24
